<svg width="360" height="360" viewBox="0 0 360 360" fill="none" xmlns="http://www.w3.org/2000/svg">
<path opacity="0.8" d="M134.526 132.072L213.423 210.982V125.812C200.609 121.049 186.91 119.142 173.283 120.223C159.655 121.304 146.429 125.348 134.526 132.072Z" fill="#FFA101"/>
<path opacity="0.8" d="M205.714 123.323V234.909L265.959 174.664C260.26 162.237 251.916 151.204 241.511 142.336C231.105 133.468 218.888 126.979 205.714 123.323Z" fill="#F7ED00"/>
<path opacity="0.8" d="M262.26 167.448L183.364 246.359H268.547C273.309 233.541 275.214 219.838 274.128 206.208C273.042 192.578 268.991 179.35 262.26 167.448Z" fill="#B5DD01"/>
<path opacity="0.8" d="M271.051 238.637H159.465L219.696 298.881C232.126 293.183 243.161 284.84 252.031 274.434C260.901 264.028 267.392 251.811 271.051 238.637Z" fill="#60C660"/>
<path opacity="0.8" d="M226.912 295.237L148.016 216.327V301.525C160.831 306.284 174.531 308.187 188.159 307.101C201.786 306.015 215.012 301.966 226.912 295.237Z" fill="#668FD1"/>
<path opacity="0.8" d="M95.4791 252.632C101.178 265.06 109.522 276.093 119.928 284.961C130.333 293.828 142.55 300.317 155.724 303.973V192.388L95.4791 252.632Z" fill="#9869BC"/>
<path opacity="0.8" d="M92.8348 180.951C88.0731 193.766 86.1687 207.467 87.2547 221.095C88.3408 234.722 92.3911 247.948 99.1223 259.847L178.075 180.951H92.8348Z" fill="#D35F99"/>
<path opacity="0.8" d="M141.742 128.415C129.315 134.113 118.281 142.454 109.411 152.857C100.541 163.26 94.0485 175.474 90.3872 188.646H201.987L141.742 128.415Z" fill="#E54838"/>
<path d="M246.522 143.996C232.77 130.982 215.466 122.342 196.801 119.17C178.136 115.998 158.949 118.436 141.67 126.177C124.392 133.917 109.8 146.612 99.7412 162.652V50.5879H85V213.655C84.9908 237.102 93.5877 259.736 109.16 277.265C124.732 294.793 146.196 305.997 169.481 308.75C192.765 311.503 216.25 305.614 235.48 292.2C284.136 258.261 289.111 184.302 246.522 143.996ZM180.719 294.633C159.249 294.611 138.665 286.072 123.484 270.89C108.302 255.709 99.7635 235.125 99.7412 213.655V213.458C99.7857 197.452 104.573 181.818 113.498 168.531C122.423 155.244 135.085 144.899 149.886 138.805C164.687 132.71 180.961 131.139 196.655 134.289C212.348 137.439 226.756 145.169 238.058 156.503C249.361 167.836 257.051 182.266 260.157 197.968C263.264 213.67 261.647 229.94 255.511 244.724C249.376 259.508 238.996 272.141 225.685 281.029C212.373 289.917 196.726 294.661 180.719 294.661V294.633Z" fill="#1D1B2F"/>
</svg>
