<svg width="360" height="360" viewBox="0 0 360 360" fill="none" xmlns="http://www.w3.org/2000/svg">
<path fill-rule="evenodd" clip-rule="evenodd" d="M53.1365 233.049C35.6209 215.687 35.6212 187.538 53.1371 170.177L100.711 123.021C115.518 108.345 138.102 106.075 155.315 116.212C160.639 119.347 160.593 126.54 156.213 130.881C151.835 135.221 144.686 134.847 138.743 133.124C131.131 130.918 122.572 132.79 116.569 138.74L68.9949 185.895C60.237 194.576 60.2368 208.65 68.9947 217.331C77.7527 226.012 91.9524 226.012 100.71 217.331L195.857 123.022C213.374 105.66 241.772 105.66 259.289 123.022L306.863 170.177C324.379 187.538 324.379 215.687 306.863 233.049C289.347 250.411 260.948 250.411 243.431 233.049L227.574 217.331L207.752 236.979C192.944 251.655 170.36 253.925 153.147 243.788C147.823 240.653 147.87 233.46 152.249 229.12C156.628 224.779 163.776 225.152 169.72 226.875C177.331 229.082 185.891 227.21 191.893 221.26L212.282 201.052C220.728 192.681 234.42 192.681 242.866 201.052L259.29 217.331C268.048 226.012 282.247 226.012 291.005 217.331C299.763 208.65 299.763 194.576 291.005 185.895L243.43 138.74C234.673 130.059 220.473 130.059 211.716 138.74L116.568 233.049C99.0522 250.411 70.6525 250.411 53.1365 233.049Z" fill="black"/>
</svg>
