<svg width="360" height="360" viewBox="0 0 360 360" fill="none" xmlns="http://www.w3.org/2000/svg">
<path d="M180 304C248.483 304 304 248.483 304 180C304 111.517 248.483 56 180 56C111.517 56 56 111.517 56 180C56 248.483 111.517 304 180 304Z" fill="#5CCEC1"/>
<path d="M176.39 93.1096C176.629 89.7371 174.111 86.8076 170.766 86.5666C167.421 86.3255 164.515 88.8641 164.276 92.2368L176.39 93.1096ZM164.276 92.2368C163.038 109.696 161.554 138.103 157.37 164.033C155.278 176.997 152.552 189.056 148.961 198.646C145.273 208.496 141.099 214.563 136.87 217.094L143.069 227.623C151.015 222.867 156.418 213.401 160.323 202.97C164.325 192.28 167.209 179.312 169.357 165.999C173.654 139.375 175.177 110.227 176.39 93.1096L164.276 92.2368Z" fill="white"/>
<path d="M150.156 196.516L154.211 191.929L153.913 191.67L153.584 191.45L150.156 196.516ZM259.017 247.161C262.295 246.282 264.237 242.933 263.351 239.679C262.467 236.425 259.092 234.499 255.813 235.376L259.017 247.161ZM129.209 220.249C120.902 220.249 116.479 217.193 114.342 214.013C112.078 210.644 111.711 206.183 113.284 202.239C114.813 198.409 118.102 195.25 123.118 194.3C128.241 193.331 136.125 194.515 146.727 201.583L153.584 191.45C141.3 183.262 130.139 180.547 120.815 182.311C111.383 184.095 104.822 190.301 101.851 197.744C98.9265 205.073 99.4124 213.792 104.111 220.784C108.935 227.965 117.582 232.454 129.209 232.454V220.249ZM146.1 201.103C178.94 229.705 212.268 259.681 259.017 247.161L255.813 235.376C216.484 245.911 188.326 221.641 154.211 191.929L146.1 201.103ZM140.141 222.283C137.126 216.964 137.127 216.964 137.127 216.964C137.127 216.964 137.128 216.964 137.128 216.963C137.127 216.963 137.128 216.963 137.128 216.963C137.128 216.963 137.13 216.963 137.13 216.963C137.129 216.963 137.127 216.964 137.123 216.965C137.116 216.969 137.102 216.978 137.081 216.988C137.04 217.012 136.974 217.048 136.886 217.096C136.709 217.191 136.444 217.332 136.112 217.502C135.443 217.848 134.525 218.303 133.52 218.751C132.499 219.207 131.474 219.618 130.575 219.906C129.568 220.227 129.156 220.249 129.209 220.249V232.454C131.086 232.454 132.952 231.967 134.337 231.525C135.829 231.05 137.309 230.444 138.566 229.883C139.838 229.314 140.969 228.752 141.78 228.334C142.188 228.124 142.521 227.947 142.756 227.82C142.874 227.756 142.968 227.705 143.036 227.668C143.07 227.649 143.097 227.634 143.117 227.623C143.127 227.618 143.136 227.612 143.142 227.61C143.145 227.607 143.148 227.606 143.151 227.604C143.152 227.604 143.153 227.603 143.154 227.603C143.154 227.603 143.155 227.602 143.155 227.602C143.156 227.602 143.157 227.602 140.141 222.283Z" fill="#327885"/>
</svg>
