<svg width="360" height="360" viewBox="0 0 360 360" fill="none" xmlns="http://www.w3.org/2000/svg">
<path d="M133.667 320C159.427 320 180.333 299.093 180.333 273.333V226.667H133.667C107.907 226.667 87 247.573 87 273.333C87 299.093 107.907 320 133.667 320Z" fill="#0ACF83"/>
<path d="M87 180C87 154.24 107.907 133.333 133.667 133.333H180.333V226.667H133.667C107.907 226.667 87 205.76 87 180Z" fill="#A259FF"/>
<path d="M87 86.6667C87 60.9067 107.907 40 133.667 40H180.333V133.333H133.667C107.907 133.333 87 112.427 87 86.6667Z" fill="#F24E1E"/>
<path d="M180.333 40H227C252.76 40 273.667 60.9067 273.667 86.6667C273.667 112.427 252.76 133.333 227 133.333H180.333V40Z" fill="#FF7262"/>
<path d="M273.667 180C273.667 205.76 252.76 226.667 227 226.667C201.24 226.667 180.333 205.76 180.333 180C180.333 154.24 201.24 133.333 227 133.333C252.76 133.333 273.667 154.24 273.667 180Z" fill="#1ABCFE"/>
</svg>
