<?xml version="1.0" encoding="utf-8"?>
<!-- Generator: Adobe Illustrator 27.0.0, SVG Export Plug-In . SVG Version: 6.00 Build 0)  -->
<svg version="1.1" id="Layer_1" xmlns="http://www.w3.org/2000/svg" xmlns:xlink="http://www.w3.org/1999/xlink" x="0px" y="0px"
	 viewBox="0 0 4528.96 2560" style="enable-background:new 0 0 4528.96 2560;" xml:space="preserve">
<style type="text/css">
	.st0{fill:#1D2755;}
	.st1{opacity:0.33;}
	.st2{fill:#000C38;}
</style>
<rect x="-20.38" y="0" class="st0" width="4569.73" height="2578.46"/>
<g class="st1">
	<g>
		<g>
			<g>
				<path class="st2" d="M1439.1,372.77c-7.59-11.02-11.51-24.25-11.51-39.44V308.6l9.06-2.69
					c111.22-33.33,195.74-94.57,251.1-182.02c26.21-41.4,39.44-76.18,39.44-103.62c0-7.55-1.36-14.27-4.08-20.26h-129.2
					c-30.28,18.1-63,45.06-97.97,80.76c-87.21,88.92-131.31,180.55-131.31,272.18c0,32.08,7.35,57.32,21.81,75.2
					c22.05,26.46,51.44,39.44,90.4,39.44c38.95,0,82.07-12.49,128.12-37.48c46.79-25.24,91.38-58.55,133.02-98.97
					c27.52-26.67,51.23-56.85,75.84-86.14c25.07-29.84,51.85-57.92,81.66-83.07c45.59-38.47,102.25-75.52,164.16-75.52
					c36.75,0,63.69,12.5,80.11,37c7.59,11.03,11.51,24.25,11.51,39.44v24.75l-9.06,2.69c-111.22,33.31-195.74,94.56-250.86,182.02
					c-26.45,41.4-39.68,76.42-39.68,103.61c0,15.44,5.63,27.44,17.39,37c9.55,7.11,19.84,10.78,31.85,10.78
					c50.71,0,111.71-36.5,182.02-108.28c87.21-88.92,131.31-180.3,131.31-272.17c0-31.85-7.35-57.33-21.8-75.22
					c-21.8-26.45-51.44-39.44-90.4-39.44c-38.95,0-82.07,12.74-127.88,37.49c-46.79,25.23-91.62,58.54-133.02,98.97
					c-16.31,15.79-32.25,31.94-46.56,49.71c-25.82,32.08-50.92,63.23-80.69,91.84c-25.85,24.84-53.6,48.08-84.18,66.9
					c-33.15,20.41-70.97,36.27-110.48,36.27C1482.7,409.77,1455.76,397.27,1439.1,372.77z M1447.43,246.86
					c32.83-75.69,74.96-134.5,124.94-174.67c29.89-24.02,52.92-35.77,70.8-35.77c17.64,0,28.66,11.27,28.66,29.64
					c0,13.23-4.9,27.68-14.45,43.11c-24.01,39.69-56.59,75.69-97.26,107.06c-23.77,17.63-56.35,33.56-97.01,47.76l-27.19,9.07
					L1447.43,246.86z M2131.65,249.3c-33.07,75.71-75.21,134.5-125.18,174.68c-29.64,24.01-52.92,35.77-70.8,35.77
					c-17.64,0-28.66-11.27-28.66-29.64c0-13.23,4.9-27.69,14.7-43.12c23.76-39.69,56.59-75.69,97.26-106.81
					c23.52-17.88,56.1-33.8,97.01-48.01l26.94-9.07L2131.65,249.3z"/>
			</g>
		</g>
		<g>
			<g>
				<path class="st2" d="M1677.95,1145.04c12,0,22.54-3.67,32.09-11.03c11.51-9.31,17.15-21.32,17.15-36.75
					c0-27.44-13.23-62.23-39.44-103.62c-55.36-87.45-139.88-148.7-251.1-182.02l-9.06-2.69v-24.74c0-15.19,3.92-28.42,11.51-39.44
					c16.66-24.5,43.61-37,80.11-37c39.51,0,77.33,15.87,110.48,36.27c30.58,18.82,58.33,42.06,84.18,66.9
					c29.77,28.61,54.87,59.75,80.69,91.84c14.3,17.77,30.25,33.93,46.56,49.71c41.4,40.43,86.23,73.74,133.02,98.97
					c45.81,24.75,88.92,37.49,127.88,37.49c38.95,0,68.59-12.99,90.4-39.44c14.46-17.88,21.8-43.36,21.8-75.22
					c0-91.87-44.09-183.24-131.31-272.17c-70.31-71.78-131.31-108.28-182.02-108.28c-12,0-22.29,3.67-31.85,10.78
					c-11.76,9.56-17.39,21.56-17.39,37c0,27.19,13.23,62.21,39.68,103.61c55.12,87.46,139.64,148.71,250.86,182.02l9.06,2.69v24.75
					c0,15.19-3.92,28.41-11.51,39.44c-16.41,24.5-43.36,37-80.11,37c-61.9,0-118.57-37.06-164.16-75.52
					c-29.81-25.15-56.59-53.23-81.66-83.07c-24.61-29.29-48.32-59.47-75.84-86.14c-41.65-40.42-86.23-73.73-133.02-98.97
					c-46.06-24.99-89.17-37.48-128.12-37.48s-68.35,12.98-90.4,39.44c-14.46,17.88-21.81,43.12-21.81,75.2
					c0,91.63,44.1,183.25,131.31,272.18C1566.24,1108.53,1627.49,1145.04,1677.95,1145.04z M2142.91,894.43l-26.94-9.07
					c-40.92-14.21-73.49-30.13-97.01-48.01c-40.67-31.11-73.49-67.12-97.26-106.81c-9.8-15.43-14.7-29.89-14.7-43.12
					c0-18.37,11.02-29.64,28.66-29.64c17.88,0,41.16,11.76,70.8,35.77c49.98,40.18,92.11,98.97,125.18,174.68L2142.91,894.43z
					 M1643.16,1081.09c-17.88,0-40.91-11.75-70.8-35.77c-49.98-40.17-92.11-98.97-124.94-174.67l-11.51-26.21l27.19,9.07
					c40.67,14.2,73.25,30.13,97.01,47.76c40.67,31.36,73.25,67.37,97.26,107.06c9.55,15.43,14.45,29.88,14.45,43.11
					C1671.82,1069.83,1660.8,1081.09,1643.16,1081.09z"/>
			</g>
		</g>
		<g>
			<g>
				<path class="st2" d="M22.23,787.49c-12.79,12.38-25.34,25-37.06,38.43v53.22c3.25-3.91,6.5-7.82,9.76-11.7
					C20,837.6,46.78,809.52,76.59,784.37c45.59-38.47,102.25-75.52,164.16-75.52c36.75,0,63.69,12.5,80.11,37
					c7.59,11.03,11.51,24.25,11.51,39.44v24.75l-9.06,2.69c-111.22,33.31-195.74,94.56-250.86,182.02
					c-26.45,41.4-39.68,76.42-39.68,103.61c0,15.44,5.63,27.44,17.39,37c9.55,7.11,19.84,10.78,31.85,10.78
					c50.71,0,111.71-36.5,182.02-108.28c87.21-88.92,131.31-180.3,131.31-272.17c0-31.85-7.35-57.33-21.8-75.22
					c-21.8-26.45-51.44-39.44-90.4-39.44c-38.95,0-82.07,12.74-127.88,37.49C108.47,713.74,63.64,747.06,22.23,787.49z
					 M312.78,871.75c-33.07,75.71-75.21,134.5-125.18,174.68c-29.64,24.01-52.92,35.77-70.8,35.77c-17.64,0-28.66-11.27-28.66-29.64
					c0-13.23,4.9-27.69,14.7-43.12c23.76-39.69,56.59-75.69,97.26-106.81c23.52-17.88,56.1-33.8,97.01-48.01l26.94-9.07
					L312.78,871.75z"/>
				<path class="st2" d="M72.45,122.79c55.12,87.46,139.64,148.71,250.86,182.02l9.06,2.69v24.75c0,15.19-3.92,28.41-11.51,39.44
					c-16.41,24.5-43.36,37-80.11,37c-61.9,0-118.57-37.06-164.16-75.52C46.78,308.02,20,279.94-5.07,250.1
					c-3.27-3.89-6.52-7.79-9.76-11.7v53.22c11.72,13.43,24.28,26.05,37.06,38.43c41.4,40.43,86.23,73.74,133.02,98.97
					c45.81,24.75,88.92,37.49,127.88,37.49c38.95,0,68.59-12.99,90.4-39.44c14.46-17.88,21.8-43.36,21.8-75.22
					c0-91.87-44.09-183.24-131.31-272.17c-34.29-35.01-66.36-61.6-96.1-79.68H36.39c-2.42,5.73-3.62,12.09-3.62,19.18
					C32.77,46.37,46,81.39,72.45,122.79z M187.59,71.1c49.98,40.18,92.11,98.97,125.18,174.68l11.27,26.21l-26.94-9.07
					c-40.92-14.21-73.49-30.13-97.01-48.01c-40.67-31.11-73.49-67.12-97.26-106.81c-9.8-15.43-14.7-29.89-14.7-43.12
					c0-18.37,11.02-29.64,28.66-29.64C134.68,35.34,157.95,47.1,187.59,71.1z"/>
			</g>
			<g>
				<path class="st2" d="M548.96,366.7c-7.59-11.03-11.51-24.25-11.51-39.44v-24.75l9.06-2.69
					c111.22-33.31,195.74-94.56,250.86-182.02c26.45-41.4,39.68-76.42,39.68-103.61c0-5.09-0.63-9.8-1.87-14.18H693.95
					c-27.49,17.86-56.9,42.78-88.15,74.69C518.59,163.62,474.49,255,474.49,346.87c0,31.85,7.35,57.33,21.8,75.22
					c21.8,26.45,51.44,39.44,90.4,39.44c38.95,0,82.07-12.74,127.88-37.49c46.79-25.23,91.62-58.54,133.02-98.97
					c16.31-15.79,32.25-31.94,46.56-49.71c25.82-32.08,50.92-63.23,80.69-91.84c25.85-24.84,53.6-48.08,84.18-66.9
					c33.15-20.41,70.97-36.27,110.48-36.27c36.5,0,63.45,12.5,80.11,37c7.59,11.02,11.51,24.25,11.51,39.44v24.74l-9.06,2.69
					c-111.22,33.33-195.74,94.57-251.1,182.02c-26.21,41.4-39.44,76.18-39.44,103.62c0,15.43,5.63,27.44,17.15,36.75
					c9.55,7.36,20.09,11.03,32.09,11.03c50.46,0,111.71-36.51,182.02-108.28c87.21-88.92,131.31-180.55,131.31-272.18
					c0-32.08-7.35-57.32-21.81-75.2c-22.05-26.46-51.44-39.44-90.4-39.44c-38.95,0-82.07,12.49-128.12,37.48
					c-46.79,25.24-91.38,58.55-133.02,98.97c-27.52,26.67-51.23,56.85-75.84,86.14c-25.07,29.84-51.85,57.92-81.66,83.07
					c-45.59,38.47-102.25,75.52-164.16,75.52C592.32,403.69,565.38,391.19,548.96,366.7z M557.05,240.79
					c33.07-75.71,75.21-134.5,125.18-174.68c29.64-24.01,52.92-35.77,70.8-35.77c17.64,0,28.66,11.27,28.66,29.64
					c0,13.23-4.9,27.69-14.7,43.12c-23.76,39.69-56.59,75.69-97.26,106.81c-23.52,17.88-56.1,33.8-97.01,48.01L545.78,267
					L557.05,240.79z M1241.27,243.23c-32.83,75.69-74.96,134.5-124.94,174.67c-29.89,24.02-52.92,35.77-70.8,35.77
					c-17.64,0-28.66-11.27-28.66-29.64c0-13.23,4.9-27.68,14.45-43.11c24.01-39.69,56.59-75.69,97.26-107.06
					c23.77-17.63,56.35-33.56,97.01-47.76l27.19-9.07L1241.27,243.23z"/>
				<path class="st2" d="M1010.74,589.93c-12,0-22.54,3.67-32.09,11.03c-11.51,9.31-17.15,21.32-17.15,36.75
					c0,27.44,13.23,62.23,39.44,103.62c55.36,87.45,139.88,148.7,251.1,182.02l9.06,2.69v24.74c0,15.19-3.92,28.42-11.51,39.44
					c-16.66,24.5-43.61,37-80.11,37c-39.51,0-77.33-15.87-110.48-36.27c-30.58-18.82-58.33-42.06-84.18-66.9
					c-29.77-28.61-54.87-59.75-80.69-91.84c-14.3-17.77-30.25-33.93-46.56-49.71c-41.4-40.43-86.23-73.74-133.02-98.97
					c-45.81-24.75-88.92-37.49-127.88-37.49c-38.95,0-68.59,12.99-90.4,39.44c-14.46,17.88-21.8,43.36-21.8,75.22
					c0,91.87,44.09,183.24,131.31,272.17c70.31,71.78,131.31,108.28,182.02,108.28c12,0,22.29-3.67,31.85-10.78
					c11.76-9.56,17.39-21.56,17.39-37c0-27.19-13.23-62.21-39.68-103.61C742.24,902.3,657.72,841.05,546.5,807.74l-9.06-2.69V780.3
					c0-15.19,3.92-28.41,11.51-39.44c16.41-24.5,43.36-37,80.11-37c61.9,0,118.57,37.06,164.16,75.52
					c29.81,25.15,56.59,53.23,81.66,83.07c24.61,29.29,48.32,59.47,75.84,86.14c41.65,40.42,86.23,73.73,133.02,98.97
					c46.06,24.99,89.17,37.48,128.12,37.48s68.35-12.98,90.4-39.44c14.46-17.88,21.81-43.12,21.81-75.2
					c0-91.63-44.1-183.25-131.31-272.18C1122.45,626.44,1061.21,589.93,1010.74,589.93z M545.78,840.54l26.94,9.07
					c40.92,14.21,73.49,30.13,97.01,48.01c40.67,31.11,73.49,67.12,97.26,106.81c9.8,15.43,14.7,29.89,14.7,43.12
					c0,18.37-11.02,29.64-28.66,29.64c-17.88,0-41.16-11.76-70.8-35.77c-49.98-40.18-92.11-98.97-125.18-174.68L545.78,840.54z
					 M1045.53,653.88c17.88,0,40.91,11.75,70.8,35.77c49.98,40.17,92.11,98.97,124.94,174.67l11.51,26.21l-27.19-9.07
					c-40.67-14.2-73.25-30.13-97.01-47.76c-40.67-31.36-73.25-67.37-97.26-107.06c-9.55-15.43-14.45-29.88-14.45-43.11
					C1016.87,665.15,1027.89,653.88,1045.53,653.88z"/>
			</g>
		</g>
	</g>
	<g>
		<g>
			<g>
				<path class="st2" d="M3314.8,703.2c-87.21,88.92-131.31,180.55-131.31,272.18c0,32.08,7.35,57.32,21.81,75.2
					c22.05,26.46,51.44,39.44,90.4,39.44c38.95,0,82.07-12.49,128.12-37.48c46.79-25.24,91.38-58.55,133.02-98.97
					c27.52-26.67,51.23-56.85,75.84-86.14c25.07-29.84,51.85-57.92,81.66-83.07c45.59-38.47,102.25-75.52,164.16-75.52
					c36.75,0,63.69,12.5,80.11,37c7.59,11.03,11.51,24.25,11.51,39.44v24.75l-9.06,2.69c-111.22,33.31-195.74,94.56-250.86,182.02
					c-26.45,41.4-39.68,76.42-39.68,103.61c0,15.44,5.63,27.44,17.39,37c9.55,7.11,19.84,10.78,31.85,10.78
					c50.71,0,111.71-36.5,182.02-108.28c87.21-88.92,131.31-180.3,131.31-272.17c0-31.85-7.35-57.33-21.8-75.22
					c-21.8-26.45-51.44-39.44-90.4-39.44c-38.95,0-82.07,12.74-127.88,37.49c-46.79,25.23-91.62,58.54-133.02,98.97
					c-16.31,15.79-32.25,31.94-46.56,49.71c-25.82,32.08-50.92,63.23-80.69,91.84c-25.85,24.84-53.6,48.08-84.18,66.9
					c-33.15,20.41-70.97,36.27-110.48,36.27c-36.5,0-63.45-12.5-80.11-37c-7.59-11.02-11.51-24.25-11.51-39.44v-24.74l9.06-2.69
					c111.22-33.33,195.74-94.57,251.1-182.02c26.21-41.4,39.44-76.18,39.44-103.62c0-15.43-5.63-27.44-17.15-36.75
					c-9.55-7.36-20.09-11.03-32.09-11.03C3446.36,594.93,3385.11,631.43,3314.8,703.2z M3950.52,871.75
					c-33.07,75.71-75.21,134.5-125.18,174.68c-29.64,24.01-52.92,35.77-70.8,35.77c-17.64,0-28.66-11.27-28.66-29.64
					c0-13.23,4.9-27.69,14.7-43.12c23.76-39.69,56.59-75.69,97.26-106.81c23.52-17.88,56.1-33.8,97.01-48.01l26.94-9.07
					L3950.52,871.75z M3490.69,688.51c0,13.23-4.9,27.68-14.45,43.11c-24.01,39.69-56.59,75.69-97.26,107.06
					c-23.77,17.63-56.35,33.56-97.01,47.76l-27.19,9.07l11.51-26.21c32.83-75.69,74.96-134.5,124.94-174.67
					c29.89-24.02,52.92-35.77,70.8-35.77C3479.67,658.87,3490.69,670.14,3490.69,688.51z"/>
				<path class="st2" d="M3674.13,0c-2.42,5.73-3.62,12.09-3.62,19.18c0,27.19,13.23,62.21,39.68,103.61
					c55.12,87.46,139.64,148.71,250.86,182.02l9.06,2.69v24.75c0,15.19-3.92,28.41-11.51,39.44c-16.41,24.5-43.36,37-80.11,37
					c-61.9,0-118.57-37.06-164.16-75.52c-29.81-25.15-56.59-53.23-81.66-83.07c-24.61-29.29-48.32-59.47-75.84-86.14
					c-41.65-40.42-86.23-73.73-133.02-98.97c-46.06-24.99-89.17-37.48-128.12-37.48s-68.35,12.98-90.4,39.44
					c-14.46,17.88-21.81,43.12-21.81,75.2c0,91.63,44.1,183.25,131.31,272.18c70.31,71.77,131.55,108.28,182.02,108.28
					c12,0,22.54-3.67,32.09-11.03c11.51-9.31,17.15-21.32,17.15-36.75c0-27.44-13.23-62.23-39.44-103.62
					c-55.36-87.45-139.88-148.7-251.1-182.02l-9.06-2.69v-24.74c0-15.19,3.92-28.42,11.51-39.44c16.66-24.5,43.61-37,80.11-37
					c39.51,0,77.33,15.87,110.48,36.27c30.58,18.82,58.33,42.06,84.18,66.9c29.77,28.61,54.87,59.75,80.69,91.84
					c14.3,17.77,30.25,33.93,46.56,49.71c41.4,40.43,86.23,73.74,133.02,98.97c45.81,24.75,88.92,37.49,127.88,37.49
					c38.95,0,68.59-12.99,90.4-39.44c14.46-17.88,21.8-43.36,21.8-75.22c0-91.87-44.09-183.24-131.31-272.17
					c-34.29-35.01-66.36-61.6-96.1-79.68L3674.13,0z M3281.97,231.08c40.67,14.2,73.25,30.13,97.01,47.76
					c40.67,31.36,73.25,67.37,97.26,107.06c9.55,15.43,14.45,29.88,14.45,43.11c0,18.37-11.02,29.64-28.66,29.64
					c-17.88,0-40.91-11.75-70.8-35.77c-49.98-40.17-92.11-98.97-124.94-174.67L3254.78,222L3281.97,231.08z M3825.33,71.1
					c49.98,40.18,92.11,98.97,125.18,174.68l11.27,26.21l-26.94-9.07c-40.92-14.21-73.49-30.13-97.01-48.01
					c-40.67-31.11-73.49-67.12-97.26-106.81c-9.8-15.43-14.7-29.89-14.7-43.12c0-18.37,11.02-29.64,28.66-29.64
					C3772.42,35.34,3795.69,47.1,3825.33,71.1z"/>
			</g>
			<g>
				<path class="st2" d="M4331.69,0c-27.49,17.86-56.9,42.78-88.15,74.69c-87.21,88.92-131.31,180.3-131.31,272.17
					c0,31.85,7.35,57.33,21.8,75.22c21.8,26.45,51.44,39.44,90.4,39.44c38.95,0,82.07-12.74,127.88-37.49
					c46.79-25.23,91.62-58.54,133.02-98.97c16.31-15.79,32.25-31.94,46.56-49.71c2.7-3.35,5.38-6.69,8.07-10.01v-53.05
					c-9.15,10.92-18.18,21.93-27.33,32.83c-25.07,29.84-51.85,57.92-81.66,83.07c-45.59,38.47-102.25,75.52-164.16,75.52
					c-36.75,0-63.69-12.5-80.11-37c-7.59-11.03-11.51-24.25-11.51-39.44v-24.75l9.06-2.69c111.22-33.31,195.74-94.56,250.86-182.02
					c26.45-41.4,39.68-76.42,39.68-103.61c0-5.09-0.63-9.8-1.87-14.18h-141.23L4331.69,0L4331.69,0z M4419.43,59.98
					c0,13.23-4.9,27.69-14.7,43.12c-23.76,39.69-56.59,75.69-97.25,106.81c-23.52,17.88-56.1,33.8-97.01,48.01l-26.94,9.07
					l11.27-26.21c33.07-75.71,75.21-134.5,125.18-174.68c29.64-24.01,52.92-35.77,70.8-35.77
					C4408.41,30.34,4419.43,41.61,4419.43,59.98z"/>
				<path class="st2" d="M4474.79,1093.35c0-27.19-13.23-62.21-39.68-103.61c-55.12-87.46-139.64-148.71-250.86-182.02l-9.06-2.69
					v-24.75c0-15.19,3.92-28.41,11.51-39.44c16.41-24.5,43.36-37,80.11-37c61.9,0,118.57,37.06,164.16,75.52
					c29.81,25.15,56.59,53.23,81.66,83.07c9.15,10.9,18.18,21.91,27.33,32.83v-53.05c-2.69-3.33-5.37-6.66-8.07-10.01
					c-14.3-17.77-30.25-33.93-46.56-49.71c-41.4-40.43-86.23-73.74-133.02-98.97c-45.81-24.75-88.92-37.49-127.88-37.49
					c-38.95,0-68.59,12.99-90.4,39.44c-14.46,17.88-21.8,43.36-21.8,75.22c0,91.87,44.09,183.24,131.31,272.17
					c70.31,71.78,131.31,108.28,182.02,108.28c12,0,22.29-3.67,31.85-10.78C4469.16,1120.79,4474.79,1108.8,4474.79,1093.35z
					 M4319.97,1041.43c-49.98-40.18-92.11-98.97-125.18-174.68l-11.27-26.21l26.94,9.07c40.92,14.21,73.49,30.13,97.01,48.01
					c40.67,31.11,73.49,67.12,97.25,106.81c9.8,15.43,14.7,29.89,14.7,43.12c0,18.37-11.02,29.64-28.66,29.64
					C4372.89,1077.19,4349.61,1065.44,4319.97,1041.43z"/>
			</g>
		</g>
		<g>
			<g>
				<path class="st2" d="M2782.56,0c-1.45,4.68-2.19,9.75-2.19,15.27c0,27.44,13.23,62.23,39.44,103.62
					c55.36,87.45,139.88,148.7,251.1,182.02l9.06,2.69v24.74c0,15.19-3.92,28.42-11.51,39.44c-16.66,24.5-43.61,37-80.11,37
					c-39.51,0-77.33-15.87-110.48-36.27c-30.58-18.82-58.33-42.06-84.18-66.9c-29.77-28.61-54.87-59.75-80.69-91.84
					c-14.3-17.77-30.25-33.93-46.56-49.71c-41.4-40.43-86.23-73.74-133.02-98.97c-45.81-24.75-88.92-37.49-127.88-37.49
					c-38.95,0-68.59,12.99-90.4,39.44c-14.46,17.88-21.8,43.36-21.8,75.22c0,91.87,44.09,183.24,131.31,272.17
					c70.31,71.78,131.31,108.28,182.02,108.28c12,0,22.29-3.67,31.85-10.78c11.76-9.56,17.39-21.56,17.39-37
					c0-27.19-13.23-62.21-39.68-103.61c-55.12-87.46-139.64-148.71-250.86-182.02l-9.06-2.69v-24.75c0-15.19,3.92-28.41,11.51-39.44
					c16.41-24.5,43.36-37,80.11-37c61.9,0,118.57,37.06,164.16,75.52c29.81,25.15,56.59,53.23,81.66,83.07
					c24.61,29.29,48.32,59.47,75.84,86.14c41.65,40.42,86.23,73.73,133.02,98.97c46.06,24.99,89.17,37.48,128.12,37.48
					c38.95,0,68.35-12.98,90.4-39.44c14.46-17.88,21.81-43.12,21.81-75.2c0-91.63-44.1-183.25-131.31-272.18
					c-31.9-32.56-61.92-57.84-89.93-75.77h-139.14L2782.56,0L2782.56,0z M2391.59,227.17c40.92,14.21,73.49,30.13,97.01,48.01
					c40.67,31.11,73.49,67.12,97.26,106.81c9.8,15.43,14.7,29.89,14.7,43.12c0,18.37-11.02,29.64-28.66,29.64
					c-17.88,0-41.16-11.76-70.8-35.77c-49.98-40.18-92.11-98.97-125.18-174.68l-11.27-26.21L2391.59,227.17z M2935.2,67.2
					c49.98,40.17,92.11,98.97,124.94,174.67l11.51,26.21l-27.19-9.07c-40.67-14.2-73.25-30.13-97.01-47.76
					c-40.67-31.36-73.25-67.37-97.26-107.06c-9.55-15.43-14.45-29.88-14.45-43.11c0-18.37,11.02-29.64,28.66-29.64
					C2882.28,31.44,2905.31,43.18,2935.2,67.2z"/>
			</g>
		</g>
		<g>
			<g>
				<path class="st2" d="M3011.63,1031.77c87.21-88.92,131.31-180.55,131.31-272.18c0-32.08-7.35-57.32-21.81-75.2
					c-22.05-26.46-51.44-39.44-90.4-39.44c-38.95,0-82.07,12.49-128.12,37.48c-46.79,25.24-91.38,58.55-133.02,98.97
					c-27.52,26.67-51.23,56.85-75.84,86.14c-25.07,29.84-51.85,57.92-81.66,83.07c-45.59,38.47-102.25,75.52-164.16,75.52
					c-36.75,0-63.69-12.5-80.11-37c-7.59-11.03-11.51-24.25-11.51-39.44v-24.75l9.06-2.69c111.22-33.31,195.74-94.56,250.86-182.02
					c26.45-41.4,39.68-76.42,39.68-103.61c0-15.44-5.63-27.44-17.39-37c-9.55-7.11-19.84-10.78-31.85-10.78
					c-50.71,0-111.71,36.5-182.02,108.28c-87.21,88.92-131.31,180.3-131.31,272.17c0,31.85,7.35,57.33,21.8,75.22
					c21.8,26.45,51.44,39.44,90.4,39.44c38.95,0,82.07-12.74,127.88-37.49c46.79-25.23,91.62-58.54,133.02-98.97
					c16.31-15.79,32.25-31.94,46.56-49.71c25.82-32.08,50.92-63.23,80.69-91.84c25.85-24.84,53.6-48.08,84.18-66.9
					c33.15-20.41,70.97-36.27,110.48-36.27c36.5,0,63.45,12.5,80.11,37c7.59,11.02,11.51,24.25,11.51,39.44v24.74l-9.06,2.69
					c-111.22,33.33-195.74,94.57-251.1,182.02c-26.21,41.4-39.44,76.18-39.44,103.62c0,15.43,5.63,27.44,17.15,36.75
					c9.55,7.36,20.09,11.03,32.09,11.03C2880.08,1140.05,2941.32,1103.54,3011.63,1031.77z M2375.92,863.23
					c33.07-75.71,75.21-134.5,125.18-174.68c29.64-24.01,52.92-35.77,70.8-35.77c17.64,0,28.66,11.27,28.66,29.64
					c0,13.23-4.9,27.69-14.7,43.12c-23.76,39.69-56.59,75.69-97.26,106.81c-23.52,17.88-56.1,33.8-97.01,48.01l-26.94,9.07
					L2375.92,863.23z M2835.74,1046.46c0-13.23,4.9-27.68,14.45-43.11c24.01-39.69,56.59-75.69,97.26-107.06
					c23.77-17.63,56.35-33.56,97.01-47.76l27.19-9.07l-11.51,26.21c-32.83,75.69-74.96,134.5-124.94,174.67
					c-29.89,24.02-52.92,35.77-70.8,35.77C2846.76,1076.1,2835.74,1064.83,2835.74,1046.46z"/>
			</g>
		</g>
	</g>
	<g>
		<g>
			<g>
				<path class="st2" d="M1495.93,1325.65c-87.21,88.92-131.31,180.55-131.31,272.18c0,32.08,7.35,57.32,21.81,75.2
					c22.05,26.46,51.44,39.44,90.4,39.44c38.95,0,82.07-12.49,128.12-37.48c46.79-25.24,91.38-58.55,133.02-98.97
					c27.52-26.67,51.23-56.85,75.84-86.14c25.07-29.84,51.85-57.92,81.66-83.07c45.59-38.47,102.25-75.52,164.16-75.52
					c36.75,0,63.69,12.5,80.11,37c7.59,11.03,11.51,24.25,11.51,39.44v24.75l-9.06,2.69c-111.22,33.31-195.74,94.56-250.86,182.02
					c-26.45,41.4-39.68,76.42-39.68,103.61c0,15.44,5.63,27.44,17.39,37c9.55,7.11,19.84,10.78,31.85,10.78
					c50.71,0,111.71-36.5,182.02-108.28c87.21-88.92,131.31-180.3,131.31-272.17c0-31.85-7.35-57.33-21.8-75.22
					c-21.8-26.45-51.44-39.44-90.4-39.44c-38.95,0-82.07,12.74-127.88,37.49c-46.79,25.23-91.62,58.54-133.02,98.97
					c-16.31,15.79-32.25,31.94-46.56,49.71c-25.82,32.08-50.92,63.23-80.69,91.84c-25.85,24.84-53.6,48.08-84.18,66.9
					c-33.15,20.41-70.97,36.27-110.48,36.27c-36.5,0-63.45-12.5-80.11-37c-7.59-11.02-11.51-24.25-11.51-39.44v-24.74l9.06-2.69
					c111.22-33.33,195.74-94.57,251.1-182.02c26.21-41.4,39.44-76.18,39.44-103.62c0-15.43-5.63-27.44-17.15-36.75
					c-9.55-7.36-20.09-11.03-32.09-11.03C1627.49,1217.37,1566.24,1253.87,1495.93,1325.65z M2131.65,1494.19
					c-33.07,75.71-75.21,134.5-125.18,174.68c-29.64,24.01-52.92,35.77-70.8,35.77c-17.64,0-28.66-11.27-28.66-29.64
					c0-13.23,4.9-27.69,14.7-43.12c23.76-39.69,56.59-75.69,97.26-106.81c23.52-17.88,56.1-33.8,97.01-48.01l26.94-9.07
					L2131.65,1494.19z M1671.82,1310.96c0,13.23-4.9,27.68-14.45,43.11c-24.01,39.69-56.59,75.69-97.26,107.06
					c-23.77,17.63-56.35,33.56-97.01,47.76l-27.19,9.07l11.51-26.21c32.83-75.69,74.96-134.5,124.94-174.67
					c29.89-24.02,52.92-35.77,70.8-35.77C1660.8,1281.31,1671.82,1292.58,1671.82,1310.96z"/>
			</g>
		</g>
		<g>
			<g>
				<path class="st2" d="M1677.95,2389.92c12,0,22.54-3.67,32.09-11.03c11.51-9.31,17.15-21.32,17.15-36.75
					c0-27.44-13.23-62.23-39.44-103.62c-55.36-87.45-139.88-148.7-251.1-182.02l-9.06-2.69v-24.74c0-15.19,3.92-28.42,11.51-39.44
					c16.66-24.5,43.61-37,80.11-37c39.51,0,77.33,15.87,110.48,36.27c30.58,18.82,58.33,42.06,84.18,66.9
					c29.77,28.61,54.87,59.75,80.69,91.84c14.3,17.77,30.25,33.93,46.56,49.71c41.4,40.43,86.23,73.74,133.02,98.97
					c45.81,24.75,88.92,37.49,127.88,37.49c38.95,0,68.59-12.99,90.4-39.44c14.46-17.88,21.8-43.36,21.8-75.22
					c0-91.87-44.09-183.24-131.31-272.17c-70.31-71.78-131.31-108.28-182.02-108.28c-12,0-22.29,3.67-31.85,10.78
					c-11.76,9.56-17.39,21.56-17.39,37c0,27.19,13.23,62.21,39.68,103.61c55.12,87.46,139.64,148.71,250.86,182.02l9.06,2.69v24.75
					c0,15.19-3.92,28.41-11.51,39.44c-16.41,24.5-43.36,37-80.11,37c-61.9,0-118.57-37.06-164.16-75.52
					c-29.81-25.15-56.59-53.23-81.66-83.07c-24.61-29.29-48.32-59.47-75.84-86.14c-41.65-40.42-86.23-73.73-133.02-98.97
					c-46.06-24.99-89.17-37.48-128.12-37.48s-68.35,12.98-90.4,39.44c-14.46,17.88-21.81,43.12-21.81,75.2
					c0,91.63,44.1,183.25,131.31,272.18C1566.24,2353.42,1627.49,2389.92,1677.95,2389.92z M2142.91,2139.31l-26.94-9.07
					c-40.92-14.21-73.49-30.13-97.01-48.01c-40.67-31.11-73.49-67.12-97.26-106.81c-9.8-15.43-14.7-29.89-14.7-43.12
					c0-18.37,11.02-29.64,28.66-29.64c17.88,0,41.16,11.76,70.8,35.77c49.98,40.18,92.11,98.97,125.18,174.68L2142.91,2139.31z
					 M1643.16,2325.98c-17.88,0-40.91-11.75-70.8-35.77c-49.98-40.17-92.11-98.97-124.94-174.67l-11.51-26.21l27.19,9.07
					c40.67,14.2,73.25,30.13,97.01,47.76c40.67,31.36,73.25,67.37,97.26,107.06c9.55,15.43,14.45,29.88,14.45,43.11
					C1671.82,2314.71,1660.8,2325.98,1643.16,2325.98z"/>
			</g>
		</g>
		<g>
			<g>
				<path class="st2" d="M22.23,2032.37c-12.79,12.38-25.34,25-37.06,38.43v53.22c3.25-3.91,6.5-7.82,9.76-11.7
					c25.07-29.84,51.85-57.92,81.66-83.07c45.59-38.47,102.25-75.52,164.16-75.52c36.75,0,63.69,12.5,80.11,37
					c7.59,11.03,11.51,24.25,11.51,39.44v24.75l-9.06,2.69c-111.22,33.31-195.74,94.56-250.86,182.02
					c-26.45,41.4-39.68,76.42-39.68,103.61c0,15.44,5.63,27.44,17.39,37c9.55,7.11,19.84,10.78,31.85,10.78
					c50.71,0,111.71-36.5,182.02-108.28c87.21-88.92,131.31-180.3,131.31-272.17c0-31.85-7.35-57.33-21.8-75.22
					c-21.8-26.45-51.44-39.44-90.4-39.44c-38.95,0-82.07,12.74-127.88,37.49C108.47,1958.62,63.64,1991.94,22.23,2032.37z
					 M312.78,2116.63c-33.07,75.71-75.21,134.5-125.18,174.68c-29.64,24.01-52.92,35.77-70.8,35.77
					c-17.64,0-28.66-11.27-28.66-29.64c0-13.23,4.9-27.69,14.7-43.12c23.76-39.69,56.59-75.69,97.26-106.81
					c23.52-17.88,56.1-33.8,97.01-48.01l26.94-9.07L312.78,2116.63z"/>
				<path class="st2" d="M32.77,1264.06c0,27.19,13.23,62.21,39.68,103.61c55.12,87.46,139.64,148.71,250.86,182.02l9.06,2.69v24.75
					c0,15.19-3.92,28.41-11.51,39.44c-16.41,24.5-43.36,37-80.11,37c-61.9,0-118.57-37.06-164.16-75.52
					c-29.81-25.15-56.59-53.23-81.66-83.07c-3.27-3.89-6.52-7.79-9.76-11.7v53.22c11.72,13.43,24.28,26.05,37.06,38.43
					c41.4,40.43,86.23,73.74,133.02,98.97c45.81,24.75,88.92,37.49,127.88,37.49c38.95,0,68.59-12.99,90.4-39.44
					c14.46-17.88,21.8-43.36,21.8-75.22c0-91.87-44.09-183.24-131.31-272.17c-70.31-71.78-131.31-108.28-182.02-108.28
					c-12,0-22.29,3.67-31.85,10.78C38.4,1236.62,32.77,1248.62,32.77,1264.06z M187.59,1315.99
					c49.98,40.18,92.11,98.97,125.18,174.68l11.27,26.21l-26.94-9.07c-40.92-14.21-73.49-30.13-97.01-48.01
					c-40.67-31.11-73.49-67.12-97.26-106.81c-9.8-15.43-14.7-29.89-14.7-43.12c0-18.37,11.02-29.64,28.66-29.64
					C134.68,1280.22,157.95,1291.98,187.59,1315.99z"/>
			</g>
			<g>
				<path class="st2" d="M1192.76,1654.21c87.21-88.92,131.31-180.55,131.31-272.18c0-32.08-7.35-57.32-21.81-75.2
					c-22.05-26.46-51.44-39.44-90.4-39.44c-38.95,0-82.07,12.49-128.12,37.48c-46.79,25.24-91.38,58.55-133.02,98.97
					c-27.52,26.67-51.23,56.85-75.84,86.14c-25.07,29.84-51.85,57.92-81.66,83.07c-45.59,38.47-102.25,75.52-164.16,75.52
					c-36.75,0-63.69-12.5-80.11-37c-7.59-11.03-11.51-24.25-11.51-39.44v-24.75l9.06-2.69c111.22-33.31,195.74-94.56,250.86-182.02
					c26.45-41.4,39.68-76.42,39.68-103.61c0-15.44-5.63-27.44-17.39-37c-9.55-7.11-19.84-10.78-31.85-10.78
					c-50.71,0-111.71,36.5-182.02,108.28c-87.21,88.92-131.31,180.3-131.31,272.17c0,31.85,7.35,57.33,21.8,75.22
					c21.8,26.45,51.44,39.44,90.4,39.44c38.95,0,82.07-12.74,127.88-37.49c46.79-25.23,91.62-58.54,133.02-98.97
					c16.31-15.79,32.25-31.94,46.56-49.71c25.82-32.08,50.92-63.23,80.69-91.84c25.85-24.84,53.6-48.08,84.18-66.9
					c33.15-20.41,70.97-36.27,110.48-36.27c36.5,0,63.45,12.5,80.11,37c7.59,11.02,11.51,24.25,11.51,39.44v24.74l-9.06,2.69
					c-111.22,33.33-195.74,94.57-251.1,182.02c-26.21,41.4-39.44,76.18-39.44,103.62c0,15.43,5.63,27.44,17.15,36.75
					c9.55,7.36,20.09,11.03,32.09,11.03C1061.21,1762.49,1122.45,1725.98,1192.76,1654.21z M557.05,1485.67
					c33.07-75.71,75.21-134.5,125.18-174.68c29.64-24.01,52.92-35.77,70.8-35.77c17.64,0,28.66,11.27,28.66,29.64
					c0,13.23-4.9,27.69-14.7,43.12c-23.76,39.69-56.59,75.69-97.26,106.81c-23.52,17.88-56.1,33.8-97.01,48.01l-26.94,9.07
					L557.05,1485.67z M1016.87,1668.9c0-13.23,4.9-27.68,14.45-43.11c24.01-39.69,56.59-75.69,97.26-107.06
					c23.77-17.63,56.35-33.56,97.01-47.76l27.19-9.07l-11.51,26.21c-32.83,75.69-74.96,134.5-124.94,174.67
					c-29.89,24.02-52.92,35.77-70.8,35.77C1027.89,1698.54,1016.87,1687.27,1016.87,1668.9z"/>
				<path class="st2" d="M1010.74,1834.81c-12,0-22.54,3.67-32.09,11.03c-11.51,9.31-17.15,21.32-17.15,36.75
					c0,27.44,13.23,62.23,39.44,103.62c55.36,87.45,139.88,148.7,251.1,182.02l9.06,2.69v24.74c0,15.19-3.92,28.42-11.51,39.44
					c-16.66,24.5-43.61,37-80.11,37c-39.51,0-77.33-15.87-110.48-36.27c-30.58-18.82-58.33-42.06-84.18-66.9
					c-29.77-28.61-54.87-59.75-80.69-91.84c-14.3-17.77-30.25-33.93-46.56-49.71c-41.4-40.43-86.23-73.74-133.02-98.97
					c-45.81-24.75-88.92-37.49-127.88-37.49c-38.95,0-68.59,12.99-90.4,39.44c-14.46,17.88-21.8,43.36-21.8,75.22
					c0,91.87,44.09,183.24,131.31,272.17c70.31,71.78,131.31,108.28,182.02,108.28c12,0,22.29-3.67,31.85-10.78
					c11.76-9.56,17.39-21.56,17.39-37c0-27.19-13.23-62.21-39.68-103.61c-55.12-87.46-139.64-148.71-250.86-182.02l-9.06-2.69
					v-24.75c0-15.19,3.92-28.41,11.51-39.44c16.41-24.5,43.36-37,80.11-37c61.9,0,118.57,37.06,164.16,75.52
					c29.81,25.15,56.59,53.23,81.66,83.07c24.61,29.29,48.32,59.47,75.84,86.14c41.65,40.42,86.23,73.73,133.02,98.97
					c46.06,24.99,89.17,37.48,128.12,37.48s68.35-12.98,90.4-39.44c14.46-17.88,21.81-43.12,21.81-75.2
					c0-91.63-44.1-183.25-131.31-272.18C1122.45,1871.32,1061.21,1834.81,1010.74,1834.81z M545.78,2085.42l26.94,9.07
					c40.92,14.21,73.49,30.13,97.01,48.01c40.67,31.11,73.49,67.12,97.26,106.81c9.8,15.43,14.7,29.89,14.7,43.12
					c0,18.37-11.02,29.64-28.66,29.64c-17.88,0-41.16-11.76-70.8-35.77c-49.98-40.18-92.11-98.97-125.18-174.68L545.78,2085.42z
					 M1045.53,1898.76c17.88,0,40.91,11.75,70.8,35.77c49.98,40.17,92.11,98.97,124.94,174.67l11.51,26.21l-27.19-9.07
					c-40.67-14.2-73.25-30.13-97.01-47.76c-40.67-31.36-73.25-67.37-97.26-107.06c-9.55-15.43-14.45-29.88-14.45-43.11
					C1016.87,1910.03,1027.89,1898.76,1045.53,1898.76z"/>
			</g>
		</g>
	</g>
	<g>
		<g>
			<g>
				<path class="st2" d="M3314.8,1948.09c-87.21,88.92-131.31,180.55-131.31,272.18c0,32.08,7.35,57.32,21.81,75.2
					c22.05,26.46,51.44,39.44,90.4,39.44c38.95,0,82.07-12.49,128.12-37.48c46.79-25.24,91.38-58.55,133.02-98.97
					c27.52-26.67,51.23-56.85,75.84-86.14c25.07-29.84,51.85-57.92,81.66-83.07c45.59-38.47,102.25-75.52,164.16-75.52
					c36.75,0,63.69,12.5,80.11,37c7.59,11.03,11.51,24.25,11.51,39.44v24.75l-9.06,2.69c-111.22,33.31-195.74,94.56-250.86,182.02
					c-26.45,41.4-39.68,76.42-39.68,103.61c0,15.44,5.63,27.44,17.39,37c9.55,7.11,19.84,10.78,31.85,10.78
					c50.71,0,111.71-36.5,182.02-108.28c87.21-88.92,131.31-180.3,131.31-272.17c0-31.85-7.35-57.33-21.8-75.22
					c-21.8-26.45-51.44-39.44-90.4-39.44c-38.95,0-82.07,12.74-127.88,37.49c-46.79,25.23-91.62,58.54-133.02,98.97
					c-16.31,15.79-32.25,31.94-46.56,49.71c-25.82,32.08-50.92,63.23-80.69,91.84c-25.85,24.84-53.6,48.08-84.18,66.9
					c-33.15,20.41-70.97,36.27-110.48,36.27c-36.5,0-63.45-12.5-80.11-37c-7.59-11.02-11.51-24.25-11.51-39.44v-24.74l9.06-2.69
					c111.22-33.33,195.74-94.57,251.1-182.02c26.21-41.4,39.44-76.18,39.44-103.62c0-15.43-5.63-27.44-17.15-36.75
					c-9.55-7.36-20.09-11.03-32.09-11.03C3446.36,1839.81,3385.11,1876.32,3314.8,1948.09z M3950.52,2116.63
					c-33.07,75.71-75.21,134.5-125.18,174.68c-29.64,24.01-52.92,35.77-70.8,35.77c-17.64,0-28.66-11.27-28.66-29.64
					c0-13.23,4.9-27.69,14.7-43.12c23.76-39.69,56.59-75.69,97.26-106.81c23.52-17.88,56.1-33.8,97.01-48.01l26.94-9.07
					L3950.52,2116.63z M3490.69,1933.4c0,13.23-4.9,27.68-14.45,43.11c-24.01,39.69-56.59,75.69-97.26,107.06
					c-23.77,17.63-56.35,33.56-97.01,47.76l-27.19,9.07l11.51-26.21c32.83-75.69,74.96-134.5,124.94-174.67
					c29.89-24.02,52.92-35.77,70.8-35.77C3479.67,1903.76,3490.69,1915.02,3490.69,1933.4z"/>
				<path class="st2" d="M3496.82,1767.48c12,0,22.54-3.67,32.09-11.03c11.51-9.31,17.15-21.32,17.15-36.75
					c0-27.44-13.23-62.23-39.44-103.62c-55.36-87.45-139.88-148.7-251.1-182.02l-9.06-2.69v-24.74c0-15.19,3.92-28.42,11.51-39.44
					c16.66-24.5,43.61-37,80.11-37c39.51,0,77.33,15.87,110.48,36.27c30.58,18.82,58.33,42.06,84.18,66.9
					c29.77,28.61,54.87,59.75,80.69,91.84c14.3,17.77,30.25,33.93,46.56,49.71c41.4,40.43,86.23,73.74,133.02,98.97
					c45.81,24.75,88.92,37.49,127.88,37.49c38.95,0,68.59-12.99,90.4-39.44c14.46-17.88,21.8-43.36,21.8-75.22
					c0-91.87-44.09-183.24-131.31-272.17c-70.31-71.78-131.31-108.28-182.02-108.28c-12,0-22.29,3.67-31.85,10.78
					c-11.76,9.56-17.39,21.56-17.39,37c0,27.19,13.23,62.21,39.68,103.61c55.12,87.46,139.64,148.71,250.86,182.02l9.06,2.69v24.75
					c0,15.19-3.92,28.41-11.51,39.44c-16.41,24.5-43.36,37-80.11,37c-61.9,0-118.57-37.06-164.16-75.52
					c-29.81-25.15-56.59-53.23-81.66-83.07c-24.61-29.29-48.32-59.47-75.84-86.14c-41.65-40.42-86.23-73.73-133.02-98.97
					c-46.06-24.99-89.17-37.48-128.12-37.48c-38.95,0-68.35,12.98-90.4,39.44c-14.46,17.88-21.81,43.12-21.81,75.2
					c0,91.63,44.1,183.25,131.31,272.18C3385.11,1730.98,3446.36,1767.48,3496.82,1767.48z M3961.78,1516.87l-26.94-9.07
					c-40.92-14.21-73.49-30.13-97.01-48.01c-40.67-31.11-73.49-67.12-97.26-106.81c-9.8-15.43-14.7-29.89-14.7-43.12
					c0-18.37,11.02-29.64,28.66-29.64c17.88,0,41.16,11.76,70.8,35.77c49.98,40.18,92.11,98.97,125.18,174.68L3961.78,1516.87z
					 M3462.03,1703.54c-17.88,0-40.91-11.75-70.8-35.77c-49.98-40.17-92.11-98.97-124.94-174.67l-11.51-26.21l27.19,9.07
					c40.67,14.2,73.25,30.13,97.01,47.76c40.67,31.36,73.25,67.37,97.26,107.06c9.55,15.43,14.45,29.88,14.45,43.11
					C3490.69,1692.27,3479.67,1703.54,3462.03,1703.54z"/>
			</g>
			<g>
				<path class="st2" d="M4485.33,1569.93c16.31-15.79,32.25-31.94,46.56-49.71c2.7-3.35,5.38-6.69,8.07-10.01v-53.05
					c-9.15,10.92-18.18,21.93-27.33,32.83c-25.07,29.84-51.85,57.92-81.66,83.07c-45.59,38.47-102.25,75.52-164.16,75.52
					c-36.75,0-63.69-12.5-80.11-37c-7.59-11.03-11.51-24.25-11.51-39.44v-24.75l9.06-2.69c111.22-33.31,195.74-94.56,250.86-182.02
					c26.45-41.4,39.68-76.42,39.68-103.61c0-15.44-5.63-27.44-17.39-37c-9.55-7.11-19.84-10.78-31.85-10.78
					c-50.71,0-111.71,36.5-182.02,108.28c-87.21,88.92-131.31,180.3-131.31,272.17c0,31.85,7.35,57.33,21.8,75.22
					c21.8,26.45,51.44,39.44,90.4,39.44c38.95,0,82.07-12.74,127.88-37.49C4399.1,1643.67,4443.93,1610.36,4485.33,1569.93z
					 M4194.79,1485.67c33.07-75.71,75.21-134.5,125.18-174.68c29.64-24.01,52.92-35.77,70.8-35.77c17.64,0,28.66,11.27,28.66,29.64
					c0,13.23-4.9,27.69-14.7,43.12c-23.76,39.69-56.59,75.69-97.25,106.81c-23.52,17.88-56.1,33.8-97.01,48.01l-26.94,9.07
					L4194.79,1485.67z"/>
				<path class="st2" d="M4474.79,2338.24c0-27.19-13.23-62.21-39.68-103.61c-55.12-87.46-139.64-148.71-250.86-182.02l-9.06-2.69
					v-24.75c0-15.19,3.92-28.41,11.51-39.44c16.41-24.5,43.36-37,80.11-37c61.9,0,118.57,37.06,164.16,75.52
					c29.81,25.15,56.59,53.23,81.66,83.07c9.15,10.9,18.18,21.91,27.33,32.83v-53.05c-2.69-3.33-5.37-6.66-8.07-10.01
					c-14.3-17.77-30.25-33.93-46.56-49.71c-41.4-40.43-86.23-73.74-133.02-98.97c-45.81-24.75-88.92-37.49-127.88-37.49
					c-38.95,0-68.59,12.99-90.4,39.44c-14.46,17.88-21.8,43.36-21.8,75.22c0,91.87,44.09,183.24,131.31,272.17
					c70.31,71.78,131.31,108.28,182.02,108.28c12,0,22.29-3.67,31.85-10.78C4469.16,2365.68,4474.79,2353.68,4474.79,2338.24z
					 M4319.97,2286.31c-49.98-40.18-92.11-98.97-125.18-174.68l-11.27-26.21l26.94,9.07c40.92,14.21,73.49,30.13,97.01,48.01
					c40.67,31.11,73.49,67.12,97.25,106.81c9.8,15.43,14.7,29.89,14.7,43.12c0,18.37-11.02,29.64-28.66,29.64
					C4372.89,2322.08,4349.61,2310.32,4319.97,2286.31z"/>
			</g>
		</g>
		<g>
			<g>
				<path class="st2" d="M2829.61,1212.37c-12,0-22.54,3.67-32.09,11.03c-11.51,9.31-17.15,21.32-17.15,36.75
					c0,27.44,13.23,62.23,39.44,103.62c55.36,87.45,139.88,148.7,251.1,182.02l9.06,2.69v24.74c0,15.19-3.92,28.42-11.51,39.44
					c-16.66,24.5-43.61,37-80.11,37c-39.51,0-77.33-15.87-110.48-36.27c-30.58-18.82-58.33-42.06-84.18-66.9
					c-29.77-28.61-54.87-59.75-80.69-91.84c-14.3-17.77-30.25-33.93-46.56-49.71c-41.4-40.43-86.23-73.74-133.02-98.97
					c-45.81-24.75-88.92-37.49-127.88-37.49c-38.95,0-68.59,12.99-90.4,39.44c-14.46,17.88-21.8,43.36-21.8,75.22
					c0,91.87,44.09,183.24,131.31,272.17c70.31,71.78,131.31,108.28,182.02,108.28c12,0,22.29-3.67,31.85-10.78
					c11.76-9.56,17.39-21.56,17.39-37c0-27.19-13.23-62.21-39.68-103.61c-55.12-87.46-139.64-148.71-250.86-182.02l-9.06-2.69
					v-24.75c0-15.19,3.92-28.41,11.51-39.44c16.41-24.5,43.36-37,80.11-37c61.9,0,118.57,37.06,164.16,75.52
					c29.81,25.15,56.59,53.23,81.66,83.07c24.61,29.29,48.32,59.47,75.84,86.14c41.65,40.42,86.23,73.73,133.02,98.97
					c46.06,24.99,89.17,37.48,128.12,37.48c38.95,0,68.35-12.98,90.4-39.44c14.46-17.88,21.81-43.12,21.81-75.2
					c0-91.63-44.1-183.25-131.31-272.18C2941.32,1248.88,2880.08,1212.37,2829.61,1212.37z M2364.65,1462.98l26.94,9.07
					c40.92,14.21,73.49,30.13,97.01,48.01c40.67,31.11,73.49,67.12,97.26,106.81c9.8,15.43,14.7,29.89,14.7,43.12
					c0,18.37-11.02,29.64-28.66,29.64c-17.88,0-41.16-11.76-70.8-35.77c-49.98-40.18-92.11-98.97-125.18-174.68L2364.65,1462.98z
					 M2864.4,1276.32c17.88,0,40.91,11.75,70.8,35.77c49.98,40.17,92.11,98.97,124.94,174.67l11.51,26.21l-27.19-9.07
					c-40.67-14.2-73.25-30.13-97.01-47.76c-40.67-31.36-73.25-67.37-97.26-107.06c-9.55-15.43-14.45-29.88-14.45-43.11
					C2835.74,1287.59,2846.76,1276.32,2864.4,1276.32z"/>
			</g>
		</g>
		<g>
			<g>
				<path class="st2" d="M3011.63,2276.65c87.21-88.92,131.31-180.55,131.31-272.18c0-32.08-7.35-57.32-21.81-75.2
					c-22.05-26.46-51.44-39.44-90.4-39.44c-38.95,0-82.07,12.49-128.12,37.48c-46.79,25.24-91.38,58.55-133.02,98.97
					c-27.52,26.67-51.23,56.85-75.84,86.14c-25.07,29.84-51.85,57.92-81.66,83.07c-45.59,38.47-102.25,75.52-164.16,75.52
					c-36.75,0-63.69-12.5-80.11-37c-7.59-11.03-11.51-24.25-11.51-39.44v-24.75l9.06-2.69c111.22-33.31,195.74-94.56,250.86-182.02
					c26.45-41.4,39.68-76.42,39.68-103.61c0-15.44-5.63-27.44-17.39-37c-9.55-7.11-19.84-10.78-31.85-10.78
					c-50.71,0-111.71,36.5-182.02,108.28c-87.21,88.92-131.31,180.3-131.31,272.17c0,31.85,7.35,57.33,21.8,75.22
					c21.8,26.45,51.44,39.44,90.4,39.44c38.95,0,82.07-12.74,127.88-37.49c46.79-25.23,91.62-58.54,133.02-98.97
					c16.31-15.79,32.25-31.94,46.56-49.71c25.82-32.08,50.92-63.23,80.69-91.84c25.85-24.84,53.6-48.08,84.18-66.9
					c33.15-20.41,70.97-36.27,110.48-36.27c36.5,0,63.45,12.5,80.11,37c7.59,11.02,11.51,24.25,11.51,39.44v24.74l-9.06,2.69
					c-111.22,33.33-195.74,94.57-251.1,182.02c-26.21,41.4-39.44,76.18-39.44,103.62c0,15.43,5.63,27.44,17.15,36.75
					c9.55,7.36,20.09,11.03,32.09,11.03C2880.08,2384.93,2941.32,2348.42,3011.63,2276.65z M2375.92,2108.11
					c33.07-75.71,75.21-134.5,125.18-174.68c29.64-24.01,52.92-35.77,70.8-35.77c17.64,0,28.66,11.27,28.66,29.64
					c0,13.23-4.9,27.69-14.7,43.12c-23.76,39.69-56.59,75.69-97.26,106.81c-23.52,17.88-56.1,33.8-97.01,48.01l-26.94,9.07
					L2375.92,2108.11z M2835.74,2291.34c0-13.23,4.9-27.68,14.45-43.11c24.01-39.69,56.59-75.69,97.26-107.06
					c23.77-17.63,56.35-33.56,97.01-47.76l27.19-9.07l-11.51,26.21c-32.83,75.69-74.96,134.5-124.94,174.67
					c-29.89,24.02-52.92,35.77-70.8,35.77C2846.76,2320.98,2835.74,2309.71,2835.74,2291.34z"/>
			</g>
		</g>
	</g>
	<g>
		<g>
			<g>
				<path class="st2" d="M1929.73,2582.61h84.35c14.79-4.11,30-6.45,45.55-6.45c15.27,0,28.84,2.17,40.68,6.45h105.92
					c-3.48-9.41-8.08-17.72-13.82-24.82c-21.8-26.45-51.44-39.44-90.4-39.44c-38.95,0-82.07,12.74-127.88,37.49
					C1959.11,2563.94,1944.3,2572.88,1929.73,2582.61z"/>
				<path class="st2" d="M1495.93,2570.53c-3.94,4.02-7.8,8.05-11.57,12.08h64.69c7.57-7.35,15.34-14.24,23.31-20.65
					c29.89-24.02,52.92-35.77,70.8-35.77c17.64,0,28.66,11.27,28.66,29.64c0,8.45-2.01,17.39-5.94,26.77h39.71
					c14.35-28.01,21.59-52.3,21.59-72.58c0-15.43-5.63-27.44-17.15-36.75c-9.55-7.36-20.09-11.03-32.09-11.03
					C1627.49,2462.25,1566.24,2498.76,1495.93,2570.53z"/>
			</g>
		</g>
		<g>
			<g>
				<path class="st2" d="M50.16,2471.94c-11.76,9.56-17.39,21.55-17.39,37c0,20.36,7.42,45.12,22.26,73.67h39.58
					c-4.31-9.78-6.47-19.09-6.47-27.86c0-18.37,11.02-29.64,28.66-29.64c17.88,0,41.16,11.76,70.8,35.77
					c8.36,6.72,16.5,13.98,24.42,21.74h64.59c-4.09-4.39-8.28-8.78-12.57-13.16c-70.31-71.78-131.31-108.28-182.02-108.28
					C70.01,2461.17,59.72,2464.84,50.16,2471.94z"/>
			</g>
			<g>
				<path class="st2" d="M1030.5,2582.61h75.82c20.21-7.72,41.43-12.52,63.17-12.52c21.17,0,39.12,4.21,53.72,12.52h94.95
					c-3.64-11.96-8.93-22.29-15.89-30.9c-22.05-26.46-51.44-39.44-90.4-39.44c-38.95,0-82.07,12.49-128.12,37.48
					C1065.65,2559.51,1047.89,2570.49,1030.5,2582.61z"/>
				<path class="st2" d="M605.8,2564.45c-5.93,6.04-11.64,12.09-17.17,18.16h64.19c9.48-9.66,19.28-18.59,29.42-26.74
					c29.64-24.01,52.92-35.77,70.8-35.77c17.64,0,28.66,11.27,28.66,29.64c0,10.25-2.96,21.25-8.84,32.86h39.29
					c16.61-30.65,24.92-57.12,24.92-78.66c0-15.44-5.63-27.44-17.39-37c-9.55-7.11-19.84-10.78-31.85-10.78
					C737.1,2456.17,676.11,2492.67,605.8,2564.45z"/>
			</g>
		</g>
	</g>
	<g>
		<g>
			<g>
				<path class="st2" d="M3294.74,2582.61c12.47-5,26.94-7.53,43.33-7.53c16.55,0,32.81,2.79,48.55,7.53h83.14
					c-15.06-10.15-30.38-19.47-45.95-27.86c-46.06-24.99-89.17-37.48-128.12-37.48c-38.95,0-68.35,12.98-90.4,39.44
					c-5.97,7.39-10.71,16.04-14.24,25.9L3294.74,2582.61L3294.74,2582.61z"/>
				<path class="st2" d="M3687.9,2471.94c-11.76,9.56-17.39,21.55-17.39,37c0,20.36,7.42,45.12,22.26,73.67h39.58
					c-4.31-9.78-6.47-19.09-6.47-27.86c0-18.37,11.02-29.64,28.66-29.64c17.88,0,41.16,11.76,70.8,35.77
					c8.36,6.72,16.5,13.98,24.42,21.74h64.59c-4.09-4.39-8.28-8.78-12.57-13.16c-70.31-71.78-131.31-108.28-182.02-108.28
					C3707.75,2461.17,3697.46,2464.84,3687.9,2471.94z"/>
			</g>
			<g>
				<path class="st2" d="M4243.54,2564.45c-5.93,6.04-11.64,12.09-17.17,18.16h64.19c9.48-9.66,19.28-18.59,29.42-26.74
					c29.64-24.01,52.92-35.77,70.8-35.77c17.64,0,28.66,11.27,28.66,29.64c0,10.25-2.96,21.25-8.84,32.86h39.28
					c16.61-30.65,24.92-57.12,24.92-78.66c0-15.44-5.63-27.44-17.39-37c-9.55-7.11-19.84-10.78-31.85-10.78
					C4374.84,2456.17,4313.85,2492.67,4243.54,2564.45z"/>
			</g>
		</g>
		<g>
			<g>
				<path class="st2" d="M2797.52,2468.28c-11.51,9.31-17.15,21.32-17.15,36.75c0,21.48,8.11,47.45,24.2,77.58h39.35
					c-5.42-11.21-8.18-21.83-8.18-31.77c0-18.37,11.02-29.64,28.66-29.64c17.88,0,40.91,11.75,70.8,35.77
					c9.75,7.84,19.2,16.4,28.35,25.64h64.27c-5.22-5.7-10.61-11.4-16.19-17.08c-70.31-71.77-131.55-108.28-182.02-108.28
					C2817.61,2457.25,2807.08,2460.93,2797.52,2468.28z"/>
				<path class="st2" d="M2396,2582.61c14.22-7.6,31.57-11.44,51.94-11.44c21.03,0,41.46,4.29,61.05,11.44h76.22
					c-16.93-11.69-34.21-22.3-51.77-31.77c-45.81-24.75-88.92-37.49-127.88-37.49c-38.95,0-68.59,12.99-90.4,39.44
					c-6.73,8.33-11.9,18.32-15.52,29.82H2396z"/>
			</g>
		</g>
	</g>
</g>
</svg>
