<svg xmlns="http://www.w3.org/2000/svg" viewBox="0 0 790.14 1157.04"><defs><style>.cls-1{isolation:isolate;}.cls-2{opacity:0.22;mix-blend-mode:multiply;}.cls-3{fill:#cbb098;}</style></defs><title>Untitled-3</title><g class="cls-1"><g id="Layer_1" data-name="Layer 1"><g class="cls-2"><path class="cls-3" d="M772,456.31c-14.3-14-29-21.11-43.76-21.11-5.16,0-9.22,1.18-12.09,3.5-4.26,3.55-6.34,8.27-6.34,14.54s2,13.19,6,20.6a97.24,97.24,0,0,0,15.91,21.38c4.29,4.43,9.15,8.24,13.85,12.2A108.31,108.31,0,0,1,759,520.55c6.19,7.33,12.14,16.44,12.14,26.39,0,5.91-2,10.24-5.94,12.88a11,11,0,0,1-6.35,1.85h-4l-.44-1.46c-5.35-17.88-15.2-31.47-29.26-40.33-6.66-4.25-12.29-6.38-16.66-6.38a7.21,7.21,0,0,0-6,2.8,8.29,8.29,0,0,0-1.73,5.12c0,8.15,5.86,18,17.41,29.26,14.29,14,29,21.11,43.75,21.11,5.13,0,9.22-1.18,12.1-3.5,4.25-3.51,6.34-8.27,6.34-14.54s-2-13.19-6-20.56a95.7,95.7,0,0,0-15.91-21.38,88.39,88.39,0,0,0-8-7.49,151.61,151.61,0,0,1-14.77-13,81.66,81.66,0,0,1-10.76-13.54c-3.28-5.33-5.83-11.41-5.83-17.76,0-5.87,2-10.2,5.95-12.88a10.94,10.94,0,0,1,6.34-1.85h4l.43,1.46c5.36,17.88,15.21,31.47,29.27,40.37,6.65,4.21,12.25,6.34,16.66,6.34a7.15,7.15,0,0,0,5.91-2.76,8.2,8.2,0,0,0,1.77-5.16C789.41,477.46,783.54,467.61,772,456.31ZM744.9,558.52c-12.17-5.32-21.62-12.09-28.08-20.13-3.86-4.76-5.75-8.5-5.75-11.38s1.81-4.61,4.76-4.61a13.16,13.16,0,0,1,6.94,2.37,61.63,61.63,0,0,1,17.17,15.63c2.87,3.78,5.43,9,7.72,15.6l1.46,4.33Zm29.46-73.93a13.45,13.45,0,0,1-6.93-2.32,63,63,0,0,1-17.21-15.64c-2.84-3.82-5.4-9.06-7.68-15.6l-1.46-4.37,4.21,1.85c12.17,5.28,21.63,12.05,28.09,20.09,3.86,4.8,5.75,8.51,5.75,11.38S777.32,484.59,774.36,484.59Z" transform="translate(-0.25 0.36)"/><path class="cls-3" d="M600.88,485.57a8.15,8.15,0,0,0,1.78,5.16,7.11,7.11,0,0,0,5.9,2.76c4.42,0,10-2.13,16.67-6.34,14.06-8.9,23.9-22.49,29.26-40.37l.43-1.46h4a10.94,10.94,0,0,1,6.34,1.85c3.94,2.68,6,7,6,12.88,0,6.35-2.55,12.43-5.83,17.76a81.14,81.14,0,0,1-10.76,13.54,152.67,152.67,0,0,1-14.76,13,87.19,87.19,0,0,0-8,7.49,96,96,0,0,0-15.91,21.38c-4,7.37-6,14.3-6,20.56s2.09,11,6.34,14.54c2.88,2.32,7,3.5,12.1,3.5,14.77,0,29.46-7.09,43.76-21.11,11.54-11.3,17.41-21.11,17.41-29.26a8.23,8.23,0,0,0-1.74-5.12,7.2,7.2,0,0,0-5.95-2.8c-4.37,0-10,2.13-16.65,6.38-14.07,8.86-23.91,22.45-29.27,40.33l-.43,1.46h-4a10.94,10.94,0,0,1-6.34-1.85c-3.94-2.64-5.95-7-5.95-12.88,0-10,6-19.06,12.14-26.39a108.31,108.31,0,0,1,13.36-13.13,180.28,180.28,0,0,0,13.85-12.2,96.93,96.93,0,0,0,15.91-21.38c4-7.41,6-14.34,6-20.6s-2.09-11-6.35-14.54c-2.87-2.32-6.93-3.5-12.09-3.5-14.73,0-29.46,7.09-43.76,21.11C606.75,467.61,600.88,477.46,600.88,485.57Zm40.3,74.76,1.45-4.33c2.29-6.58,4.85-11.82,7.72-15.6a61.8,61.8,0,0,1,17.18-15.63,13.11,13.11,0,0,1,6.93-2.37c2.95,0,4.77,1.77,4.77,4.61s-1.89,6.62-5.75,11.38c-6.46,8-15.92,14.81-28.09,20.13Zm-30-80.35c0-2.87,1.89-6.58,5.76-11.38,6.45-8,15.91-14.81,28.08-20.09l4.21-1.85L647.75,451c-2.28,6.54-4.84,11.78-7.68,15.6a63,63,0,0,1-17.21,15.64,13.45,13.45,0,0,1-6.93,2.32C613,484.59,611.16,482.82,611.16,480Z" transform="translate(-0.25 0.36)"/><path class="cls-3" d="M671.92,163.87c-14.29-14-29-21.11-43.76-21.11-5.16,0-9.21,1.18-12.09,3.5-4.25,3.55-6.34,8.27-6.34,14.54s2,13.19,6,20.6a97,97,0,0,0,15.92,21.38A180.28,180.28,0,0,0,645.52,215a108.23,108.23,0,0,1,13.35,13.13c6.19,7.33,12.15,16.44,12.15,26.39,0,5.91-2,10.24-5.95,12.88a11,11,0,0,1-6.34,1.85h-4l-.43-1.46c-5.36-17.88-15.21-31.47-29.27-40.33-6.66-4.25-12.29-6.38-16.66-6.38a7.23,7.23,0,0,0-5.95,2.8,8.29,8.29,0,0,0-1.73,5.12c0,8.15,5.87,18,17.41,29.26,14.3,14,29,21.11,43.76,21.11,5.12,0,9.22-1.18,12.09-3.5,4.25-3.51,6.34-8.27,6.34-14.54s-2-13.19-6-20.56a95.7,95.7,0,0,0-15.91-21.38,87.07,87.07,0,0,0-8-7.49,153,153,0,0,1-14.77-13,81.08,81.08,0,0,1-10.75-13.54C621.57,180,619,174,619,167.61c0-5.87,2-10.2,6-12.88a10.94,10.94,0,0,1,6.34-1.85h4l.43,1.46c5.36,17.88,15.21,31.47,29.27,40.37,6.66,4.21,12.25,6.34,16.66,6.34a7.17,7.17,0,0,0,5.91-2.76,8.2,8.2,0,0,0,1.77-5.16C689.33,185,683.46,175.17,671.92,163.87Zm-27.1,102.21C632.65,260.76,623.2,254,616.74,246c-3.86-4.76-5.75-8.51-5.75-11.38s1.81-4.61,4.76-4.61a13.2,13.2,0,0,1,6.94,2.36A61.67,61.67,0,0,1,639.86,248c2.88,3.78,5.44,9,7.72,15.6l1.46,4.33Zm29.46-73.93a13.41,13.41,0,0,1-6.93-2.33,63,63,0,0,1-17.21-15.63,59.25,59.25,0,0,1-7.68-15.6L641,154.22l4.22,1.85c12.17,5.28,21.62,12.05,28.08,20.09,3.86,4.8,5.75,8.51,5.75,11.38S677.24,192.15,674.28,192.15Z" transform="translate(-0.25 0.36)"/><path class="cls-3" d="M701,193.13a8.2,8.2,0,0,0,1.77,5.16,7.17,7.17,0,0,0,5.91,2.76c4.41,0,10-2.13,16.66-6.34,14.06-8.9,23.91-22.49,29.27-40.37l.43-1.46h4a10.94,10.94,0,0,1,6.34,1.85c3.94,2.68,5.95,7,5.95,12.88,0,6.35-2.55,12.43-5.83,17.76a81.66,81.66,0,0,1-10.76,13.54,153,153,0,0,1-14.77,13,88.39,88.39,0,0,0-8,7.49A95.7,95.7,0,0,0,716,240.75c-4,7.37-6,14.3-6,20.56s2.09,11,6.34,14.54c2.88,2.32,7,3.5,12.09,3.5,14.77,0,29.47-7.09,43.76-21.11,11.55-11.3,17.41-21.11,17.41-29.26a8.29,8.29,0,0,0-1.73-5.12,7.23,7.23,0,0,0-6-2.8c-4.37,0-10,2.13-16.66,6.38-14.06,8.86-23.91,22.45-29.26,40.33l-.44,1.46h-4a11,11,0,0,1-6.34-1.85c-3.93-2.64-5.94-7-5.94-12.88,0-9.95,6-19.06,12.14-26.39A108.93,108.93,0,0,1,744.77,215c4.71-4,9.57-7.77,13.85-12.2a97,97,0,0,0,15.92-21.38c4-7.41,6-14.34,6-20.6s-2.08-11-6.34-14.54c-2.87-2.32-6.93-3.5-12.09-3.5-14.73,0-29.46,7.09-43.76,21.11C706.83,175.17,701,185,701,193.13Zm40.29,74.76,1.46-4.33c2.29-6.58,4.85-11.82,7.72-15.6a61.67,61.67,0,0,1,17.17-15.64,13.23,13.23,0,0,1,6.94-2.36c3,0,4.76,1.77,4.76,4.61s-1.89,6.62-5.75,11.38c-6.46,8-15.91,14.81-28.08,20.13Zm-30-80.35c0-2.87,1.89-6.58,5.75-11.38,6.46-8,15.92-14.81,28.09-20.09l4.21-1.85-1.46,4.37c-2.28,6.54-4.84,11.78-7.68,15.6a63,63,0,0,1-17.21,15.63,13.41,13.41,0,0,1-6.93,2.33C713.05,192.15,711.24,190.38,711.24,187.54Z" transform="translate(-0.25 0.36)"/><path class="cls-3" d="M719.17,407.56c14.3,14,29,21.12,43.76,21.12,5.16,0,9.22-1.18,12.1-3.51,4.25-3.54,6.34-8.27,6.34-14.53s-2-13.2-6-20.6a97,97,0,0,0-15.91-21.39,178,178,0,0,0-13.85-12.19,109.74,109.74,0,0,1-13.36-13.13c-6.18-7.33-12.14-16.44-12.14-26.4,0-5.9,2-10.24,5.95-12.88a10.94,10.94,0,0,1,6.34-1.85h4l.43,1.46c5.36,17.88,15.2,31.47,29.27,40.33,6.65,4.26,12.28,6.38,16.65,6.38a7.19,7.19,0,0,0,5.95-2.79,8.25,8.25,0,0,0,1.74-5.12c0-8.16-5.87-18-17.41-29.27-14.3-14-29-21.11-43.76-21.11-5.12,0-9.22,1.18-12.1,3.51-4.25,3.5-6.34,8.27-6.34,14.53s2.05,13.19,6,20.56a96.28,96.28,0,0,0,15.91,21.39,88.49,88.49,0,0,0,8,7.48,151.59,151.59,0,0,1,14.76,13,80.66,80.66,0,0,1,10.76,13.53c3.28,5.33,5.83,11.41,5.83,17.76,0,5.87-2,10.2-6,12.88a10.94,10.94,0,0,1-6.34,1.85h-4l-.43-1.45c-5.36-17.89-15.2-31.47-29.26-40.38-6.66-4.21-12.25-6.34-16.67-6.34a7.14,7.14,0,0,0-5.9,2.76,8.17,8.17,0,0,0-1.78,5.16C701.76,386.41,707.63,396.26,719.17,407.56Zm27.1-102.21c12.17,5.32,21.63,12.1,28.09,20.13,3.86,4.77,5.75,8.51,5.75,11.38s-1.82,4.61-4.77,4.61a13.17,13.17,0,0,1-6.93-2.36,61.84,61.84,0,0,1-17.18-15.64c-2.87-3.78-5.43-9-7.72-15.6l-1.45-4.33Zm-29.46,73.93a13.38,13.38,0,0,1,6.93,2.33A63.17,63.17,0,0,1,741,397.25a59.18,59.18,0,0,1,7.67,15.59l1.46,4.37-4.21-1.85c-12.17-5.27-21.63-12.05-28.08-20.08-3.87-4.81-5.75-8.51-5.75-11.39S713.86,379.28,716.81,379.28Z" transform="translate(-0.25 0.36)"/><path class="cls-3" d="M690.13,378.3a8.22,8.22,0,0,0-1.77-5.16,7.16,7.16,0,0,0-5.91-2.76c-4.41,0-10,2.13-16.66,6.34-14.06,8.91-23.91,22.49-29.26,40.38l-.44,1.45h-4a10.92,10.92,0,0,1-6.34-1.85c-3.94-2.68-5.95-7-5.95-12.88,0-6.35,2.55-12.43,5.83-17.76a80.66,80.66,0,0,1,10.76-13.53,151.59,151.59,0,0,1,14.76-13,87.05,87.05,0,0,0,8-7.48,96,96,0,0,0,15.92-21.39c4-7.37,6-14.3,6-20.56s-2.08-11-6.34-14.53c-2.87-2.33-7-3.51-12.09-3.51-14.77,0-29.46,7.09-43.76,21.11-11.54,11.31-17.41,21.11-17.41,29.27a8.31,8.31,0,0,0,1.73,5.12,7.22,7.22,0,0,0,6,2.79c4.38,0,10-2.12,16.66-6.38,14.07-8.86,23.91-22.45,29.27-40.33l.43-1.46h4a10.94,10.94,0,0,1,6.34,1.85c3.94,2.64,6,7,6,12.88,0,10-6,19.07-12.14,26.4a109.74,109.74,0,0,1-13.36,13.13,178,178,0,0,0-13.85,12.19A97,97,0,0,0,616.56,390c-4,7.4-6,14.33-6,20.6s2.09,11,6.34,14.53c2.88,2.33,6.94,3.51,12.09,3.51,14.74,0,29.47-7.09,43.77-21.12C684.27,396.26,690.13,386.41,690.13,378.3Zm-40.29-74.76-1.46,4.33c-2.28,6.58-4.84,11.82-7.72,15.6a61.67,61.67,0,0,1-17.17,15.64,13.2,13.2,0,0,1-6.93,2.36c-3,0-4.77-1.77-4.77-4.61s1.89-6.61,5.75-11.38c6.46-8,15.92-14.81,28.09-20.13Zm30,80.35c0,2.88-1.89,6.58-5.75,11.39-6.46,8-15.91,14.81-28.08,20.08l-4.21,1.85,1.45-4.37c2.29-6.54,4.85-11.77,7.68-15.59a63,63,0,0,1,17.22-15.64,13.38,13.38,0,0,1,6.93-2.33C678,379.28,679.85,381.06,679.85,383.89Z" transform="translate(-0.25 0.36)"/><path class="cls-3" d="M790.21,85.86a8.2,8.2,0,0,0-1.77-5.16,7.17,7.17,0,0,0-5.91-2.76c-4.41,0-10,2.13-16.66,6.34-14.06,8.9-23.91,22.49-29.27,40.38l-.43,1.45h-4a10.94,10.94,0,0,1-6.34-1.85c-3.94-2.68-6-7-6-12.88,0-6.35,2.56-12.43,5.84-17.76a81.08,81.08,0,0,1,10.75-13.54,153,153,0,0,1,14.77-13,88.37,88.37,0,0,0,8-7.48,96,96,0,0,0,15.91-21.39c4-7.37,6-14.3,6-20.56s-2.09-11-6.34-14.54c-2.87-2.32-7-3.5-12.09-3.5C748-.36,733.3,6.73,719,20.75,707.46,32.05,701.59,41.86,701.59,50a8.31,8.31,0,0,0,1.73,5.12,7.22,7.22,0,0,0,5.95,2.79c4.37,0,10-2.12,16.66-6.38C740,42.69,749.84,29.1,755.2,11.22l.43-1.46h4A10.94,10.94,0,0,1,766,11.61c3.94,2.64,5.95,7,5.95,12.88,0,10-6,19.07-12.15,26.4A109.67,109.67,0,0,1,746.4,64a178,178,0,0,0-13.85,12.19A96.8,96.8,0,0,0,716.63,97.6c-4,7.4-6,14.33-6,20.6s2.09,11,6.34,14.53c2.88,2.32,6.93,3.51,12.09,3.51,14.73,0,29.47-7.09,43.76-21.12C784.34,103.82,790.21,94,790.21,85.86ZM749.92,11.1l-1.46,4.33c-2.28,6.58-4.84,11.82-7.72,15.6a61.67,61.67,0,0,1-17.17,15.64A13.2,13.2,0,0,1,716.63,49c-3,0-4.76-1.77-4.76-4.61s1.89-6.61,5.75-11.38c6.46-8,15.91-14.81,28.08-20.13Zm30,80.35c0,2.88-1.89,6.58-5.75,11.38-6.46,8-15.91,14.81-28.08,20.09l-4.22,1.85,1.46-4.37A59.41,59.41,0,0,1,751,104.8a63.11,63.11,0,0,1,17.21-15.63,13.41,13.41,0,0,1,6.93-2.33C778.12,86.84,779.93,88.62,779.93,91.45Z" transform="translate(-0.25 0.36)"/><path class="cls-3" d="M619.1,115.12c14.29,14,29,21.12,43.76,21.12,5.15,0,9.21-1.19,12.09-3.51,4.25-3.54,6.34-8.27,6.34-14.53s-2-13.2-6-20.6a96.43,96.43,0,0,0-15.91-21.39A178,178,0,0,0,645.5,64a110.48,110.48,0,0,1-13.36-13.13C626,43.56,620,34.45,620,24.49c0-5.91,2-10.24,6-12.88a10.94,10.94,0,0,1,6.34-1.85h4l.43,1.46C642.06,29.1,651.91,42.69,666,51.55c6.65,4.26,12.29,6.38,16.66,6.38a7.22,7.22,0,0,0,6-2.79A8.31,8.31,0,0,0,690.31,50c0-8.16-5.87-18-17.41-29.27-14.3-14-29-21.11-43.76-21.11-5.12,0-9.22,1.18-12.09,3.5-4.26,3.51-6.34,8.28-6.34,14.54s2,13.19,6,20.56a96.34,96.34,0,0,0,15.92,21.39,88.37,88.37,0,0,0,8,7.48,153,153,0,0,1,14.77,13,81.6,81.6,0,0,1,10.75,13.54C669.44,99,672,105,672,111.38c0,5.87-2,10.2-5.94,12.88a11,11,0,0,1-6.35,1.85h-4l-.44-1.45c-5.35-17.89-15.2-31.48-29.26-40.38-6.66-4.21-12.25-6.34-16.66-6.34a7.17,7.17,0,0,0-5.91,2.76,8.2,8.2,0,0,0-1.77,5.16C601.69,94,607.56,103.82,619.1,115.12ZM646.19,12.91C658.37,18.23,667.82,25,674.28,33c3.86,4.77,5.75,8.51,5.75,11.38S678.22,49,675.26,49a13.2,13.2,0,0,1-6.93-2.36A61.67,61.67,0,0,1,651.16,31c-2.88-3.78-5.44-9-7.72-15.6L642,11.1ZM616.73,86.84a13.38,13.38,0,0,1,6.93,2.33,63,63,0,0,1,17.22,15.63,59.72,59.72,0,0,1,7.68,15.6l1.46,4.37-4.22-1.85c-12.17-5.28-21.62-12-28.08-20.09C613.86,98,612,94.33,612,91.45S613.78,86.84,616.73,86.84Z" transform="translate(-0.25 0.36)"/><path class="cls-3" d="M772,1041.19c-14.3-14-29-21.11-43.76-21.11-5.16,0-9.22,1.18-12.09,3.51-4.26,3.54-6.34,8.27-6.34,14.53s2,13.19,6,20.6a97.53,97.53,0,0,0,15.91,21.39c4.29,4.42,9.15,8.23,13.85,12.19A109,109,0,0,1,759,1105.43c6.19,7.33,12.14,16.44,12.14,26.39,0,5.91-2,10.24-5.94,12.88a11,11,0,0,1-6.35,1.85h-4l-.44-1.45c-5.35-17.88-15.2-31.47-29.26-40.34-6.66-4.25-12.29-6.38-16.66-6.38a7.21,7.21,0,0,0-6,2.8,8.31,8.31,0,0,0-1.73,5.12c0,8.15,5.86,18,17.41,29.27,14.29,14,29,21.11,43.75,21.11,5.13,0,9.22-1.18,12.1-3.51,4.25-3.5,6.34-8.27,6.34-14.53s-2-13.2-6-20.56a95.75,95.75,0,0,0-15.91-21.39,89.83,89.83,0,0,0-8-7.49,151.61,151.61,0,0,1-14.77-13,81.59,81.59,0,0,1-10.76-13.53c-3.28-5.33-5.83-11.41-5.83-17.77,0-5.86,2-10.2,5.95-12.88a10.94,10.94,0,0,1,6.34-1.85h4l.43,1.46c5.36,17.88,15.21,31.47,29.27,40.37,6.65,4.22,12.25,6.34,16.66,6.34a7.17,7.17,0,0,0,5.91-2.75,8.22,8.22,0,0,0,1.77-5.16C789.41,1062.34,783.54,1052.5,772,1041.19ZM744.9,1143.4c-12.17-5.31-21.62-12.09-28.08-20.12-3.86-4.77-5.75-8.51-5.75-11.39s1.81-4.6,4.76-4.6a13.14,13.14,0,0,1,6.94,2.36,61.67,61.67,0,0,1,17.17,15.64c2.87,3.78,5.43,9,7.72,15.59l1.46,4.34Zm29.46-73.93a13.45,13.45,0,0,1-6.93-2.32,63,63,0,0,1-17.21-15.64c-2.84-3.82-5.4-9.06-7.68-15.6l-1.46-4.37,4.21,1.85c12.17,5.28,21.63,12.06,28.09,20.09,3.86,4.81,5.75,8.51,5.75,11.38S777.32,1069.47,774.36,1069.47Z" transform="translate(-0.25 0.36)"/><path class="cls-3" d="M600.88,1070.46a8.17,8.17,0,0,0,1.78,5.16,7.13,7.13,0,0,0,5.9,2.75c4.42,0,10-2.12,16.67-6.34,14.06-8.9,23.9-22.49,29.26-40.37l.43-1.46h4a10.94,10.94,0,0,1,6.34,1.85c3.94,2.68,6,7,6,12.88,0,6.36-2.55,12.44-5.83,17.77a81.07,81.07,0,0,1-10.76,13.53,152.67,152.67,0,0,1-14.76,13,88.59,88.59,0,0,0-8,7.49,96.05,96.05,0,0,0-15.91,21.39c-4,7.36-6,14.29-6,20.56s2.09,11,6.34,14.53c2.88,2.33,7,3.51,12.1,3.51,14.77,0,29.46-7.09,43.76-21.11,11.54-11.31,17.41-21.12,17.41-29.27a8.25,8.25,0,0,0-1.74-5.12,7.2,7.2,0,0,0-5.95-2.8c-4.37,0-10,2.13-16.65,6.38-14.07,8.87-23.91,22.46-29.27,40.34l-.43,1.45h-4a10.94,10.94,0,0,1-6.34-1.85c-3.94-2.64-5.95-7-5.95-12.88,0-10,6-19.06,12.14-26.39a109,109,0,0,1,13.36-13.13,182.32,182.32,0,0,0,13.85-12.19,97.21,97.21,0,0,0,15.91-21.39c4-7.41,6-14.34,6-20.6s-2.09-11-6.35-14.53c-2.87-2.33-6.93-3.51-12.09-3.51-14.73,0-29.46,7.09-43.76,21.11C606.75,1052.5,600.88,1062.34,600.88,1070.46Zm40.3,74.76,1.45-4.34c2.29-6.58,4.85-11.81,7.72-15.59a61.84,61.84,0,0,1,17.18-15.64,13.09,13.09,0,0,1,6.93-2.36c2.95,0,4.77,1.77,4.77,4.6s-1.89,6.62-5.75,11.39c-6.46,8-15.92,14.81-28.09,20.12Zm-30-80.36c0-2.87,1.89-6.57,5.76-11.38,6.45-8,15.91-14.81,28.08-20.09l4.21-1.85-1.46,4.37c-2.28,6.54-4.84,11.78-7.68,15.6a63,63,0,0,1-17.21,15.64,13.45,13.45,0,0,1-6.93,2.32C613,1069.47,611.16,1067.7,611.16,1064.86Z" transform="translate(-0.25 0.36)"/><path class="cls-3" d="M671.92,748.75c-14.29-14-29-21.11-43.76-21.11-5.16,0-9.21,1.18-12.09,3.5-4.25,3.55-6.34,8.28-6.34,14.54s2,13.19,6,20.6a97.26,97.26,0,0,0,15.92,21.39,182.32,182.32,0,0,0,13.85,12.19A108.94,108.94,0,0,1,658.87,813c6.19,7.33,12.15,16.44,12.15,26.39,0,5.91-2,10.24-5.95,12.88a11,11,0,0,1-6.34,1.85h-4l-.43-1.45c-5.36-17.89-15.21-31.48-29.27-40.34-6.66-4.25-12.29-6.38-16.66-6.38a7.23,7.23,0,0,0-5.95,2.8,8.29,8.29,0,0,0-1.73,5.12c0,8.15,5.87,18,17.41,29.26,14.3,14,29,21.12,43.76,21.12,5.12,0,9.22-1.19,12.09-3.51,4.25-3.5,6.34-8.27,6.34-14.53s-2-13.2-6-20.56a95.52,95.52,0,0,0-15.91-21.39,88.48,88.48,0,0,0-8-7.49,151.61,151.61,0,0,1-14.77-13,81.42,81.42,0,0,1-10.75-13.53c-3.29-5.33-5.84-11.41-5.84-17.77,0-5.87,2-10.2,6-12.88a10.94,10.94,0,0,1,6.34-1.85h4l.43,1.46c5.36,17.88,15.21,31.47,29.27,40.37,6.66,4.22,12.25,6.34,16.66,6.34a7.17,7.17,0,0,0,5.91-2.75,8.22,8.22,0,0,0,1.77-5.16C689.33,769.9,683.46,760.06,671.92,748.75ZM644.82,851c-12.17-5.32-21.62-12.09-28.08-20.13-3.86-4.76-5.75-8.5-5.75-11.38s1.81-4.61,4.76-4.61a13.14,13.14,0,0,1,6.94,2.37,61.78,61.78,0,0,1,17.17,15.63c2.88,3.79,5.44,9,7.72,15.6l1.46,4.33ZM674.28,777a13.48,13.48,0,0,1-6.93-2.32,63,63,0,0,1-17.21-15.64,59.25,59.25,0,0,1-7.68-15.6L641,739.1l4.22,1.85c12.17,5.28,21.62,12,28.08,20.09,3.86,4.81,5.75,8.51,5.75,11.38S677.24,777,674.28,777Z" transform="translate(-0.25 0.36)"/><path class="cls-3" d="M701,778a8.22,8.22,0,0,0,1.77,5.16,7.17,7.17,0,0,0,5.91,2.75c4.41,0,10-2.12,16.66-6.34,14.06-8.9,23.91-22.49,29.27-40.37l.43-1.46h4a10.94,10.94,0,0,1,6.34,1.85c3.94,2.68,5.95,7,5.95,12.88,0,6.36-2.55,12.44-5.83,17.77a82,82,0,0,1-10.76,13.53,151.61,151.61,0,0,1-14.77,13,89.83,89.83,0,0,0-8,7.49A95.52,95.52,0,0,0,716,825.64c-4,7.36-6,14.29-6,20.56s2.09,11,6.34,14.53c2.88,2.32,7,3.51,12.09,3.51,14.77,0,29.47-7.09,43.76-21.12,11.55-11.3,17.41-21.11,17.41-29.26a8.29,8.29,0,0,0-1.73-5.12,7.23,7.23,0,0,0-6-2.8c-4.37,0-10,2.13-16.66,6.38-14.06,8.86-23.91,22.45-29.26,40.34l-.44,1.45h-4a11,11,0,0,1-6.34-1.85c-3.93-2.64-5.94-7-5.94-12.88,0-10,6-19.06,12.14-26.39a109.66,109.66,0,0,1,13.35-13.13c4.71-4,9.57-7.77,13.85-12.19a97.26,97.26,0,0,0,15.92-21.39c4-7.41,6-14.34,6-20.6s-2.08-11-6.34-14.54c-2.87-2.32-6.93-3.5-12.09-3.5-14.73,0-29.46,7.09-43.76,21.11C706.83,760.06,701,769.9,701,778Zm40.29,74.75,1.46-4.33c2.29-6.58,4.85-11.81,7.72-15.6a61.78,61.78,0,0,1,17.17-15.63,13.16,13.16,0,0,1,6.94-2.37c3,0,4.76,1.78,4.76,4.61s-1.89,6.62-5.75,11.38c-6.46,8-15.91,14.81-28.08,20.13Zm-30-80.35c0-2.87,1.89-6.57,5.75-11.38,6.46-8,15.92-14.81,28.09-20.09l4.21-1.85-1.46,4.37c-2.28,6.54-4.84,11.78-7.68,15.6a63,63,0,0,1-17.21,15.64A13.48,13.48,0,0,1,716,777C713.05,777,711.24,775.26,711.24,772.42Z" transform="translate(-0.25 0.36)"/><path class="cls-3" d="M719.17,992.45c14.3,14,29,21.11,43.76,21.11,5.16,0,9.22-1.18,12.1-3.51,4.25-3.54,6.34-8.27,6.34-14.53s-2-13.19-6-20.6a97.21,97.21,0,0,0-15.91-21.39,182.32,182.32,0,0,0-13.85-12.19,109.74,109.74,0,0,1-13.36-13.13c-6.18-7.33-12.14-16.44-12.14-26.39,0-5.91,2-10.24,5.95-12.88a10.94,10.94,0,0,1,6.34-1.85h4l.43,1.45c5.36,17.88,15.2,31.47,29.27,40.34,6.65,4.25,12.28,6.38,16.65,6.38a7.2,7.2,0,0,0,5.95-2.8,8.25,8.25,0,0,0,1.74-5.12c0-8.15-5.87-18-17.41-29.27-14.3-14-29-21.11-43.76-21.11-5.12,0-9.22,1.18-12.1,3.51-4.25,3.5-6.34,8.27-6.34,14.53s2.05,13.2,6,20.56A96.05,96.05,0,0,0,732.72,937a88.59,88.59,0,0,0,8,7.49,151.49,151.49,0,0,1,14.76,13,81.07,81.07,0,0,1,10.76,13.53c3.28,5.33,5.83,11.41,5.83,17.77,0,5.86-2,10.2-6,12.88a10.94,10.94,0,0,1-6.34,1.85h-4l-.43-1.46c-5.36-17.88-15.2-31.47-29.26-40.37-6.66-4.22-12.25-6.34-16.67-6.34a7.13,7.13,0,0,0-5.9,2.75,8.17,8.17,0,0,0-1.78,5.16C701.76,971.3,707.63,981.14,719.17,992.45Zm27.1-102.21c12.17,5.31,21.63,12.09,28.09,20.12,3.86,4.77,5.75,8.51,5.75,11.39s-1.82,4.6-4.77,4.6a13.09,13.09,0,0,1-6.93-2.36,61.84,61.84,0,0,1-17.18-15.64c-2.87-3.78-5.43-9-7.72-15.59l-1.45-4.34Zm-29.46,73.93a13.45,13.45,0,0,1,6.93,2.32A63.17,63.17,0,0,1,741,982.13c2.83,3.82,5.39,9.06,7.67,15.6l1.46,4.37-4.21-1.85c-12.17-5.28-21.63-12.06-28.08-20.09-3.87-4.81-5.75-8.51-5.75-11.38S713.86,964.17,716.81,964.17Z" transform="translate(-0.25 0.36)"/><path class="cls-3" d="M690.13,963.18a8.22,8.22,0,0,0-1.77-5.16,7.15,7.15,0,0,0-5.91-2.75c-4.41,0-10,2.12-16.66,6.34-14.06,8.9-23.91,22.49-29.26,40.37l-.44,1.46h-4a10.92,10.92,0,0,1-6.34-1.85c-3.94-2.68-5.95-7-5.95-12.88,0-6.36,2.55-12.44,5.83-17.77a81.07,81.07,0,0,1,10.76-13.53,151.49,151.49,0,0,1,14.76-13,87.16,87.16,0,0,0,8-7.49,95.8,95.8,0,0,0,15.92-21.39c4-7.36,6-14.29,6-20.56s-2.08-11-6.34-14.53c-2.87-2.33-7-3.51-12.09-3.51-14.77,0-29.46,7.09-43.76,21.11-11.54,11.31-17.41,21.12-17.41,29.27a8.31,8.31,0,0,0,1.73,5.12,7.23,7.23,0,0,0,6,2.8c4.38,0,10-2.13,16.66-6.38,14.07-8.87,23.91-22.46,29.27-40.34l.43-1.45h4a10.94,10.94,0,0,1,6.34,1.85c3.94,2.64,6,7,6,12.88,0,9.95-6,19.06-12.14,26.39a109.74,109.74,0,0,1-13.36,13.13,182.32,182.32,0,0,0-13.85,12.19,97.21,97.21,0,0,0-15.91,21.39c-4,7.41-6,14.34-6,20.6s2.09,11,6.34,14.53c2.88,2.33,6.94,3.51,12.09,3.51,14.74,0,29.47-7.09,43.77-21.11C684.27,981.14,690.13,971.3,690.13,963.18Zm-40.29-74.76-1.46,4.34c-2.28,6.58-4.84,11.81-7.72,15.59A61.67,61.67,0,0,1,623.49,924a13.11,13.11,0,0,1-6.93,2.36c-3,0-4.77-1.77-4.77-4.6s1.89-6.62,5.75-11.39c6.46-8,15.92-14.81,28.09-20.12Zm30,80.36c0,2.87-1.89,6.57-5.75,11.38-6.46,8-15.91,14.81-28.08,20.09l-4.21,1.85,1.45-4.37c2.29-6.54,4.85-11.78,7.68-15.6a63,63,0,0,1,17.22-15.64,13.45,13.45,0,0,1,6.93-2.32C678,964.17,679.85,965.94,679.85,968.78Z" transform="translate(-0.25 0.36)"/><path class="cls-3" d="M790.21,670.74a8.22,8.22,0,0,0-1.77-5.16,7.17,7.17,0,0,0-5.91-2.76c-4.41,0-10,2.13-16.66,6.35-14.06,8.9-23.91,22.49-29.27,40.37l-.43,1.46h-4a10.88,10.88,0,0,1-6.34-1.86c-3.94-2.67-6-7-6-12.88,0-6.35,2.56-12.43,5.84-17.76A80.61,80.61,0,0,1,736.49,665a153.06,153.06,0,0,1,14.77-13,88.37,88.37,0,0,0,8-7.48,96,96,0,0,0,15.91-21.39c4-7.36,6-14.3,6-20.56s-2.09-11-6.34-14.53c-2.87-2.33-7-3.51-12.09-3.51-14.77,0-29.46,7.09-43.76,21.11-11.54,11.31-17.41,21.11-17.41,29.27a8.31,8.31,0,0,0,1.73,5.12,7.23,7.23,0,0,0,5.95,2.8c4.37,0,10-2.13,16.66-6.39C740,627.57,749.84,614,755.2,596.1l.43-1.46h4a10.94,10.94,0,0,1,6.34,1.85c3.94,2.64,5.95,7,5.95,12.88,0,10-6,19.07-12.15,26.4A108.94,108.94,0,0,1,746.4,648.9a180.15,180.15,0,0,0-13.85,12.19,97.26,97.26,0,0,0-15.92,21.39c-4,7.4-6,14.34-6,20.6s2.09,11,6.34,14.53c2.88,2.33,6.93,3.51,12.09,3.51,14.73,0,29.47-7.09,43.76-21.11C784.34,688.7,790.21,678.86,790.21,670.74ZM749.92,596l-1.46,4.34c-2.28,6.57-4.84,11.81-7.72,15.59a61.67,61.67,0,0,1-17.17,15.64,13.12,13.12,0,0,1-6.94,2.36c-3,0-4.76-1.77-4.76-4.6s1.89-6.62,5.75-11.39c6.46-8,15.91-14.81,28.08-20.12Zm30,80.35c0,2.88-1.89,6.58-5.75,11.39-6.46,8-15.91,14.81-28.08,20.09l-4.22,1.85,1.46-4.38A59.33,59.33,0,0,1,751,689.69a63,63,0,0,1,17.21-15.64,13.39,13.39,0,0,1,6.93-2.32C778.12,671.73,779.93,673.5,779.93,676.33Z" transform="translate(-0.25 0.36)"/><path class="cls-3" d="M619.1,700c14.29,14,29,21.11,43.76,21.11,5.15,0,9.21-1.18,12.09-3.51,4.25-3.54,6.34-8.27,6.34-14.53s-2-13.2-6-20.6a96.89,96.89,0,0,0-15.91-21.39A180.15,180.15,0,0,0,645.5,648.9a109.74,109.74,0,0,1-13.36-13.13C626,628.44,620,619.33,620,609.37c0-5.9,2-10.24,6-12.88a10.94,10.94,0,0,1,6.34-1.85h4l.43,1.46c5.36,17.88,15.21,31.47,29.27,40.33,6.65,4.26,12.29,6.39,16.66,6.39a7.23,7.23,0,0,0,6-2.8,8.31,8.31,0,0,0,1.73-5.12c0-8.16-5.87-18-17.41-29.27-14.3-14-29-21.11-43.76-21.11-5.12,0-9.22,1.18-12.09,3.51-4.26,3.5-6.34,8.27-6.34,14.53s2,13.2,6,20.56a96.34,96.34,0,0,0,15.92,21.39,88.37,88.37,0,0,0,8,7.48,153.06,153.06,0,0,1,14.77,13,81.12,81.12,0,0,1,10.75,13.53c3.28,5.33,5.83,11.41,5.83,17.76,0,5.87-2,10.21-5.94,12.88A10.91,10.91,0,0,1,659.7,711h-4l-.44-1.46c-5.35-17.88-15.2-31.47-29.26-40.37-6.66-4.22-12.25-6.35-16.66-6.35a7.17,7.17,0,0,0-5.91,2.76,8.22,8.22,0,0,0-1.77,5.16C601.69,678.86,607.56,688.7,619.1,700ZM646.19,597.8c12.18,5.31,21.63,12.09,28.09,20.12,3.86,4.77,5.75,8.51,5.75,11.39s-1.81,4.6-4.77,4.6a13.11,13.11,0,0,1-6.93-2.36,61.67,61.67,0,0,1-17.17-15.64c-2.88-3.78-5.44-9-7.72-15.59L642,596Zm-29.46,73.93a13.36,13.36,0,0,1,6.93,2.32,62.88,62.88,0,0,1,17.22,15.64c2.83,3.82,5.39,9.06,7.68,15.59l1.46,4.38-4.22-1.85c-12.17-5.28-21.62-12.06-28.08-20.09-3.86-4.81-5.75-8.51-5.75-11.39S613.78,671.73,616.73,671.73Z" transform="translate(-0.25 0.36)"/><path class="cls-3" d="M571.85,456.31c-14.3-14-29-21.11-43.77-21.11-5.15,0-9.21,1.18-12.09,3.5-4.25,3.55-6.34,8.27-6.34,14.54s2,13.19,6,20.6a96.93,96.93,0,0,0,15.91,21.38,180.28,180.28,0,0,0,13.85,12.2,109,109,0,0,1,13.36,13.13c6.18,7.33,12.14,16.44,12.14,26.39,0,5.91-2,10.24-6,12.88a10.94,10.94,0,0,1-6.34,1.85h-4l-.43-1.46C548.88,542.33,539,528.74,525,519.88c-6.65-4.25-12.29-6.38-16.66-6.38a7.23,7.23,0,0,0-5.95,2.8,8.29,8.29,0,0,0-1.73,5.12c0,8.15,5.87,18,17.41,29.26,14.3,14,29,21.11,43.76,21.11,5.12,0,9.22-1.18,12.09-3.5,4.26-3.51,6.34-8.27,6.34-14.54s-2-13.19-6-20.56a96.05,96.05,0,0,0-15.92-21.38,85.8,85.8,0,0,0-8-7.49,151.49,151.49,0,0,1-14.76-13,81.14,81.14,0,0,1-10.76-13.54c-3.28-5.33-5.83-11.41-5.83-17.76,0-5.87,2-10.2,5.95-12.88a10.92,10.92,0,0,1,6.34-1.85h4l.44,1.46c5.35,17.88,15.2,31.47,29.26,40.37,6.66,4.21,12.25,6.34,16.66,6.34a7.15,7.15,0,0,0,5.91-2.76,8.2,8.2,0,0,0,1.77-5.16C589.25,477.46,583.38,467.61,571.85,456.31Zm-27.1,102.21c-12.18-5.32-21.63-12.09-28.09-20.13-3.86-4.76-5.75-8.5-5.75-11.38s1.81-4.61,4.77-4.61a13.13,13.13,0,0,1,6.93,2.37,61.63,61.63,0,0,1,17.17,15.63c2.88,3.78,5.44,9,7.72,15.6l1.46,4.33Zm29.46-73.93a13.45,13.45,0,0,1-6.93-2.32,63,63,0,0,1-17.22-15.64c-2.83-3.82-5.39-9.06-7.68-15.6l-1.45-4.37,4.21,1.85c12.17,5.28,21.62,12.05,28.08,20.09,3.86,4.8,5.75,8.51,5.75,11.38S577.16,484.59,574.21,484.59Z" transform="translate(-0.25 0.36)"/><path class="cls-3" d="M400.73,485.57a8.2,8.2,0,0,0,1.77,5.16,7.15,7.15,0,0,0,5.91,2.76c4.41,0,10-2.13,16.66-6.34,14.06-8.9,23.91-22.49,29.27-40.37l.43-1.46h4a10.94,10.94,0,0,1,6.34,1.85c3.94,2.68,6,7,6,12.88,0,6.35-2.55,12.43-5.84,17.76a81.08,81.08,0,0,1-10.75,13.54,151.61,151.61,0,0,1-14.77,13,87.07,87.07,0,0,0-8,7.49,95.7,95.7,0,0,0-15.91,21.38c-4,7.37-6,14.3-6,20.56s2.09,11,6.34,14.54c2.87,2.32,7,3.5,12.09,3.5,14.77,0,29.46-7.09,43.76-21.11,11.54-11.3,17.41-21.11,17.41-29.26a8.29,8.29,0,0,0-1.73-5.12,7.23,7.23,0,0,0-5.95-2.8c-4.37,0-10,2.13-16.66,6.38-14.06,8.86-23.91,22.45-29.27,40.33l-.43,1.46h-4a11,11,0,0,1-6.34-1.85c-3.94-2.64-5.95-7-5.95-12.88,0-10,6-19.06,12.15-26.39a108.23,108.23,0,0,1,13.35-13.13,180.28,180.28,0,0,0,13.85-12.2,97,97,0,0,0,15.92-21.38c4-7.41,6-14.34,6-20.6s-2.09-11-6.34-14.54c-2.87-2.32-6.93-3.5-12.09-3.5-14.73,0-29.46,7.09-43.76,21.11C406.6,467.61,400.73,477.46,400.73,485.57ZM441,560.33l1.46-4.33c2.28-6.58,4.84-11.82,7.72-15.6a61.63,61.63,0,0,1,17.17-15.63,13.14,13.14,0,0,1,6.94-2.37c2.95,0,4.76,1.77,4.76,4.61s-1.89,6.62-5.75,11.38c-6.46,8-15.91,14.81-28.08,20.13ZM411,480c0-2.87,1.89-6.58,5.75-11.38,6.46-8,15.91-14.81,28.08-20.09l4.22-1.85L447.6,451c-2.28,6.54-4.84,11.78-7.68,15.6a63,63,0,0,1-17.21,15.64,13.48,13.48,0,0,1-6.93,2.32C412.82,484.59,411,482.82,411,480Z" transform="translate(-0.25 0.36)"/><path class="cls-3" d="M471.77,163.87c-14.3-14-29-21.11-43.76-21.11-5.16,0-9.22,1.18-12.09,3.5-4.26,3.55-6.35,8.27-6.35,14.54s2,13.19,6,20.6a96.93,96.93,0,0,0,15.91,21.38A180.28,180.28,0,0,0,445.36,215a108.31,108.31,0,0,1,13.36,13.13c6.18,7.33,12.14,16.44,12.14,26.39,0,5.91-2,10.24-5.95,12.88a10.92,10.92,0,0,1-6.34,1.85h-4l-.43-1.46c-5.36-17.88-15.2-31.47-29.26-40.33-6.66-4.25-12.29-6.38-16.66-6.38a7.2,7.2,0,0,0-5.95,2.8,8.23,8.23,0,0,0-1.74,5.12c0,8.15,5.87,18,17.41,29.26,14.3,14,29,21.11,43.76,21.11,5.12,0,9.22-1.18,12.1-3.5,4.25-3.51,6.34-8.27,6.34-14.54s-2.05-13.19-6-20.56a96,96,0,0,0-15.91-21.38,87.19,87.19,0,0,0-8-7.49,154,154,0,0,1-14.76-13,81.14,81.14,0,0,1-10.76-13.54c-3.28-5.33-5.83-11.41-5.83-17.76,0-5.87,2-10.2,5.95-12.88a10.94,10.94,0,0,1,6.34-1.85h4l.43,1.46c5.36,17.88,15.2,31.47,29.26,40.37,6.66,4.21,12.25,6.34,16.67,6.34a7.14,7.14,0,0,0,5.9-2.76,8.15,8.15,0,0,0,1.78-5.16C489.18,185,483.31,175.17,471.77,163.87Zm-27.1,102.21C432.5,260.76,423,254,416.58,246c-3.86-4.76-5.75-8.51-5.75-11.38s1.82-4.61,4.77-4.61a13.17,13.17,0,0,1,6.93,2.36A61.84,61.84,0,0,1,439.71,248c2.87,3.78,5.43,9,7.72,15.6l1.45,4.33Zm29.46-73.93a13.38,13.38,0,0,1-6.93-2.33A63,63,0,0,1,450,174.19c-2.84-3.82-5.4-9.06-7.68-15.6l-1.46-4.37,4.21,1.85c12.17,5.28,21.63,12.05,28.09,20.09,3.86,4.8,5.75,8.51,5.75,11.38S477.08,192.15,474.13,192.15Z" transform="translate(-0.25 0.36)"/><path class="cls-3" d="M500.81,193.13a8.2,8.2,0,0,0,1.77,5.16,7.17,7.17,0,0,0,5.91,2.76c4.41,0,10-2.13,16.66-6.34,14.06-8.9,23.91-22.49,29.26-40.37l.44-1.46h4a10.92,10.92,0,0,1,6.34,1.85c3.94,2.68,6,7,6,12.88,0,6.35-2.55,12.43-5.83,17.76a81.14,81.14,0,0,1-10.76,13.54,152.84,152.84,0,0,1-14.76,13,85.8,85.8,0,0,0-8,7.49,96.05,96.05,0,0,0-15.92,21.38c-4,7.37-6,14.3-6,20.56s2.08,11,6.34,14.54c2.87,2.32,7,3.5,12.09,3.5,14.77,0,29.46-7.09,43.76-21.11,11.54-11.3,17.41-21.11,17.41-29.26a8.29,8.29,0,0,0-1.73-5.12,7.23,7.23,0,0,0-6-2.8c-4.37,0-10,2.13-16.66,6.38-14.06,8.86-23.91,22.45-29.27,40.33l-.43,1.46h-4a10.94,10.94,0,0,1-6.34-1.85c-3.94-2.64-6-7-6-12.88,0-9.95,6-19.06,12.14-26.39A109,109,0,0,1,544.62,215a180.28,180.28,0,0,0,13.85-12.2,96.93,96.93,0,0,0,15.91-21.38c4-7.41,6-14.34,6-20.6s-2.09-11-6.34-14.54c-2.88-2.32-6.94-3.5-12.09-3.5-14.74,0-29.47,7.09-43.77,21.11C506.68,175.17,500.81,185,500.81,193.13Zm40.29,74.76,1.46-4.33c2.28-6.58,4.84-11.82,7.72-15.6a61.67,61.67,0,0,1,17.17-15.64,13.2,13.2,0,0,1,6.93-2.36c3,0,4.77,1.77,4.77,4.61s-1.89,6.62-5.75,11.38c-6.46,8-15.91,14.81-28.09,20.13Zm-30-80.35c0-2.87,1.89-6.58,5.75-11.38,6.46-8,15.91-14.81,28.08-20.09l4.21-1.85-1.45,4.37c-2.29,6.54-4.85,11.78-7.68,15.6a63,63,0,0,1-17.22,15.63,13.38,13.38,0,0,1-6.93,2.33C512.9,192.15,511.09,190.38,511.09,187.54Z" transform="translate(-0.25 0.36)"/><path class="cls-3" d="M519,407.56c14.3,14,29,21.12,43.76,21.12,5.16,0,9.22-1.18,12.09-3.51,4.25-3.54,6.34-8.27,6.34-14.53s-2-13.2-6-20.6a97,97,0,0,0-15.92-21.39c-4.28-4.43-9.14-8.24-13.85-12.19a109.66,109.66,0,0,1-13.35-13.13c-6.19-7.33-12.15-16.44-12.15-26.4,0-5.9,2-10.24,6-12.88a11,11,0,0,1,6.34-1.85h4l.44,1.46c5.35,17.88,15.2,31.47,29.26,40.33,6.66,4.26,12.29,6.38,16.66,6.38a7.22,7.22,0,0,0,6-2.79,8.31,8.31,0,0,0,1.73-5.12c0-8.16-5.87-18-17.41-29.27-14.29-14-29-21.11-43.76-21.11-5.12,0-9.22,1.18-12.09,3.51-4.25,3.5-6.34,8.27-6.34,14.53s2,13.19,6,20.56a96,96,0,0,0,15.91,21.39,89.72,89.72,0,0,0,8,7.48,151.71,151.71,0,0,1,14.77,13,80.61,80.61,0,0,1,10.75,13.53c3.29,5.33,5.84,11.41,5.84,17.76,0,5.87-2,10.2-5.95,12.88a10.94,10.94,0,0,1-6.34,1.85h-4l-.43-1.45C549.86,399.21,540,385.63,526,376.72c-6.66-4.21-12.25-6.34-16.66-6.34a7.17,7.17,0,0,0-5.91,2.76,8.22,8.22,0,0,0-1.77,5.16C501.61,386.41,507.48,396.26,519,407.56Zm27.1-102.21c12.17,5.32,21.62,12.1,28.08,20.13,3.86,4.77,5.75,8.51,5.75,11.38s-1.81,4.61-4.76,4.61a13.2,13.2,0,0,1-6.94-2.36,61.67,61.67,0,0,1-17.17-15.64c-2.87-3.78-5.43-9-7.72-15.6l-1.46-4.33Zm-29.46,73.93a13.41,13.41,0,0,1,6.93,2.33,63,63,0,0,1,17.21,15.64c2.84,3.82,5.4,9.05,7.68,15.59l1.46,4.37-4.22-1.85c-12.17-5.27-21.62-12.05-28.08-20.08-3.86-4.81-5.75-8.51-5.75-11.39S513.7,379.28,516.66,379.28Z" transform="translate(-0.25 0.36)"/><path class="cls-3" d="M490,378.3a8.22,8.22,0,0,0-1.77-5.16,7.17,7.17,0,0,0-5.91-2.76c-4.41,0-10,2.13-16.66,6.34-14.06,8.91-23.91,22.49-29.27,40.38l-.43,1.45h-4a10.94,10.94,0,0,1-6.34-1.85c-3.94-2.68-5.95-7-5.95-12.88,0-6.35,2.55-12.43,5.83-17.76a81.17,81.17,0,0,1,10.76-13.53,151.71,151.71,0,0,1,14.77-13,89.72,89.72,0,0,0,8-7.48,96,96,0,0,0,15.91-21.39c4-7.37,6-14.3,6-20.56s-2.09-11-6.34-14.53c-2.88-2.33-7-3.51-12.09-3.51-14.77,0-29.47,7.09-43.76,21.11-11.54,11.31-17.41,21.11-17.41,29.27a8.31,8.31,0,0,0,1.73,5.12,7.22,7.22,0,0,0,6,2.79c4.37,0,10-2.12,16.66-6.38,14.06-8.86,23.91-22.45,29.26-40.33l.44-1.46h4a11,11,0,0,1,6.34,1.85c3.94,2.64,5.95,7,5.95,12.88,0,10-6,19.07-12.15,26.4a109.66,109.66,0,0,1-13.35,13.13c-4.71,4-9.57,7.76-13.85,12.19A97,97,0,0,0,416.4,390c-4,7.4-6,14.33-6,20.6s2.08,11,6.34,14.53c2.87,2.33,6.93,3.51,12.09,3.51,14.73,0,29.46-7.09,43.76-21.12C484.11,396.26,490,386.41,490,378.3Zm-40.29-74.76-1.46,4.33c-2.29,6.58-4.85,11.82-7.72,15.6a61.67,61.67,0,0,1-17.17,15.64,13.2,13.2,0,0,1-6.94,2.36c-2.95,0-4.76-1.77-4.76-4.61s1.89-6.61,5.75-11.38c6.46-8,15.91-14.81,28.08-20.13Zm30,80.35c0,2.88-1.89,6.58-5.75,11.39-6.46,8-15.91,14.81-28.08,20.08l-4.22,1.85,1.46-4.37c2.28-6.54,4.84-11.77,7.68-15.59A63,63,0,0,1,468,381.61a13.41,13.41,0,0,1,6.93-2.33C477.89,379.28,479.7,381.06,479.7,383.89Z" transform="translate(-0.25 0.36)"/><path class="cls-3" d="M590.06,85.86a8.15,8.15,0,0,0-1.78-5.16,7.14,7.14,0,0,0-5.9-2.76c-4.42,0-10,2.13-16.66,6.34-14.07,8.9-23.91,22.49-29.27,40.38l-.43,1.45h-4a10.94,10.94,0,0,1-6.34-1.85c-3.94-2.68-6-7-6-12.88,0-6.35,2.55-12.43,5.83-17.76a81.66,81.66,0,0,1,10.76-13.54,154,154,0,0,1,14.76-13,88.49,88.49,0,0,0,8-7.48A96.28,96.28,0,0,0,575,38.24c4-7.37,6-14.3,6-20.56S579,6.65,574.7,3.14c-2.88-2.32-7-3.5-12.1-3.5-14.77,0-29.46,7.09-43.76,21.11C507.3,32.05,501.43,41.86,501.43,50a8.32,8.32,0,0,0,1.74,5.12,7.19,7.19,0,0,0,5.95,2.79c4.37,0,10-2.12,16.66-6.38C539.84,42.69,549.69,29.1,555,11.22l.43-1.46h4a10.92,10.92,0,0,1,6.34,1.85c3.94,2.64,6,7,6,12.88,0,10-6,19.07-12.14,26.4A109.75,109.75,0,0,1,546.24,64a178,178,0,0,0-13.85,12.19A96.74,96.74,0,0,0,516.48,97.6c-4,7.4-6,14.33-6,20.6s2.09,11,6.35,14.53c2.87,2.32,6.93,3.51,12.09,3.51,14.73,0,29.46-7.09,43.76-21.12C584.19,103.82,590.06,94,590.06,85.86ZM549.76,11.1l-1.45,4.33C546,22,543.46,27.25,540.59,31a61.84,61.84,0,0,1-17.18,15.64A13.17,13.17,0,0,1,516.48,49c-3,0-4.77-1.77-4.77-4.61s1.9-6.61,5.76-11.38c6.46-8,15.91-14.81,28.08-20.13Zm30,80.35c0,2.88-1.89,6.58-5.75,11.38-6.46,8-15.92,14.81-28.09,20.09l-4.21,1.85,1.46-4.37a59.1,59.1,0,0,1,7.68-15.6,63.11,63.11,0,0,1,17.21-15.63A13.38,13.38,0,0,1,575,86.84C578,86.84,579.78,88.62,579.78,91.45Z" transform="translate(-0.25 0.36)"/><path class="cls-3" d="M418.94,115.12c14.3,14,29,21.12,43.76,21.12,5.16,0,9.22-1.19,12.09-3.51,4.26-3.54,6.34-8.27,6.34-14.53s-2-13.2-6-20.6A97.06,97.06,0,0,0,459.2,76.21,178,178,0,0,0,445.35,64,109.75,109.75,0,0,1,432,50.89c-6.19-7.33-12.14-16.44-12.14-26.4,0-5.91,2-10.24,5.95-12.88a10.92,10.92,0,0,1,6.34-1.85h4l.43,1.46c5.35,17.88,15.2,31.47,29.26,40.33,6.66,4.26,12.29,6.38,16.66,6.38a7.2,7.2,0,0,0,5.95-2.79A8.31,8.31,0,0,0,490.15,50c0-8.16-5.86-18-17.4-29.27-14.3-14-29-21.11-43.76-21.11-5.13,0-9.22,1.18-12.1,3.5-4.25,3.51-6.34,8.28-6.34,14.54s2.05,13.19,6,20.56a96.28,96.28,0,0,0,15.91,21.39,88.49,88.49,0,0,0,8,7.48,154,154,0,0,1,14.76,13A81.66,81.66,0,0,1,466,93.62c3.28,5.33,5.83,11.41,5.83,17.76,0,5.87-2,10.2-5.95,12.88a10.94,10.94,0,0,1-6.34,1.85h-4l-.43-1.45c-5.36-17.89-15.21-31.48-29.27-40.38-6.65-4.21-12.25-6.34-16.66-6.34a7.17,7.17,0,0,0-5.91,2.76,8.2,8.2,0,0,0-1.77,5.16C401.53,94,407.4,103.82,418.94,115.12ZM446,12.91C458.21,18.23,467.66,25,474.12,33c3.86,4.77,5.75,8.51,5.75,11.38S478.06,49,475.11,49a13.17,13.17,0,0,1-6.93-2.36A61.7,61.7,0,0,1,451,31c-2.87-3.78-5.43-9-7.72-15.6l-1.45-4.33ZM416.58,86.84a13.38,13.38,0,0,1,6.93,2.33,63.11,63.11,0,0,1,17.21,15.63,59.1,59.1,0,0,1,7.68,15.6l1.46,4.37-4.21-1.85c-12.17-5.28-21.63-12-28.09-20.09-3.86-4.8-5.75-8.5-5.75-11.38S413.62,86.84,416.58,86.84Z" transform="translate(-0.25 0.36)"/><path class="cls-3" d="M571.85,1041.19c-14.3-14-29-21.11-43.77-21.11-5.15,0-9.21,1.18-12.09,3.51-4.25,3.54-6.34,8.27-6.34,14.53s2,13.19,6,20.6a97.21,97.21,0,0,0,15.91,21.39,182.32,182.32,0,0,0,13.85,12.19,109.74,109.74,0,0,1,13.36,13.13c6.18,7.33,12.14,16.44,12.14,26.39,0,5.91-2,10.24-6,12.88a10.94,10.94,0,0,1-6.34,1.85h-4l-.43-1.45c-5.36-17.88-15.21-31.47-29.27-40.34-6.65-4.25-12.29-6.38-16.66-6.38a7.23,7.23,0,0,0-5.95,2.8,8.31,8.31,0,0,0-1.73,5.12c0,8.15,5.87,18,17.41,29.27,14.3,14,29,21.11,43.76,21.11,5.12,0,9.22-1.18,12.09-3.51,4.26-3.5,6.34-8.27,6.34-14.53s-2-13.2-6-20.56a96.11,96.11,0,0,0-15.92-21.39,87.16,87.16,0,0,0-8-7.49,151.49,151.49,0,0,1-14.76-13,81.07,81.07,0,0,1-10.76-13.53c-3.28-5.33-5.83-11.41-5.83-17.77,0-5.86,2-10.2,5.95-12.88a10.92,10.92,0,0,1,6.34-1.85h4l.44,1.46c5.35,17.88,15.2,31.47,29.26,40.37,6.66,4.22,12.25,6.34,16.66,6.34a7.17,7.17,0,0,0,5.91-2.75,8.22,8.22,0,0,0,1.77-5.16C589.25,1062.34,583.38,1052.5,571.85,1041.19Zm-27.1,102.21c-12.18-5.31-21.63-12.09-28.09-20.12-3.86-4.77-5.75-8.51-5.75-11.39s1.81-4.6,4.77-4.6a13.11,13.11,0,0,1,6.93,2.36,61.67,61.67,0,0,1,17.17,15.64c2.88,3.78,5.44,9,7.72,15.59l1.46,4.34Zm29.46-73.93a13.45,13.45,0,0,1-6.93-2.32,63,63,0,0,1-17.22-15.64c-2.83-3.82-5.39-9.06-7.68-15.6l-1.45-4.37,4.21,1.85c12.17,5.28,21.62,12.06,28.08,20.09,3.86,4.81,5.75,8.51,5.75,11.38S577.16,1069.47,574.21,1069.47Z" transform="translate(-0.25 0.36)"/><path class="cls-3" d="M400.73,1070.46a8.22,8.22,0,0,0,1.77,5.16,7.17,7.17,0,0,0,5.91,2.75c4.41,0,10-2.12,16.66-6.34,14.06-8.9,23.91-22.49,29.27-40.37l.43-1.46h4a10.94,10.94,0,0,1,6.34,1.85c3.94,2.68,6,7,6,12.88,0,6.36-2.55,12.44-5.84,17.77a81,81,0,0,1-10.75,13.53,151.61,151.61,0,0,1-14.77,13,88.48,88.48,0,0,0-8,7.49,95.75,95.75,0,0,0-15.91,21.39c-4,7.36-6,14.29-6,20.56s2.09,11,6.34,14.53c2.87,2.33,7,3.51,12.09,3.51,14.77,0,29.46-7.09,43.76-21.11,11.54-11.31,17.41-21.12,17.41-29.27a8.31,8.31,0,0,0-1.73-5.12,7.23,7.23,0,0,0-5.95-2.8c-4.37,0-10,2.13-16.66,6.38-14.06,8.87-23.91,22.46-29.27,40.34l-.43,1.45h-4a11,11,0,0,1-6.34-1.85c-3.94-2.64-5.95-7-5.95-12.88,0-10,6-19.06,12.15-26.39a108.94,108.94,0,0,1,13.35-13.13,182.32,182.32,0,0,0,13.85-12.19,97.26,97.26,0,0,0,15.92-21.39c4-7.41,6-14.34,6-20.6s-2.09-11-6.34-14.53c-2.87-2.33-6.93-3.51-12.09-3.51-14.73,0-29.46,7.09-43.76,21.11C406.6,1052.5,400.73,1062.34,400.73,1070.46ZM441,1145.22l1.46-4.34c2.28-6.58,4.84-11.81,7.72-15.59a61.67,61.67,0,0,1,17.17-15.64,13.12,13.12,0,0,1,6.94-2.36c2.95,0,4.76,1.77,4.76,4.6s-1.89,6.62-5.75,11.39c-6.46,8-15.91,14.81-28.08,20.12Zm-30-80.36c0-2.87,1.89-6.57,5.75-11.38,6.46-8,15.91-14.81,28.08-20.09l4.22-1.85-1.46,4.37c-2.28,6.54-4.84,11.78-7.68,15.6a63,63,0,0,1-17.21,15.64,13.48,13.48,0,0,1-6.93,2.32C412.82,1069.47,411,1067.7,411,1064.86Z" transform="translate(-0.25 0.36)"/><path class="cls-3" d="M471.77,748.75c-14.3-14-29-21.11-43.76-21.11-5.16,0-9.22,1.18-12.09,3.5-4.26,3.55-6.35,8.28-6.35,14.54s2,13.19,6,20.6a97.21,97.21,0,0,0,15.91,21.39,182.32,182.32,0,0,0,13.85,12.19A109,109,0,0,1,458.72,813c6.18,7.33,12.14,16.44,12.14,26.39,0,5.91-2,10.24-5.95,12.88a10.92,10.92,0,0,1-6.34,1.85h-4l-.43-1.45c-5.36-17.89-15.2-31.48-29.26-40.34-6.66-4.25-12.29-6.38-16.66-6.38a7.2,7.2,0,0,0-5.95,2.8,8.23,8.23,0,0,0-1.74,5.12c0,8.15,5.87,18,17.41,29.26,14.3,14,29,21.12,43.76,21.12,5.12,0,9.22-1.19,12.1-3.51,4.25-3.5,6.34-8.27,6.34-14.53s-2.05-13.2-6-20.56a95.83,95.83,0,0,0-15.91-21.39,88.59,88.59,0,0,0-8-7.49,152.67,152.67,0,0,1-14.76-13,81.48,81.48,0,0,1-10.76-13.53c-3.28-5.33-5.83-11.41-5.83-17.77,0-5.87,2-10.2,5.95-12.88a10.94,10.94,0,0,1,6.34-1.85h4l.43,1.46c5.36,17.88,15.2,31.47,29.26,40.37,6.66,4.22,12.25,6.34,16.67,6.34a7.13,7.13,0,0,0,5.9-2.75,8.17,8.17,0,0,0,1.78-5.16C489.18,769.9,483.31,760.06,471.77,748.75ZM444.67,851c-12.17-5.32-21.63-12.09-28.09-20.13-3.86-4.76-5.75-8.5-5.75-11.38s1.82-4.61,4.77-4.61a13.11,13.11,0,0,1,6.93,2.37,62,62,0,0,1,17.18,15.63c2.87,3.79,5.43,9,7.72,15.6l1.45,4.33ZM474.13,777a13.45,13.45,0,0,1-6.93-2.32A63,63,0,0,1,450,759.07c-2.84-3.82-5.4-9.06-7.68-15.6l-1.46-4.37,4.21,1.85c12.17,5.28,21.63,12,28.09,20.09,3.86,4.81,5.75,8.51,5.75,11.38S477.08,777,474.13,777Z" transform="translate(-0.25 0.36)"/><path class="cls-3" d="M500.81,778a8.22,8.22,0,0,0,1.77,5.16,7.17,7.17,0,0,0,5.91,2.75c4.41,0,10-2.12,16.66-6.34,14.06-8.9,23.91-22.49,29.26-40.37l.44-1.46h4a10.92,10.92,0,0,1,6.34,1.85c3.94,2.68,6,7,6,12.88,0,6.36-2.55,12.44-5.83,17.77a81.48,81.48,0,0,1-10.76,13.53,151.49,151.49,0,0,1-14.76,13,87.16,87.16,0,0,0-8,7.49,95.88,95.88,0,0,0-15.92,21.39c-4,7.36-6,14.29-6,20.56s2.08,11,6.34,14.53c2.87,2.32,7,3.51,12.09,3.51,14.77,0,29.46-7.09,43.76-21.12,11.54-11.3,17.41-21.11,17.41-29.26a8.29,8.29,0,0,0-1.73-5.12,7.23,7.23,0,0,0-6-2.8c-4.37,0-10,2.13-16.66,6.38-14.06,8.86-23.91,22.45-29.27,40.34l-.43,1.45h-4a10.94,10.94,0,0,1-6.34-1.85c-3.94-2.64-6-7-6-12.88,0-10,6-19.06,12.14-26.39a109.74,109.74,0,0,1,13.36-13.13,182.32,182.32,0,0,0,13.85-12.19,97.21,97.21,0,0,0,15.91-21.39c4-7.41,6-14.34,6-20.6s-2.09-11-6.34-14.54c-2.88-2.32-6.94-3.5-12.09-3.5-14.74,0-29.47,7.09-43.77,21.11C506.68,760.06,500.81,769.9,500.81,778Zm40.29,74.75,1.46-4.33c2.28-6.58,4.84-11.81,7.72-15.6a61.78,61.78,0,0,1,17.17-15.63,13.13,13.13,0,0,1,6.93-2.37c3,0,4.77,1.78,4.77,4.61s-1.89,6.62-5.75,11.38c-6.46,8-15.91,14.81-28.09,20.13Zm-30-80.35c0-2.87,1.89-6.57,5.75-11.38,6.46-8,15.91-14.81,28.08-20.09l4.21-1.85-1.45,4.37c-2.29,6.54-4.85,11.78-7.68,15.6a63,63,0,0,1-17.22,15.64,13.45,13.45,0,0,1-6.93,2.32C512.9,777,511.09,775.26,511.09,772.42Z" transform="translate(-0.25 0.36)"/><path class="cls-3" d="M519,992.45c14.3,14,29,21.11,43.76,21.11,5.16,0,9.22-1.18,12.09-3.51,4.25-3.54,6.34-8.27,6.34-14.53s-2-13.19-6-20.6a97.26,97.26,0,0,0-15.92-21.39c-4.28-4.42-9.14-8.23-13.85-12.19a109.66,109.66,0,0,1-13.35-13.13c-6.19-7.33-12.15-16.44-12.15-26.39,0-5.91,2-10.24,6-12.88a11,11,0,0,1,6.34-1.85h4l.44,1.45c5.35,17.88,15.2,31.47,29.26,40.34,6.66,4.25,12.29,6.38,16.66,6.38a7.23,7.23,0,0,0,6-2.8,8.31,8.31,0,0,0,1.73-5.12c0-8.15-5.87-18-17.41-29.27-14.29-14-29-21.11-43.76-21.11-5.12,0-9.22,1.18-12.09,3.51-4.25,3.5-6.34,8.27-6.34,14.53s2,13.2,6,20.56A95.75,95.75,0,0,0,532.57,937a89.83,89.83,0,0,0,8,7.49,151.61,151.61,0,0,1,14.77,13,81,81,0,0,1,10.75,13.53c3.29,5.33,5.84,11.41,5.84,17.77,0,5.86-2,10.2-5.95,12.88a10.94,10.94,0,0,1-6.34,1.85h-4l-.43-1.46C549.86,984.1,540,970.51,526,961.61c-6.66-4.22-12.25-6.34-16.66-6.34a7.17,7.17,0,0,0-5.91,2.75,8.22,8.22,0,0,0-1.77,5.16C501.61,971.3,507.48,981.14,519,992.45Zm27.1-102.21c12.17,5.31,21.62,12.09,28.08,20.12,3.86,4.77,5.75,8.51,5.75,11.39s-1.81,4.6-4.76,4.6a13.12,13.12,0,0,1-6.94-2.36,61.67,61.67,0,0,1-17.17-15.64c-2.87-3.78-5.43-9-7.72-15.59l-1.46-4.34Zm-29.46,73.93a13.48,13.48,0,0,1,6.93,2.32,63,63,0,0,1,17.21,15.64c2.84,3.82,5.4,9.06,7.68,15.6l1.46,4.37-4.22-1.85c-12.17-5.28-21.62-12.06-28.08-20.09-3.86-4.81-5.75-8.51-5.75-11.38S513.7,964.17,516.66,964.17Z" transform="translate(-0.25 0.36)"/><path class="cls-3" d="M490,963.18a8.22,8.22,0,0,0-1.77-5.16,7.17,7.17,0,0,0-5.91-2.75c-4.41,0-10,2.12-16.66,6.34-14.06,8.9-23.91,22.49-29.27,40.37l-.43,1.46h-4a10.94,10.94,0,0,1-6.34-1.85c-3.94-2.68-5.95-7-5.95-12.88,0-6.36,2.55-12.44,5.83-17.77a81.59,81.59,0,0,1,10.76-13.53,151.61,151.61,0,0,1,14.77-13,89.83,89.83,0,0,0,8-7.49,95.75,95.75,0,0,0,15.91-21.39c4-7.36,6-14.29,6-20.56s-2.09-11-6.34-14.53c-2.88-2.33-7-3.51-12.09-3.51-14.77,0-29.47,7.09-43.76,21.11-11.54,11.31-17.41,21.12-17.41,29.27a8.31,8.31,0,0,0,1.73,5.12,7.23,7.23,0,0,0,6,2.8c4.37,0,10-2.13,16.66-6.38,14.06-8.87,23.91-22.46,29.26-40.34l.44-1.45h4a11,11,0,0,1,6.34,1.85c3.94,2.64,5.95,7,5.95,12.88,0,9.95-6,19.06-12.15,26.39a109.66,109.66,0,0,1-13.35,13.13c-4.71,4-9.57,7.77-13.85,12.19a97.26,97.26,0,0,0-15.92,21.39c-4,7.41-6,14.34-6,20.6s2.08,11,6.34,14.53c2.87,2.33,6.93,3.51,12.09,3.51,14.73,0,29.46-7.09,43.76-21.11C484.11,981.14,490,971.3,490,963.18Zm-40.29-74.76-1.46,4.34c-2.29,6.58-4.85,11.81-7.72,15.59A61.67,61.67,0,0,1,423.34,924a13.12,13.12,0,0,1-6.94,2.36c-2.95,0-4.76-1.77-4.76-4.6s1.89-6.62,5.75-11.39c6.46-8,15.91-14.81,28.08-20.12Zm30,80.36c0,2.87-1.89,6.57-5.75,11.38-6.46,8-15.91,14.81-28.08,20.09l-4.22,1.85,1.46-4.37c2.28-6.54,4.84-11.78,7.68-15.6A63,63,0,0,1,468,966.49a13.48,13.48,0,0,1,6.93-2.32C477.89,964.17,479.7,965.94,479.7,968.78Z" transform="translate(-0.25 0.36)"/><path class="cls-3" d="M590.06,670.74a8.17,8.17,0,0,0-1.78-5.16,7.14,7.14,0,0,0-5.9-2.76c-4.42,0-10,2.13-16.66,6.35-14.07,8.9-23.91,22.49-29.27,40.37L536,711h-4a10.88,10.88,0,0,1-6.34-1.86c-3.94-2.67-6-7-6-12.88,0-6.35,2.55-12.43,5.83-17.76A81.17,81.17,0,0,1,536.34,665a154.14,154.14,0,0,1,14.76-13,88.49,88.49,0,0,0,8-7.48A96.28,96.28,0,0,0,575,623.12c4-7.36,6-14.3,6-20.56s-2.09-11-6.34-14.53c-2.88-2.33-7-3.51-12.1-3.51-14.77,0-29.46,7.09-43.76,21.11-11.54,11.31-17.41,21.11-17.41,29.27a8.32,8.32,0,0,0,1.74,5.12,7.2,7.2,0,0,0,5.95,2.8c4.37,0,10-2.13,16.66-6.39C539.84,627.57,549.69,614,555,596.1l.43-1.46h4a10.92,10.92,0,0,1,6.34,1.85c3.94,2.64,6,7,6,12.88,0,10-6,19.07-12.14,26.4a109,109,0,0,1-13.36,13.13,180.15,180.15,0,0,0-13.85,12.19,97.21,97.21,0,0,0-15.91,21.39c-4,7.4-6,14.34-6,20.6s2.09,11,6.35,14.53c2.87,2.33,6.93,3.51,12.09,3.51,14.73,0,29.46-7.09,43.76-21.11C584.19,688.7,590.06,678.86,590.06,670.74ZM549.76,596l-1.45,4.34c-2.29,6.57-4.85,11.81-7.72,15.59a61.84,61.84,0,0,1-17.18,15.64,13.09,13.09,0,0,1-6.93,2.36c-3,0-4.77-1.77-4.77-4.6s1.9-6.62,5.76-11.39c6.46-8,15.91-14.81,28.08-20.12Zm30,80.35c0,2.88-1.89,6.58-5.75,11.39-6.46,8-15.92,14.81-28.09,20.09l-4.21,1.85,1.46-4.38c2.28-6.53,4.84-11.77,7.68-15.59a63,63,0,0,1,17.21-15.64,13.36,13.36,0,0,1,6.93-2.32C578,671.73,579.78,673.5,579.78,676.33Z" transform="translate(-0.25 0.36)"/><path class="cls-3" d="M418.94,700c14.3,14,29,21.11,43.76,21.11,5.16,0,9.22-1.18,12.09-3.51,4.26-3.54,6.34-8.27,6.34-14.53s-2-13.2-6-20.6a97.53,97.53,0,0,0-15.91-21.39,180.15,180.15,0,0,0-13.85-12.19A109,109,0,0,1,432,635.77c-6.19-7.33-12.14-16.44-12.14-26.4,0-5.9,2-10.24,5.95-12.88a10.92,10.92,0,0,1,6.34-1.85h4l.43,1.46c5.35,17.88,15.2,31.47,29.26,40.33,6.66,4.26,12.29,6.39,16.66,6.39a7.21,7.21,0,0,0,5.95-2.8,8.31,8.31,0,0,0,1.73-5.12c0-8.16-5.86-18-17.4-29.27-14.3-14-29-21.11-43.76-21.11-5.13,0-9.22,1.18-12.1,3.51-4.25,3.5-6.34,8.27-6.34,14.53s2.05,13.2,6,20.56a96.28,96.28,0,0,0,15.91,21.39,88.49,88.49,0,0,0,8,7.48,154.14,154.14,0,0,1,14.76,13A81.17,81.17,0,0,1,466,678.5c3.28,5.33,5.83,11.41,5.83,17.76,0,5.87-2,10.21-5.95,12.88a10.88,10.88,0,0,1-6.34,1.86h-4l-.43-1.46c-5.36-17.88-15.21-31.47-29.27-40.37-6.65-4.22-12.25-6.35-16.66-6.35a7.17,7.17,0,0,0-5.91,2.76,8.22,8.22,0,0,0-1.77,5.16C401.53,678.86,407.4,688.7,418.94,700ZM446,597.8c12.17,5.31,21.62,12.09,28.08,20.12,3.86,4.77,5.75,8.51,5.75,11.39s-1.81,4.6-4.76,4.6a13.09,13.09,0,0,1-6.93-2.36A61.7,61.7,0,0,1,451,615.91c-2.87-3.78-5.43-9-7.72-15.59L441.83,596Zm-29.46,73.93a13.36,13.36,0,0,1,6.93,2.32,63,63,0,0,1,17.21,15.64c2.84,3.82,5.4,9.06,7.68,15.59l1.46,4.38-4.21-1.85c-12.17-5.28-21.63-12.06-28.09-20.09-3.86-4.81-5.75-8.51-5.75-11.39S413.62,671.73,416.58,671.73Z" transform="translate(-0.25 0.36)"/><path class="cls-3" d="M371.69,456.31c-14.3-14-29-21.11-43.76-21.11-5.16,0-9.22,1.18-12.09,3.5-4.26,3.55-6.34,8.27-6.34,14.54s2,13.19,6,20.6a97,97,0,0,0,15.92,21.38c4.28,4.43,9.14,8.24,13.85,12.2a108.93,108.93,0,0,1,13.35,13.13c6.19,7.33,12.14,16.44,12.14,26.39,0,5.91-2,10.24-5.94,12.88a11,11,0,0,1-6.34,1.85h-4l-.44-1.46c-5.35-17.88-15.2-31.47-29.26-40.33-6.66-4.25-12.29-6.38-16.66-6.38a7.23,7.23,0,0,0-6,2.8,8.29,8.29,0,0,0-1.73,5.12c0,8.15,5.87,18,17.41,29.26,14.29,14,29,21.11,43.76,21.11,5.12,0,9.21-1.18,12.09-3.5,4.25-3.51,6.34-8.27,6.34-14.54s-2.05-13.19-6-20.56a95.7,95.7,0,0,0-15.91-21.38,88.39,88.39,0,0,0-8-7.49,151.61,151.61,0,0,1-14.77-13,81.66,81.66,0,0,1-10.76-13.54c-3.28-5.33-5.83-11.41-5.83-17.76,0-5.87,2-10.2,5.95-12.88a10.94,10.94,0,0,1,6.34-1.85h4l.43,1.46c5.36,17.88,15.21,31.47,29.27,40.37,6.65,4.21,12.25,6.34,16.66,6.34a7.15,7.15,0,0,0,5.91-2.76,8.2,8.2,0,0,0,1.77-5.16C389.1,477.46,383.23,467.61,371.69,456.31Zm-27.1,102.21c-12.17-5.32-21.62-12.09-28.08-20.13-3.86-4.76-5.75-8.5-5.75-11.38s1.81-4.61,4.76-4.61a13.14,13.14,0,0,1,6.94,2.37,61.63,61.63,0,0,1,17.17,15.63c2.87,3.78,5.43,9,7.72,15.6l1.46,4.33Zm29.46-73.93a13.48,13.48,0,0,1-6.93-2.32,63,63,0,0,1-17.21-15.64c-2.84-3.82-5.4-9.06-7.68-15.6l-1.46-4.37,4.21,1.85c12.18,5.28,21.63,12.05,28.09,20.09,3.86,4.8,5.75,8.51,5.75,11.38S377,484.59,374.05,484.59Z" transform="translate(-0.25 0.36)"/><path class="cls-3" d="M200.57,485.57a8.15,8.15,0,0,0,1.78,5.16,7.12,7.12,0,0,0,5.91,2.76c4.41,0,10-2.13,16.66-6.34,14.06-8.9,23.9-22.49,29.26-40.37l.44-1.46h4a10.94,10.94,0,0,1,6.34,1.85c3.94,2.68,5.95,7,5.95,12.88,0,6.35-2.55,12.43-5.83,17.76a81.14,81.14,0,0,1-10.76,13.54,151.49,151.49,0,0,1-14.76,13,87.19,87.19,0,0,0-8,7.49,96,96,0,0,0-15.91,21.38c-4,7.37-6,14.3-6,20.56s2.09,11,6.34,14.54c2.88,2.32,7,3.5,12.1,3.5,14.77,0,29.46-7.09,43.76-21.11,11.54-11.3,17.41-21.11,17.41-29.26a8.23,8.23,0,0,0-1.74-5.12,7.19,7.19,0,0,0-5.94-2.8c-4.38,0-10,2.13-16.66,6.38-14.07,8.86-23.91,22.45-29.27,40.33l-.43,1.46h-4a10.94,10.94,0,0,1-6.34-1.85c-3.94-2.64-6-7-6-12.88,0-10,6-19.06,12.14-26.39a109,109,0,0,1,13.36-13.13,180.28,180.28,0,0,0,13.85-12.2,96.93,96.93,0,0,0,15.91-21.38c4-7.41,6-14.34,6-20.6s-2.09-11-6.34-14.54c-2.88-2.32-6.94-3.5-12.1-3.5-14.73,0-29.46,7.09-43.76,21.11C206.44,467.61,200.57,477.46,200.57,485.57Zm40.3,74.76,1.46-4.33c2.28-6.58,4.84-11.82,7.72-15.6a61.63,61.63,0,0,1,17.17-15.63,13.11,13.11,0,0,1,6.93-2.37c3,0,4.77,1.77,4.77,4.61s-1.89,6.62-5.75,11.38c-6.46,8-15.92,14.81-28.09,20.13Zm-30-80.35c0-2.87,1.88-6.58,5.75-11.38,6.45-8,15.91-14.81,28.08-20.09l4.21-1.85L247.45,451c-2.29,6.54-4.85,11.78-7.68,15.6a63.17,63.17,0,0,1-17.22,15.64,13.45,13.45,0,0,1-6.93,2.32C212.67,484.59,210.86,482.82,210.86,480Z" transform="translate(-0.25 0.36)"/><path class="cls-3" d="M271.61,163.87c-14.29-14-29-21.11-43.76-21.11-5.16,0-9.21,1.18-12.09,3.5-4.25,3.55-6.34,8.27-6.34,14.54s2,13.19,6,20.6a96.61,96.61,0,0,0,15.91,21.38A180.28,180.28,0,0,0,245.21,215a108.23,108.23,0,0,1,13.35,13.13c6.19,7.33,12.15,16.44,12.15,26.39,0,5.91-2,10.24-5.95,12.88a10.94,10.94,0,0,1-6.34,1.85h-4l-.43-1.46c-5.36-17.88-15.21-31.47-29.27-40.33-6.66-4.25-12.29-6.38-16.66-6.38a7.23,7.23,0,0,0-6,2.8A8.29,8.29,0,0,0,200.4,229c0,8.15,5.87,18,17.41,29.26,14.3,14,29,21.11,43.76,21.11,5.12,0,9.22-1.18,12.09-3.5,4.25-3.51,6.34-8.27,6.34-14.54s-2.05-13.19-6-20.56a96.05,96.05,0,0,0-15.92-21.38,87.07,87.07,0,0,0-8-7.49,153,153,0,0,1-14.77-13,81.08,81.08,0,0,1-10.75-13.54c-3.28-5.33-5.84-11.41-5.84-17.76,0-5.87,2-10.2,5.95-12.88a10.94,10.94,0,0,1,6.34-1.85h4l.43,1.46c5.36,17.88,15.21,31.47,29.27,40.37,6.66,4.21,12.25,6.34,16.66,6.34a7.17,7.17,0,0,0,5.91-2.76,8.2,8.2,0,0,0,1.77-5.16C289,185,283.15,175.17,271.61,163.87ZM244.52,266.08C232.34,260.76,222.89,254,216.43,246c-3.86-4.76-5.75-8.51-5.75-11.38s1.81-4.61,4.77-4.61a13.2,13.2,0,0,1,6.93,2.36A61.67,61.67,0,0,1,239.55,248c2.88,3.78,5.44,9,7.72,15.6l1.46,4.33ZM274,192.15a13.41,13.41,0,0,1-6.94-2.33,63,63,0,0,1-17.21-15.63,59.25,59.25,0,0,1-7.68-15.6l-1.46-4.37,4.22,1.85c12.17,5.28,21.62,12.05,28.08,20.09,3.86,4.8,5.75,8.51,5.75,11.38S276.93,192.15,274,192.15Z" transform="translate(-0.25 0.36)"/><path class="cls-3" d="M300.65,193.13a8.2,8.2,0,0,0,1.77,5.16,7.17,7.17,0,0,0,5.91,2.76c4.41,0,10-2.13,16.66-6.34,14.06-8.9,23.91-22.49,29.27-40.37l.43-1.46h4a10.94,10.94,0,0,1,6.34,1.85c3.94,2.68,5.95,7,5.95,12.88,0,6.35-2.55,12.43-5.83,17.76a81.66,81.66,0,0,1-10.76,13.54,153,153,0,0,1-14.77,13,88.39,88.39,0,0,0-8,7.49,95.7,95.7,0,0,0-15.91,21.38c-4,7.37-6,14.3-6,20.56s2.09,11,6.34,14.54c2.88,2.32,7,3.5,12.1,3.5,14.77,0,29.46-7.09,43.75-21.11,11.55-11.3,17.41-21.11,17.41-29.26a8.29,8.29,0,0,0-1.73-5.12,7.21,7.21,0,0,0-6-2.8c-4.37,0-10,2.13-16.66,6.38-14.06,8.86-23.91,22.45-29.26,40.33l-.44,1.46h-4a11,11,0,0,1-6.35-1.85c-3.93-2.64-5.94-7-5.94-12.88,0-9.95,5.95-19.06,12.14-26.39A108.31,108.31,0,0,1,344.47,215c4.7-4,9.56-7.77,13.85-12.2a97.24,97.24,0,0,0,15.91-21.38c4-7.41,6-14.34,6-20.6s-2.08-11-6.34-14.54c-2.87-2.32-6.93-3.5-12.09-3.5-14.73,0-29.46,7.09-43.76,21.11C306.52,175.17,300.65,185,300.65,193.13Zm40.29,74.76,1.46-4.33c2.29-6.58,4.85-11.82,7.72-15.6a61.56,61.56,0,0,1,17.18-15.64,13.17,13.17,0,0,1,6.93-2.36c2.95,0,4.76,1.77,4.76,4.61s-1.89,6.62-5.75,11.38c-6.46,8-15.91,14.81-28.08,20.13Zm-30-80.35c0-2.87,1.89-6.58,5.75-11.38,6.46-8,15.92-14.81,28.09-20.09l4.21-1.85-1.46,4.37c-2.28,6.54-4.84,11.78-7.68,15.6a63,63,0,0,1-17.21,15.63,13.38,13.38,0,0,1-6.93,2.33C312.74,192.15,310.93,190.38,310.93,187.54Z" transform="translate(-0.25 0.36)"/><path class="cls-3" d="M318.86,407.56c14.3,14,29,21.12,43.76,21.12,5.16,0,9.22-1.18,12.1-3.51,4.25-3.54,6.34-8.27,6.34-14.53s-2-13.2-6-20.6a97,97,0,0,0-15.91-21.39,178,178,0,0,0-13.85-12.19,109.74,109.74,0,0,1-13.36-13.13c-6.18-7.33-12.14-16.44-12.14-26.4,0-5.9,2-10.24,6-12.88a10.94,10.94,0,0,1,6.34-1.85h4l.43,1.46c5.36,17.88,15.2,31.47,29.27,40.33,6.65,4.26,12.28,6.38,16.66,6.38a7.19,7.19,0,0,0,5.94-2.79,8.25,8.25,0,0,0,1.74-5.12c0-8.16-5.87-18-17.41-29.27-14.3-14-29-21.11-43.76-21.11-5.12,0-9.22,1.18-12.09,3.51-4.26,3.5-6.35,8.27-6.35,14.53s2,13.19,6,20.56a96.28,96.28,0,0,0,15.91,21.39,88.49,88.49,0,0,0,8,7.48,151.59,151.59,0,0,1,14.76,13,80.66,80.66,0,0,1,10.76,13.53c3.28,5.33,5.83,11.41,5.83,17.76,0,5.87-2,10.2-5.95,12.88a10.92,10.92,0,0,1-6.34,1.85h-4l-.44-1.45c-5.36-17.89-15.2-31.47-29.26-40.38-6.66-4.21-12.25-6.34-16.66-6.34a7.15,7.15,0,0,0-5.91,2.76,8.17,8.17,0,0,0-1.78,5.16C301.45,386.41,307.32,396.26,318.86,407.56ZM346,305.35c12.17,5.32,21.63,12.1,28.09,20.13,3.86,4.77,5.75,8.51,5.75,11.38s-1.81,4.61-4.77,4.61a13.17,13.17,0,0,1-6.93-2.36,61.67,61.67,0,0,1-17.17-15.64c-2.88-3.78-5.44-9-7.72-15.6l-1.46-4.33ZM316.5,379.28a13.38,13.38,0,0,1,6.93,2.33,63.17,63.17,0,0,1,17.22,15.64c2.83,3.82,5.39,9.05,7.68,15.59l1.45,4.37-4.21-1.85c-12.17-5.27-21.63-12.05-28.08-20.08-3.87-4.81-5.75-8.51-5.75-11.39S313.55,379.28,316.5,379.28Z" transform="translate(-0.25 0.36)"/><path class="cls-3" d="M289.83,378.3a8.17,8.17,0,0,0-1.78-5.16,7.15,7.15,0,0,0-5.91-2.76c-4.41,0-10,2.13-16.66,6.34-14.06,8.91-23.9,22.49-29.26,40.38l-.44,1.45h-4a10.94,10.94,0,0,1-6.34-1.85c-3.94-2.68-5.95-7-5.95-12.88,0-6.35,2.55-12.43,5.83-17.76a80.66,80.66,0,0,1,10.76-13.53,151.59,151.59,0,0,1,14.76-13,88.49,88.49,0,0,0,8-7.48,96.28,96.28,0,0,0,15.91-21.39c4-7.37,6-14.3,6-20.56s-2.09-11-6.35-14.53c-2.87-2.33-7-3.51-12.09-3.51-14.77,0-29.46,7.09-43.76,21.11-11.54,11.31-17.41,21.11-17.41,29.27a8.25,8.25,0,0,0,1.74,5.12,7.19,7.19,0,0,0,5.94,2.79c4.38,0,10-2.12,16.66-6.38,14.07-8.86,23.91-22.45,29.27-40.33l.43-1.46h4a10.94,10.94,0,0,1,6.34,1.85c3.94,2.64,5.95,7,5.95,12.88,0,10-6,19.07-12.14,26.4A109.74,109.74,0,0,1,246,356.46a178,178,0,0,0-13.85,12.19A97,97,0,0,0,216.25,390c-4,7.4-6,14.33-6,20.6s2.09,11,6.34,14.53c2.88,2.33,6.94,3.51,12.1,3.51,14.73,0,29.46-7.09,43.76-21.12C284,396.26,289.83,386.41,289.83,378.3Zm-40.3-74.76-1.46,4.33c-2.28,6.58-4.84,11.82-7.72,15.6a61.67,61.67,0,0,1-17.17,15.64,13.17,13.17,0,0,1-6.93,2.36c-3,0-4.77-1.77-4.77-4.61s1.89-6.61,5.75-11.38c6.46-8,15.92-14.81,28.09-20.13Zm30,80.35c0,2.88-1.88,6.58-5.75,11.39-6.45,8-15.91,14.81-28.08,20.08l-4.21,1.85,1.45-4.37c2.29-6.54,4.85-11.77,7.68-15.59a63.17,63.17,0,0,1,17.22-15.64,13.38,13.38,0,0,1,6.93-2.33C277.73,379.28,279.54,381.06,279.54,383.89Z" transform="translate(-0.25 0.36)"/><path class="cls-3" d="M389.9,85.86a8.2,8.2,0,0,0-1.77-5.16,7.17,7.17,0,0,0-5.91-2.76c-4.41,0-10,2.13-16.66,6.34-14.06,8.9-23.91,22.49-29.27,40.38l-.43,1.45h-4a11,11,0,0,1-6.34-1.85c-3.93-2.68-5.94-7-5.94-12.88,0-6.35,2.55-12.43,5.83-17.76a81.08,81.08,0,0,1,10.75-13.54,153,153,0,0,1,14.77-13,88.37,88.37,0,0,0,8-7.48,96.34,96.34,0,0,0,15.92-21.39c4-7.37,6-14.3,6-20.56s-2.09-11-6.34-14.54c-2.87-2.32-7-3.5-12.09-3.5-14.77,0-29.46,7.09-43.76,21.11C307.15,32.05,301.28,41.86,301.28,50A8.31,8.31,0,0,0,303,55.14,7.22,7.22,0,0,0,309,57.93c4.37,0,10-2.12,16.66-6.38,14.06-8.86,23.91-22.45,29.27-40.33l.43-1.46h4a10.94,10.94,0,0,1,6.34,1.85c3.94,2.64,5.95,7,5.95,12.88,0,10-6,19.07-12.14,26.4A110.48,110.48,0,0,1,346.09,64a178,178,0,0,0-13.85,12.19A96.43,96.43,0,0,0,316.33,97.6c-4,7.4-6,14.33-6,20.6s2.09,11,6.34,14.53c2.88,2.32,6.93,3.51,12.09,3.51,14.73,0,29.47-7.09,43.76-21.12C384,103.82,389.9,94,389.9,85.86ZM349.61,11.1l-1.46,4.33c-2.28,6.58-4.84,11.82-7.72,15.6a61.67,61.67,0,0,1-17.17,15.64A13.2,13.2,0,0,1,316.33,49c-3,0-4.77-1.77-4.77-4.61s1.89-6.61,5.75-11.38c6.46-8,15.91-14.81,28.09-20.13Zm30,80.35c0,2.88-1.89,6.58-5.75,11.38-6.46,8-15.91,14.81-28.08,20.09l-4.22,1.85L343,120.4a59.41,59.41,0,0,1,7.68-15.6,63.11,63.11,0,0,1,17.21-15.63,13.44,13.44,0,0,1,6.94-2.33C377.81,86.84,379.62,88.62,379.62,91.45Z" transform="translate(-0.25 0.36)"/><path class="cls-3" d="M218.79,115.12c14.29,14,29,21.12,43.76,21.12,5.16,0,9.21-1.19,12.09-3.51,4.25-3.54,6.34-8.27,6.34-14.53s-2-13.2-6-20.6A96.43,96.43,0,0,0,259,76.21,178,178,0,0,0,245.19,64a110.48,110.48,0,0,1-13.36-13.13c-6.18-7.33-12.14-16.44-12.14-26.4,0-5.91,2-10.24,5.95-12.88A10.94,10.94,0,0,1,232,9.76h4l.43,1.46c5.36,17.88,15.21,31.47,29.27,40.33,6.66,4.26,12.29,6.38,16.66,6.38a7.22,7.22,0,0,0,5.95-2.79A8.31,8.31,0,0,0,290,50c0-8.16-5.87-18-17.41-29.27-14.3-14-29-21.11-43.76-21.11-5.12,0-9.22,1.18-12.09,3.5-4.25,3.51-6.34,8.28-6.34,14.54s2,13.19,6,20.56a96.34,96.34,0,0,0,15.92,21.39,88.37,88.37,0,0,0,8,7.48,153,153,0,0,1,14.77,13,81.08,81.08,0,0,1,10.75,13.54c3.28,5.33,5.83,11.41,5.83,17.76,0,5.87-2,10.2-5.94,12.88a11,11,0,0,1-6.34,1.85h-4l-.43-1.45c-5.36-17.89-15.21-31.48-29.27-40.38-6.66-4.21-12.25-6.34-16.66-6.34a7.17,7.17,0,0,0-5.91,2.76,8.2,8.2,0,0,0-1.77,5.16C201.38,94,207.25,103.82,218.79,115.12ZM245.88,12.91C258.06,18.23,267.51,25,274,33c3.86,4.77,5.75,8.51,5.75,11.38S277.91,49,275,49A13.2,13.2,0,0,1,268,46.67,61.67,61.67,0,0,1,250.85,31c-2.88-3.78-5.44-9-7.72-15.6l-1.46-4.33ZM216.42,86.84a13.44,13.44,0,0,1,6.94,2.33,63.11,63.11,0,0,1,17.21,15.63,59.41,59.41,0,0,1,7.68,15.6l1.46,4.37-4.22-1.85c-12.17-5.28-21.62-12-28.08-20.09-3.86-4.8-5.75-8.5-5.75-11.38S213.47,86.84,216.42,86.84Z" transform="translate(-0.25 0.36)"/><path class="cls-3" d="M371.69,1041.19c-14.3-14-29-21.11-43.76-21.11-5.16,0-9.22,1.18-12.09,3.51-4.26,3.54-6.34,8.27-6.34,14.53s2,13.19,6,20.6a97.26,97.26,0,0,0,15.92,21.39c4.28,4.42,9.14,8.23,13.85,12.19a109.66,109.66,0,0,1,13.35,13.13c6.19,7.33,12.14,16.44,12.14,26.39,0,5.91-2,10.24-5.94,12.88a11,11,0,0,1-6.34,1.85h-4l-.44-1.45c-5.35-17.88-15.2-31.47-29.26-40.34-6.66-4.25-12.29-6.38-16.66-6.38a7.23,7.23,0,0,0-6,2.8,8.31,8.31,0,0,0-1.73,5.12c0,8.15,5.87,18,17.41,29.27,14.29,14,29,21.11,43.76,21.11,5.12,0,9.21-1.18,12.09-3.51,4.25-3.5,6.34-8.27,6.34-14.53s-2.05-13.2-6-20.56a95.75,95.75,0,0,0-15.91-21.39,89.83,89.83,0,0,0-8-7.49,151.61,151.61,0,0,1-14.77-13,81.59,81.59,0,0,1-10.76-13.53c-3.28-5.33-5.83-11.41-5.83-17.77,0-5.86,2-10.2,5.95-12.88a10.94,10.94,0,0,1,6.34-1.85h4l.43,1.46c5.36,17.88,15.21,31.47,29.27,40.37,6.65,4.22,12.25,6.34,16.66,6.34a7.17,7.17,0,0,0,5.91-2.75,8.22,8.22,0,0,0,1.77-5.16C389.1,1062.34,383.23,1052.5,371.69,1041.19Zm-27.1,102.21c-12.17-5.31-21.62-12.09-28.08-20.12-3.86-4.77-5.75-8.51-5.75-11.39s1.81-4.6,4.76-4.6a13.12,13.12,0,0,1,6.94,2.36,61.67,61.67,0,0,1,17.17,15.64c2.87,3.78,5.43,9,7.72,15.59l1.46,4.34Zm29.46-73.93a13.48,13.48,0,0,1-6.93-2.32,63,63,0,0,1-17.21-15.64c-2.84-3.82-5.4-9.06-7.68-15.6l-1.46-4.37,4.21,1.85c12.18,5.28,21.63,12.06,28.09,20.09,3.86,4.81,5.75,8.51,5.75,11.38S377,1069.47,374.05,1069.47Z" transform="translate(-0.25 0.36)"/><path class="cls-3" d="M200.57,1070.46a8.17,8.17,0,0,0,1.78,5.16,7.14,7.14,0,0,0,5.91,2.75c4.41,0,10-2.12,16.66-6.34,14.06-8.9,23.9-22.49,29.26-40.37l.44-1.46h4a10.94,10.94,0,0,1,6.34,1.85c3.94,2.68,5.95,7,5.95,12.88,0,6.36-2.55,12.44-5.83,17.77a81.07,81.07,0,0,1-10.76,13.53,151.49,151.49,0,0,1-14.76,13,88.59,88.59,0,0,0-8,7.49,96.05,96.05,0,0,0-15.91,21.39c-4,7.36-6,14.29-6,20.56s2.09,11,6.34,14.53c2.88,2.33,7,3.51,12.1,3.51,14.77,0,29.46-7.09,43.76-21.11,11.54-11.31,17.41-21.12,17.41-29.27a8.25,8.25,0,0,0-1.74-5.12,7.19,7.19,0,0,0-5.94-2.8c-4.38,0-10,2.13-16.66,6.38-14.07,8.87-23.91,22.46-29.27,40.34l-.43,1.45h-4a10.94,10.94,0,0,1-6.34-1.85c-3.94-2.64-6-7-6-12.88,0-10,6-19.06,12.14-26.39a109.74,109.74,0,0,1,13.36-13.13,182.32,182.32,0,0,0,13.85-12.19,97.21,97.21,0,0,0,15.91-21.39c4-7.41,6-14.34,6-20.6s-2.09-11-6.34-14.53c-2.88-2.33-6.94-3.51-12.1-3.51-14.73,0-29.46,7.09-43.76,21.11C206.44,1052.5,200.57,1062.34,200.57,1070.46Zm40.3,74.76,1.46-4.34c2.28-6.58,4.84-11.81,7.72-15.59a61.67,61.67,0,0,1,17.17-15.64,13.09,13.09,0,0,1,6.93-2.36c3,0,4.77,1.77,4.77,4.6s-1.89,6.62-5.75,11.39c-6.46,8-15.92,14.81-28.09,20.12Zm-30-80.36c0-2.87,1.88-6.57,5.75-11.38,6.45-8,15.91-14.81,28.08-20.09l4.21-1.85-1.45,4.37c-2.29,6.54-4.85,11.78-7.68,15.6a63.17,63.17,0,0,1-17.22,15.64,13.45,13.45,0,0,1-6.93,2.32C212.67,1069.47,210.86,1067.7,210.86,1064.86Z" transform="translate(-0.25 0.36)"/><path class="cls-3" d="M271.61,748.75c-14.29-14-29-21.11-43.76-21.11-5.16,0-9.21,1.18-12.09,3.5-4.25,3.55-6.34,8.28-6.34,14.54s2,13.19,6,20.6a96.89,96.89,0,0,0,15.91,21.39,182.32,182.32,0,0,0,13.85,12.19A108.94,108.94,0,0,1,258.56,813c6.19,7.33,12.15,16.44,12.15,26.39,0,5.91-2,10.24-5.95,12.88a10.94,10.94,0,0,1-6.34,1.85h-4l-.43-1.45c-5.36-17.89-15.21-31.48-29.27-40.34-6.66-4.25-12.29-6.38-16.66-6.38a7.23,7.23,0,0,0-6,2.8,8.29,8.29,0,0,0-1.73,5.12c0,8.15,5.87,18,17.41,29.26,14.3,14,29,21.12,43.76,21.12,5.12,0,9.22-1.19,12.09-3.51,4.25-3.5,6.34-8.27,6.34-14.53S278,833,274,825.64a95.88,95.88,0,0,0-15.92-21.39,88.48,88.48,0,0,0-8-7.49,151.61,151.61,0,0,1-14.77-13,81.42,81.42,0,0,1-10.75-13.53c-3.28-5.33-5.84-11.41-5.84-17.77,0-5.87,2-10.2,5.95-12.88a10.94,10.94,0,0,1,6.34-1.85h4l.43,1.46c5.36,17.88,15.21,31.47,29.27,40.37,6.66,4.22,12.25,6.34,16.66,6.34a7.17,7.17,0,0,0,5.91-2.75A8.22,8.22,0,0,0,289,778C289,769.9,283.15,760.06,271.61,748.75ZM244.52,851c-12.18-5.32-21.63-12.09-28.09-20.13-3.86-4.76-5.75-8.5-5.75-11.38s1.81-4.61,4.77-4.61a13.13,13.13,0,0,1,6.93,2.37,61.78,61.78,0,0,1,17.17,15.63c2.88,3.79,5.44,9,7.72,15.6l1.46,4.33ZM274,777a13.48,13.48,0,0,1-6.94-2.32,63,63,0,0,1-17.21-15.64,59.25,59.25,0,0,1-7.68-15.6l-1.46-4.37,4.22,1.85c12.17,5.28,21.62,12,28.08,20.09,3.86,4.81,5.75,8.51,5.75,11.38S276.93,777,274,777Z" transform="translate(-0.25 0.36)"/><path class="cls-3" d="M300.65,778a8.22,8.22,0,0,0,1.77,5.16,7.17,7.17,0,0,0,5.91,2.75c4.41,0,10-2.12,16.66-6.34,14.06-8.9,23.91-22.49,29.27-40.37l.43-1.46h4a10.94,10.94,0,0,1,6.34,1.85c3.94,2.68,5.95,7,5.95,12.88,0,6.36-2.55,12.44-5.83,17.77a82,82,0,0,1-10.76,13.53,151.61,151.61,0,0,1-14.77,13,89.83,89.83,0,0,0-8,7.49,95.52,95.52,0,0,0-15.91,21.39c-4,7.36-6,14.29-6,20.56s2.09,11,6.34,14.53c2.88,2.32,7,3.51,12.1,3.51,14.77,0,29.46-7.09,43.75-21.12,11.55-11.3,17.41-21.11,17.41-29.26a8.29,8.29,0,0,0-1.73-5.12,7.21,7.21,0,0,0-6-2.8c-4.37,0-10,2.13-16.66,6.38-14.06,8.86-23.91,22.45-29.26,40.34l-.44,1.45h-4a11,11,0,0,1-6.35-1.85c-3.93-2.64-5.94-7-5.94-12.88,0-10,5.95-19.06,12.14-26.39a109,109,0,0,1,13.36-13.13c4.7-4,9.56-7.77,13.85-12.19a97.53,97.53,0,0,0,15.91-21.39c4-7.41,6-14.34,6-20.6s-2.08-11-6.34-14.54c-2.87-2.32-6.93-3.5-12.09-3.5-14.73,0-29.46,7.09-43.76,21.11C306.52,760.06,300.65,769.9,300.65,778Zm40.29,74.75,1.46-4.33c2.29-6.58,4.85-11.81,7.72-15.6a61.67,61.67,0,0,1,17.18-15.63,13.11,13.11,0,0,1,6.93-2.37c2.95,0,4.76,1.78,4.76,4.61s-1.89,6.62-5.75,11.38c-6.46,8-15.91,14.81-28.08,20.13Zm-30-80.35c0-2.87,1.89-6.57,5.75-11.38,6.46-8,15.92-14.81,28.09-20.09L349,739.1l-1.46,4.37c-2.28,6.54-4.84,11.78-7.68,15.6a63,63,0,0,1-17.21,15.64A13.45,13.45,0,0,1,315.7,777C312.74,777,310.93,775.26,310.93,772.42Z" transform="translate(-0.25 0.36)"/><path class="cls-3" d="M318.86,992.45c14.3,14,29,21.11,43.76,21.11,5.16,0,9.22-1.18,12.1-3.51,4.25-3.54,6.34-8.27,6.34-14.53s-2-13.19-6-20.6a97.21,97.21,0,0,0-15.91-21.39,182.32,182.32,0,0,0-13.85-12.19,109.74,109.74,0,0,1-13.36-13.13c-6.18-7.33-12.14-16.44-12.14-26.39,0-5.91,2-10.24,6-12.88a10.94,10.94,0,0,1,6.34-1.85h4l.43,1.45c5.36,17.88,15.2,31.47,29.27,40.34,6.65,4.25,12.28,6.38,16.66,6.38a7.19,7.19,0,0,0,5.94-2.8,8.25,8.25,0,0,0,1.74-5.12c0-8.15-5.87-18-17.41-29.27-14.3-14-29-21.11-43.76-21.11-5.12,0-9.22,1.18-12.09,3.51-4.26,3.5-6.35,8.27-6.35,14.53s2,13.2,6,20.56A96.05,96.05,0,0,0,332.41,937a88.59,88.59,0,0,0,8,7.49,151.49,151.49,0,0,1,14.76,13,81.07,81.07,0,0,1,10.76,13.53c3.28,5.33,5.83,11.41,5.83,17.77,0,5.86-2,10.2-5.95,12.88a10.92,10.92,0,0,1-6.34,1.85h-4l-.44-1.46c-5.36-17.88-15.2-31.47-29.26-40.37-6.66-4.22-12.25-6.34-16.66-6.34a7.14,7.14,0,0,0-5.91,2.75,8.17,8.17,0,0,0-1.78,5.16C301.45,971.3,307.32,981.14,318.86,992.45ZM346,890.24c12.17,5.31,21.63,12.09,28.09,20.12,3.86,4.77,5.75,8.51,5.75,11.39s-1.81,4.6-4.77,4.6A13.09,13.09,0,0,1,368.1,924a61.67,61.67,0,0,1-17.17-15.64c-2.88-3.78-5.44-9-7.72-15.59l-1.46-4.34ZM316.5,964.17a13.45,13.45,0,0,1,6.93,2.32,63.17,63.17,0,0,1,17.22,15.64c2.83,3.82,5.39,9.06,7.68,15.6l1.45,4.37-4.21-1.85c-12.17-5.28-21.63-12.06-28.08-20.09-3.87-4.81-5.75-8.51-5.75-11.38S313.55,964.17,316.5,964.17Z" transform="translate(-0.25 0.36)"/><path class="cls-3" d="M289.83,963.18a8.17,8.17,0,0,0-1.78-5.16,7.14,7.14,0,0,0-5.91-2.75c-4.41,0-10,2.12-16.66,6.34-14.06,8.9-23.9,22.49-29.26,40.37l-.44,1.46h-4a10.94,10.94,0,0,1-6.34-1.85c-3.94-2.68-5.95-7-5.95-12.88,0-6.36,2.55-12.44,5.83-17.77a81.07,81.07,0,0,1,10.76-13.53,151.49,151.49,0,0,1,14.76-13,88.59,88.59,0,0,0,8-7.49,96.05,96.05,0,0,0,15.91-21.39c4-7.36,6-14.29,6-20.56s-2.09-11-6.35-14.53c-2.87-2.33-7-3.51-12.09-3.51-14.77,0-29.46,7.09-43.76,21.11-11.54,11.31-17.41,21.12-17.41,29.27a8.25,8.25,0,0,0,1.74,5.12,7.19,7.19,0,0,0,5.94,2.8c4.38,0,10-2.13,16.66-6.38,14.07-8.87,23.91-22.46,29.27-40.34l.43-1.45h4a10.94,10.94,0,0,1,6.34,1.85c3.94,2.64,5.95,7,5.95,12.88,0,9.95-6,19.06-12.14,26.39A109.74,109.74,0,0,1,246,941.34a182.32,182.32,0,0,0-13.85,12.19,97.21,97.21,0,0,0-15.91,21.39c-4,7.41-6,14.34-6,20.6s2.09,11,6.34,14.53c2.88,2.33,6.94,3.51,12.1,3.51,14.73,0,29.46-7.09,43.76-21.11C284,981.14,289.83,971.3,289.83,963.18Zm-40.3-74.76-1.46,4.34c-2.28,6.58-4.84,11.81-7.72,15.59A61.67,61.67,0,0,1,223.18,924a13.09,13.09,0,0,1-6.93,2.36c-3,0-4.77-1.77-4.77-4.6s1.89-6.62,5.75-11.39c6.46-8,15.92-14.81,28.09-20.12Zm30,80.36c0,2.87-1.88,6.57-5.75,11.38-6.45,8-15.91,14.81-28.08,20.09l-4.21,1.85,1.45-4.37c2.29-6.54,4.85-11.78,7.68-15.6a63.17,63.17,0,0,1,17.22-15.64,13.45,13.45,0,0,1,6.93-2.32C277.73,964.17,279.54,965.94,279.54,968.78Z" transform="translate(-0.25 0.36)"/><path class="cls-3" d="M389.9,670.74a8.22,8.22,0,0,0-1.77-5.16,7.17,7.17,0,0,0-5.91-2.76c-4.41,0-10,2.13-16.66,6.35-14.06,8.9-23.91,22.49-29.27,40.37l-.43,1.46h-4a10.9,10.9,0,0,1-6.34-1.86c-3.93-2.67-5.94-7-5.94-12.88,0-6.35,2.55-12.43,5.83-17.76A80.61,80.61,0,0,1,336.18,665,153.06,153.06,0,0,1,351,652a88.37,88.37,0,0,0,8-7.48,96.34,96.34,0,0,0,15.92-21.39c4-7.36,6-14.3,6-20.56s-2.09-11-6.34-14.53c-2.87-2.33-7-3.51-12.09-3.51-14.77,0-29.46,7.09-43.76,21.11-11.54,11.31-17.41,21.11-17.41,29.27A8.31,8.31,0,0,0,303,640a7.23,7.23,0,0,0,5.95,2.8c4.37,0,10-2.13,16.66-6.39,14.06-8.86,23.91-22.45,29.27-40.33l.43-1.46h4a10.94,10.94,0,0,1,6.34,1.85c3.94,2.64,5.95,7,5.95,12.88,0,10-6,19.07-12.14,26.4a109.74,109.74,0,0,1-13.36,13.13,180.15,180.15,0,0,0-13.85,12.19,96.89,96.89,0,0,0-15.91,21.39c-4,7.4-6,14.34-6,20.6s2.09,11,6.34,14.53c2.88,2.33,6.93,3.51,12.09,3.51,14.73,0,29.47-7.09,43.76-21.11C384,688.7,389.9,678.86,389.9,670.74ZM349.61,596l-1.46,4.34c-2.28,6.57-4.84,11.81-7.72,15.59a61.67,61.67,0,0,1-17.17,15.64,13.11,13.11,0,0,1-6.93,2.36c-3,0-4.77-1.77-4.77-4.6s1.89-6.62,5.75-11.39c6.46-8,15.91-14.81,28.09-20.12Zm30,80.35c0,2.88-1.89,6.58-5.75,11.39-6.46,8-15.91,14.81-28.08,20.09l-4.22,1.85,1.46-4.38a59.33,59.33,0,0,1,7.68-15.59,63,63,0,0,1,17.21-15.64,13.42,13.42,0,0,1,6.94-2.32C377.81,671.73,379.62,673.5,379.62,676.33Z" transform="translate(-0.25 0.36)"/><path class="cls-3" d="M218.79,700c14.29,14,29,21.11,43.76,21.11,5.16,0,9.21-1.18,12.09-3.51,4.25-3.54,6.34-8.27,6.34-14.53s-2-13.2-6-20.6A96.89,96.89,0,0,0,259,661.09a180.15,180.15,0,0,0-13.85-12.19,109.74,109.74,0,0,1-13.36-13.13c-6.18-7.33-12.14-16.44-12.14-26.4,0-5.9,2-10.24,5.95-12.88a10.94,10.94,0,0,1,6.34-1.85h4l.43,1.46c5.36,17.88,15.21,31.47,29.27,40.33,6.66,4.26,12.29,6.39,16.66,6.39a7.23,7.23,0,0,0,5.95-2.8A8.31,8.31,0,0,0,290,634.9c0-8.16-5.87-18-17.41-29.27-14.3-14-29-21.11-43.76-21.11-5.12,0-9.22,1.18-12.09,3.51-4.25,3.5-6.34,8.27-6.34,14.53s2,13.2,6,20.56a96.34,96.34,0,0,0,15.92,21.39,88.37,88.37,0,0,0,8,7.48,153.06,153.06,0,0,1,14.77,13,80.61,80.61,0,0,1,10.75,13.53c3.28,5.33,5.83,11.41,5.83,17.76,0,5.87-2,10.21-5.94,12.88A10.9,10.9,0,0,1,259.4,711h-4l-.43-1.46c-5.36-17.88-15.21-31.47-29.27-40.37-6.66-4.22-12.25-6.35-16.66-6.35a7.17,7.17,0,0,0-5.91,2.76,8.22,8.22,0,0,0-1.77,5.16C201.38,678.86,207.25,688.7,218.79,700ZM245.88,597.8c12.18,5.31,21.63,12.09,28.09,20.12,3.86,4.77,5.75,8.51,5.75,11.39s-1.81,4.6-4.77,4.6a13.11,13.11,0,0,1-6.93-2.36,61.67,61.67,0,0,1-17.17-15.64c-2.88-3.78-5.44-9-7.72-15.59L241.67,596Zm-29.46,73.93a13.42,13.42,0,0,1,6.94,2.32,63,63,0,0,1,17.21,15.64,59.33,59.33,0,0,1,7.68,15.59l1.46,4.38-4.22-1.85c-12.17-5.28-21.62-12.06-28.08-20.09-3.86-4.81-5.75-8.51-5.75-11.39S213.47,671.73,216.42,671.73Z" transform="translate(-0.25 0.36)"/><path class="cls-3" d="M171.54,456.31c-14.3-14-29-21.11-43.76-21.11-5.16,0-9.22,1.18-12.1,3.5-4.25,3.55-6.34,8.27-6.34,14.54s2,13.19,6,20.6a96.93,96.93,0,0,0,15.91,21.38,180.28,180.28,0,0,0,13.85,12.2,109,109,0,0,1,13.36,13.13c6.18,7.33,12.14,16.44,12.14,26.39,0,5.91-2,10.24-5.95,12.88a10.94,10.94,0,0,1-6.34,1.85h-4l-.43-1.46c-5.36-17.88-15.2-31.47-29.27-40.33-6.65-4.25-12.28-6.38-16.66-6.38a7.19,7.19,0,0,0-5.94,2.8,8.23,8.23,0,0,0-1.74,5.12c0,8.15,5.87,18,17.41,29.26,14.3,14,29,21.11,43.76,21.11,5.12,0,9.22-1.18,12.09-3.5,4.26-3.51,6.35-8.27,6.35-14.54s-2.05-13.19-6-20.56A96,96,0,0,0,158,511.81a87.19,87.19,0,0,0-8-7.49,151.49,151.49,0,0,1-14.76-13,81.14,81.14,0,0,1-10.76-13.54c-3.28-5.33-5.83-11.41-5.83-17.76,0-5.87,2-10.2,6-12.88a10.92,10.92,0,0,1,6.34-1.85h4l.44,1.46c5.36,17.88,15.2,31.47,29.26,40.37,6.66,4.21,12.25,6.34,16.66,6.34a7.12,7.12,0,0,0,5.91-2.76,8.15,8.15,0,0,0,1.78-5.16C189,477.46,183.08,467.61,171.54,456.31Zm-27.1,102.21c-12.17-5.32-21.63-12.09-28.09-20.13-3.86-4.76-5.75-8.5-5.75-11.38s1.81-4.61,4.77-4.61a13.11,13.11,0,0,1,6.93,2.37,61.63,61.63,0,0,1,17.17,15.63c2.88,3.78,5.44,9,7.72,15.6l1.46,4.33Zm29.46-73.93a13.45,13.45,0,0,1-6.93-2.32,63.17,63.17,0,0,1-17.22-15.64c-2.83-3.82-5.39-9.06-7.68-15.6l-1.45-4.37,4.21,1.85c12.17,5.28,21.63,12.05,28.08,20.09,3.87,4.8,5.75,8.51,5.75,11.38S176.85,484.59,173.9,484.59Z" transform="translate(-0.25 0.36)"/><path class="cls-3" d="M.42,485.57a8.2,8.2,0,0,0,1.77,5.16,7.15,7.15,0,0,0,5.91,2.76c4.41,0,10-2.13,16.66-6.34,14.06-8.9,23.91-22.49,29.27-40.37l.43-1.46h4a10.94,10.94,0,0,1,6.34,1.85c3.94,2.68,6,7,6,12.88,0,6.35-2.55,12.43-5.84,17.76a81.08,81.08,0,0,1-10.75,13.54,151.61,151.61,0,0,1-14.77,13,88.39,88.39,0,0,0-8,7.49,95.7,95.7,0,0,0-15.91,21.38c-4,7.37-6,14.3-6,20.56s2.09,11,6.34,14.54c2.88,2.32,7,3.5,12.09,3.5,14.77,0,29.47-7.09,43.76-21.11C83.17,539.38,89,529.57,89,521.42a8.29,8.29,0,0,0-1.73-5.12,7.23,7.23,0,0,0-6-2.8c-4.37,0-10,2.13-16.66,6.38-14.06,8.86-23.91,22.45-29.26,40.33L35,561.67H31a11,11,0,0,1-6.34-1.85c-3.94-2.64-5.95-7-5.95-12.88,0-10,6-19.06,12.15-26.39a108.93,108.93,0,0,1,13.35-13.13c4.71-4,9.57-7.77,13.85-12.2A97,97,0,0,0,74,473.84c4-7.41,6-14.34,6-20.6s-2.08-11-6.34-14.54c-2.87-2.32-6.93-3.5-12.09-3.5-14.73,0-29.46,7.09-43.76,21.11C6.29,467.61.42,477.46.42,485.57Zm40.29,74.76L42.17,556c2.29-6.58,4.85-11.82,7.72-15.6a61.63,61.63,0,0,1,17.17-15.63A13.14,13.14,0,0,1,74,522.4c3,0,4.76,1.77,4.76,4.61s-1.89,6.62-5.75,11.38c-6.46,8-15.91,14.81-28.08,20.13ZM10.7,480c0-2.87,1.89-6.58,5.75-11.38,6.46-8,15.91-14.81,28.08-20.09l4.22-1.85L47.29,451c-2.28,6.54-4.84,11.78-7.68,15.6A63,63,0,0,1,22.4,482.27a13.48,13.48,0,0,1-6.93,2.32C12.51,484.59,10.7,482.82,10.7,480Z" transform="translate(-0.25 0.36)"/><path class="cls-3" d="M71.46,163.87c-14.3-14-29-21.11-43.76-21.11-5.16,0-9.22,1.18-12.09,3.5-4.26,3.55-6.34,8.27-6.34,14.54s2,13.19,6,20.6A97.24,97.24,0,0,0,31.2,202.78,180.28,180.28,0,0,0,45.05,215a108.31,108.31,0,0,1,13.36,13.13c6.19,7.33,12.14,16.44,12.14,26.39,0,5.91-2,10.24-6,12.88a10.92,10.92,0,0,1-6.34,1.85h-4l-.43-1.46c-5.35-17.88-15.2-31.47-29.26-40.33-6.66-4.25-12.29-6.38-16.66-6.38A7.2,7.2,0,0,0,2,223.86,8.29,8.29,0,0,0,.25,229c0,8.15,5.86,18,17.4,29.26,14.3,14,29,21.11,43.76,21.11,5.13,0,9.22-1.18,12.1-3.5,4.25-3.51,6.34-8.27,6.34-14.54s-2-13.19-6-20.56a96,96,0,0,0-15.91-21.38,87.19,87.19,0,0,0-8-7.49,154,154,0,0,1-14.76-13,81.66,81.66,0,0,1-10.76-13.54C21.11,180,18.56,174,18.56,167.61c0-5.87,2-10.2,6-12.88a10.94,10.94,0,0,1,6.34-1.85h4l.43,1.46c5.36,17.88,15.21,31.47,29.27,40.37,6.65,4.21,12.24,6.34,16.66,6.34a7.14,7.14,0,0,0,5.9-2.76,8.15,8.15,0,0,0,1.78-5.16C88.87,185,83,175.17,71.46,163.87ZM44.36,266.08C32.19,260.76,22.74,254,16.28,246c-3.86-4.76-5.75-8.51-5.75-11.38S12.34,230,15.29,230a13.17,13.17,0,0,1,6.93,2.36A61.7,61.7,0,0,1,39.4,248c2.87,3.78,5.43,9,7.72,15.6l1.45,4.33Zm29.46-73.93a13.38,13.38,0,0,1-6.93-2.33,63,63,0,0,1-17.21-15.63c-2.84-3.82-5.4-9.06-7.68-15.6l-1.46-4.37,4.21,1.85c12.17,5.28,21.63,12.05,28.09,20.09,3.86,4.8,5.75,8.51,5.75,11.38S76.77,192.15,73.82,192.15Z" transform="translate(-0.25 0.36)"/><path class="cls-3" d="M100.5,193.13a8.2,8.2,0,0,0,1.77,5.16,7.17,7.17,0,0,0,5.91,2.76c4.41,0,10-2.13,16.66-6.34,14.06-8.9,23.91-22.49,29.27-40.37l.43-1.46h4a11,11,0,0,1,6.35,1.85c3.93,2.68,5.94,7,5.94,12.88,0,6.35-2.55,12.43-5.83,17.76a81.08,81.08,0,0,1-10.75,13.54,153,153,0,0,1-14.77,13,87.07,87.07,0,0,0-8,7.49,96.05,96.05,0,0,0-15.92,21.38c-4,7.37-6,14.3-6,20.56s2.09,11,6.34,14.54c2.87,2.32,7,3.5,12.09,3.5,14.77,0,29.46-7.09,43.76-21.11,11.54-11.3,17.41-21.11,17.41-29.26a8.29,8.29,0,0,0-1.73-5.12,7.23,7.23,0,0,0-5.95-2.8c-4.37,0-10,2.13-16.66,6.38-14.06,8.86-23.91,22.45-29.27,40.33l-.43,1.46h-4a10.94,10.94,0,0,1-6.34-1.85c-3.94-2.64-6-7-6-12.88,0-9.95,6-19.06,12.14-26.39A109,109,0,0,1,144.31,215a180.28,180.28,0,0,0,13.85-12.2,96.61,96.61,0,0,0,15.91-21.38c4-7.41,6-14.34,6-20.6s-2.09-11-6.34-14.54c-2.88-2.32-6.93-3.5-12.09-3.5-14.73,0-29.47,7.09-43.76,21.11C106.37,175.17,100.5,185,100.5,193.13Zm40.29,74.76,1.46-4.33c2.28-6.58,4.84-11.82,7.72-15.6a61.67,61.67,0,0,1,17.17-15.64,13.2,13.2,0,0,1,6.93-2.36c3,0,4.77,1.77,4.77,4.61S177,241.19,173.09,246c-6.46,8-15.91,14.81-28.09,20.13Zm-30-80.35c0-2.87,1.89-6.58,5.75-11.38,6.46-8,15.91-14.81,28.08-20.09l4.22-1.85-1.46,4.37a59.25,59.25,0,0,1-7.68,15.6,63,63,0,0,1-17.21,15.63,13.44,13.44,0,0,1-6.94,2.33C112.59,192.15,110.78,190.38,110.78,187.54Z" transform="translate(-0.25 0.36)"/><path class="cls-3" d="M118.71,407.56c14.3,14,29,21.12,43.76,21.12,5.16,0,9.22-1.18,12.09-3.51,4.26-3.54,6.34-8.27,6.34-14.53s-2-13.2-6-20.6A97,97,0,0,0,159,368.65c-4.28-4.43-9.14-8.24-13.85-12.19a109.66,109.66,0,0,1-13.35-13.13c-6.19-7.33-12.15-16.44-12.15-26.4,0-5.9,2-10.24,6-12.88a11,11,0,0,1,6.34-1.85h4l.44,1.46c5.35,17.88,15.2,31.47,29.26,40.33,6.66,4.26,12.29,6.38,16.66,6.38a7.22,7.22,0,0,0,5.95-2.79,8.31,8.31,0,0,0,1.73-5.12c0-8.16-5.87-18-17.41-29.27-14.29-14-29-21.11-43.76-21.11-5.12,0-9.21,1.18-12.09,3.51-4.25,3.5-6.34,8.27-6.34,14.53s2.05,13.19,6,20.56a96,96,0,0,0,15.91,21.39,89.72,89.72,0,0,0,8,7.48,151.71,151.71,0,0,1,14.77,13,81.17,81.17,0,0,1,10.76,13.53c3.28,5.33,5.83,11.41,5.83,17.76,0,5.87-2,10.2-6,12.88a10.94,10.94,0,0,1-6.34,1.85h-4l-.43-1.45c-5.36-17.89-15.21-31.47-29.27-40.38-6.65-4.21-12.25-6.34-16.66-6.34a7.17,7.17,0,0,0-5.91,2.76,8.22,8.22,0,0,0-1.77,5.16C101.3,386.41,107.17,396.26,118.71,407.56Zm27.1-102.21c12.17,5.32,21.62,12.1,28.08,20.13,3.86,4.77,5.75,8.51,5.75,11.38s-1.81,4.61-4.76,4.61a13.2,13.2,0,0,1-6.94-2.36,61.67,61.67,0,0,1-17.17-15.64c-2.87-3.78-5.43-9-7.72-15.6l-1.46-4.33Zm-29.46,73.93a13.41,13.41,0,0,1,6.93,2.33,63,63,0,0,1,17.21,15.64c2.84,3.82,5.4,9.05,7.68,15.59l1.46,4.37-4.22-1.85c-12.17-5.27-21.62-12.05-28.08-20.08-3.86-4.81-5.75-8.51-5.75-11.39S113.39,379.28,116.35,379.28Z" transform="translate(-0.25 0.36)"/><path class="cls-3" d="M89.67,378.3a8.22,8.22,0,0,0-1.77-5.16A7.17,7.17,0,0,0,82,370.38c-4.41,0-10,2.13-16.66,6.34-14.06,8.91-23.91,22.49-29.27,40.38l-.43,1.45h-4a10.94,10.94,0,0,1-6.34-1.85c-3.94-2.68-5.95-7-5.95-12.88,0-6.35,2.55-12.43,5.84-17.76A80.61,80.61,0,0,1,36,372.53a151.71,151.71,0,0,1,14.77-13,89.72,89.72,0,0,0,8-7.48,96,96,0,0,0,15.91-21.39c4-7.37,6-14.3,6-20.56s-2.09-11-6.34-14.53c-2.87-2.33-7-3.51-12.09-3.51-14.77,0-29.46,7.09-43.76,21.11C6.92,324.5,1.05,334.3,1.05,342.46a8.31,8.31,0,0,0,1.73,5.12,7.22,7.22,0,0,0,6,2.79c4.37,0,10-2.12,16.66-6.38,14.06-8.86,23.91-22.45,29.26-40.33l.44-1.46h4a11,11,0,0,1,6.34,1.85c3.94,2.64,6,7,6,12.88,0,10-6,19.07-12.15,26.4a109.66,109.66,0,0,1-13.35,13.13c-4.71,4-9.57,7.76-13.85,12.19A97,97,0,0,0,16.09,390c-4,7.4-6,14.33-6,20.6s2.09,11,6.34,14.53c2.87,2.33,6.93,3.51,12.09,3.51,14.73,0,29.46-7.09,43.76-21.12C83.8,396.26,89.67,386.41,89.67,378.3ZM49.38,303.54l-1.46,4.33c-2.29,6.58-4.84,11.82-7.72,15.6A61.67,61.67,0,0,1,23,339.11a13.2,13.2,0,0,1-6.94,2.36c-2.95,0-4.76-1.77-4.76-4.61s1.89-6.61,5.75-11.38c6.46-8,15.91-14.81,28.08-20.13Zm30,80.35c0,2.88-1.89,6.58-5.75,11.39-6.46,8-15.91,14.81-28.08,20.08l-4.22,1.85,1.46-4.37c2.28-6.54,4.84-11.77,7.68-15.59a63,63,0,0,1,17.21-15.64,13.41,13.41,0,0,1,6.93-2.33C77.58,379.28,79.39,381.06,79.39,383.89Z" transform="translate(-0.25 0.36)"/><path class="cls-3" d="M189.75,85.86A8.2,8.2,0,0,0,188,80.7a7.17,7.17,0,0,0-5.91-2.76c-4.41,0-10,2.13-16.66,6.34-14.06,8.9-23.91,22.49-29.27,40.38l-.43,1.45h-4a10.94,10.94,0,0,1-6.34-1.85c-3.94-2.68-6-7-6-12.88,0-6.35,2.55-12.43,5.83-17.76A81.66,81.66,0,0,1,136,80.08a154,154,0,0,1,14.76-13,88.49,88.49,0,0,0,8-7.48A96,96,0,0,0,174.7,38.24c4-7.37,6-14.3,6-20.56s-2.09-11-6.34-14.54c-2.88-2.32-7-3.5-12.1-3.5-14.77,0-29.46,7.09-43.76,21.11C107,32.05,101.13,41.86,101.13,50a8.31,8.31,0,0,0,1.73,5.12,7.2,7.2,0,0,0,6,2.79c4.37,0,10-2.12,16.66-6.38,14.06-8.86,23.91-22.45,29.26-40.33l.43-1.46h4a10.92,10.92,0,0,1,6.34,1.85c3.94,2.64,6,7,6,12.88,0,10-6,19.07-12.14,26.4A109.75,109.75,0,0,1,145.93,64c-4.7,4-9.56,7.76-13.85,12.19A97.06,97.06,0,0,0,116.17,97.6c-4,7.4-6,14.33-6,20.6s2.08,11,6.34,14.53c2.87,2.32,6.93,3.51,12.09,3.51,14.73,0,29.46-7.09,43.76-21.12C183.88,103.82,189.75,94,189.75,85.86ZM149.45,11.1,148,15.43c-2.29,6.58-4.85,11.82-7.72,15.6A61.7,61.7,0,0,1,123.1,46.67,13.17,13.17,0,0,1,116.17,49c-3,0-4.76-1.77-4.76-4.61s1.89-6.61,5.75-11.38c6.46-8,15.91-14.81,28.08-20.13Zm30,80.35c0,2.88-1.89,6.58-5.75,11.38-6.46,8-15.92,14.81-28.09,20.09l-4.21,1.85,1.46-4.37a59.1,59.1,0,0,1,7.68-15.6,63.11,63.11,0,0,1,17.21-15.63,13.38,13.38,0,0,1,6.93-2.33C177.66,86.84,179.47,88.62,179.47,91.45Z" transform="translate(-0.25 0.36)"/><path class="cls-3" d="M18.63,115.12c14.3,14,29,21.12,43.76,21.12,5.16,0,9.22-1.19,12.09-3.51,4.26-3.54,6.35-8.27,6.35-14.53s-2-13.2-6-20.6A96.74,96.74,0,0,0,58.89,76.21,178,178,0,0,0,45,64,109.75,109.75,0,0,1,31.68,50.89c-6.18-7.33-12.14-16.44-12.14-26.4,0-5.91,2-10.24,5.95-12.88a10.92,10.92,0,0,1,6.34-1.85h4l.43,1.46C41.6,29.1,51.44,42.69,65.5,51.55c6.66,4.26,12.29,6.38,16.66,6.38a7.19,7.19,0,0,0,6-2.79A8.32,8.32,0,0,0,89.85,50c0-8.16-5.87-18-17.41-29.27-14.3-14-29-21.11-43.76-21.11-5.12,0-9.22,1.18-12.1,3.5-4.25,3.51-6.34,8.28-6.34,14.54s2,13.19,6,20.56A96.28,96.28,0,0,0,32.18,59.63a88.49,88.49,0,0,0,8,7.48,154,154,0,0,1,14.76,13A81.66,81.66,0,0,1,65.7,93.62C69,99,71.53,105,71.53,111.38c0,5.87-2,10.2-6,12.88a10.94,10.94,0,0,1-6.34,1.85h-4l-.43-1.45c-5.36-17.89-15.2-31.48-29.27-40.38-6.65-4.21-12.24-6.34-16.66-6.34A7.14,7.14,0,0,0,3,80.7a8.15,8.15,0,0,0-1.78,5.16C1.22,94,7.09,103.82,18.63,115.12ZM45.73,12.91C57.9,18.23,67.35,25,73.82,33c3.86,4.77,5.75,8.51,5.75,11.38S77.75,49,74.8,49a13.17,13.17,0,0,1-6.93-2.36A61.84,61.84,0,0,1,50.69,31c-2.87-3.78-5.43-9-7.72-15.6L41.52,11.1ZM16.27,86.84a13.38,13.38,0,0,1,6.93,2.33A63.11,63.11,0,0,1,40.41,104.8a59.1,59.1,0,0,1,7.68,15.6l1.46,4.37-4.21-1.85c-12.17-5.28-21.63-12-28.09-20.09-3.86-4.8-5.75-8.5-5.75-11.38S13.32,86.84,16.27,86.84Z" transform="translate(-0.25 0.36)"/><path class="cls-3" d="M171.54,1041.19c-14.3-14-29-21.11-43.76-21.11-5.16,0-9.22,1.18-12.1,3.51-4.25,3.54-6.34,8.27-6.34,14.53s2,13.19,6,20.6a97.21,97.21,0,0,0,15.91,21.39,182.32,182.32,0,0,0,13.85,12.19,109.74,109.74,0,0,1,13.36,13.13c6.18,7.33,12.14,16.44,12.14,26.39,0,5.91-2,10.24-5.95,12.88a10.94,10.94,0,0,1-6.34,1.85h-4l-.43-1.45c-5.36-17.88-15.2-31.47-29.27-40.34-6.65-4.25-12.28-6.38-16.66-6.38a7.19,7.19,0,0,0-5.94,2.8,8.25,8.25,0,0,0-1.74,5.12c0,8.15,5.87,18,17.41,29.27,14.3,14,29,21.11,43.76,21.11,5.12,0,9.22-1.18,12.09-3.51,4.26-3.5,6.35-8.27,6.35-14.53s-2.05-13.2-6-20.56A96.05,96.05,0,0,0,158,1096.69a88.59,88.59,0,0,0-8-7.49,151.49,151.49,0,0,1-14.76-13,81.07,81.07,0,0,1-10.76-13.53c-3.28-5.33-5.83-11.41-5.83-17.77,0-5.86,2-10.2,6-12.88a10.92,10.92,0,0,1,6.34-1.85h4l.44,1.46c5.36,17.88,15.2,31.47,29.26,40.37,6.66,4.22,12.25,6.34,16.66,6.34a7.14,7.14,0,0,0,5.91-2.75,8.17,8.17,0,0,0,1.78-5.16C189,1062.34,183.08,1052.5,171.54,1041.19Zm-27.1,102.21c-12.17-5.31-21.63-12.09-28.09-20.12-3.86-4.77-5.75-8.51-5.75-11.39s1.81-4.6,4.77-4.6a13.09,13.09,0,0,1,6.93,2.36,61.67,61.67,0,0,1,17.17,15.64c2.88,3.78,5.44,9,7.72,15.59l1.46,4.34Zm29.46-73.93a13.45,13.45,0,0,1-6.93-2.32,63.17,63.17,0,0,1-17.22-15.64c-2.83-3.82-5.39-9.06-7.68-15.6l-1.45-4.37,4.21,1.85c12.17,5.28,21.63,12.06,28.08,20.09,3.87,4.81,5.75,8.51,5.75,11.38S176.85,1069.47,173.9,1069.47Z" transform="translate(-0.25 0.36)"/><path class="cls-3" d="M.42,1070.46a8.22,8.22,0,0,0,1.77,5.16,7.17,7.17,0,0,0,5.91,2.75c4.41,0,10-2.12,16.66-6.34,14.06-8.9,23.91-22.49,29.27-40.37l.43-1.46h4a10.94,10.94,0,0,1,6.34,1.85c3.94,2.68,6,7,6,12.88,0,6.36-2.55,12.44-5.84,17.77a81,81,0,0,1-10.75,13.53,151.61,151.61,0,0,1-14.77,13,89.83,89.83,0,0,0-8,7.49,95.75,95.75,0,0,0-15.91,21.39c-4,7.36-6,14.29-6,20.56s2.09,11,6.34,14.53c2.88,2.33,7,3.51,12.09,3.51,14.77,0,29.47-7.09,43.76-21.11C83.17,1124.26,89,1114.45,89,1106.3a8.31,8.31,0,0,0-1.73-5.12,7.23,7.23,0,0,0-6-2.8c-4.37,0-10,2.13-16.66,6.38-14.06,8.87-23.91,22.46-29.26,40.34l-.44,1.45H31a11,11,0,0,1-6.34-1.85c-3.94-2.64-5.95-7-5.95-12.88,0-10,6-19.06,12.15-26.39a109.66,109.66,0,0,1,13.35-13.13c4.71-4,9.57-7.77,13.85-12.19A97.26,97.26,0,0,0,74,1058.72c4-7.41,6-14.34,6-20.6s-2.08-11-6.34-14.53c-2.87-2.33-6.93-3.51-12.09-3.51-14.73,0-29.46,7.09-43.76,21.11C6.29,1052.5.42,1062.34.42,1070.46Zm40.29,74.76,1.46-4.34c2.29-6.58,4.85-11.81,7.72-15.59a61.67,61.67,0,0,1,17.17-15.64,13.12,13.12,0,0,1,6.94-2.36c3,0,4.76,1.77,4.76,4.6s-1.89,6.62-5.75,11.39c-6.46,8-15.91,14.81-28.08,20.12Zm-30-80.36c0-2.87,1.89-6.57,5.75-11.38,6.46-8,15.91-14.81,28.08-20.09l4.22-1.85-1.46,4.37c-2.28,6.54-4.84,11.78-7.68,15.6a63,63,0,0,1-17.21,15.64,13.48,13.48,0,0,1-6.93,2.32C12.51,1069.47,10.7,1067.7,10.7,1064.86Z" transform="translate(-0.25 0.36)"/><path class="cls-3" d="M71.46,748.75c-14.3-14-29-21.11-43.76-21.11-5.16,0-9.22,1.18-12.09,3.5-4.26,3.55-6.34,8.28-6.34,14.54s2,13.19,6,20.6A97.53,97.53,0,0,0,31.2,787.67a182.32,182.32,0,0,0,13.85,12.19A109,109,0,0,1,58.41,813c6.19,7.33,12.14,16.44,12.14,26.39,0,5.91-2,10.24-6,12.88a10.92,10.92,0,0,1-6.34,1.85h-4l-.43-1.45c-5.35-17.89-15.2-31.48-29.26-40.34-6.66-4.25-12.29-6.38-16.66-6.38A7.2,7.2,0,0,0,2,808.74a8.29,8.29,0,0,0-1.73,5.12c0,8.15,5.86,18,17.4,29.26,14.3,14,29,21.12,43.76,21.12,5.13,0,9.22-1.19,12.1-3.51,4.25-3.5,6.34-8.27,6.34-14.53s-2-13.2-6-20.56a95.83,95.83,0,0,0-15.91-21.39,88.59,88.59,0,0,0-8-7.49,152.67,152.67,0,0,1-14.76-13,82,82,0,0,1-10.76-13.53c-3.28-5.33-5.83-11.41-5.83-17.77,0-5.87,2-10.2,6-12.88a10.94,10.94,0,0,1,6.34-1.85h4l.43,1.46c5.36,17.88,15.21,31.47,29.27,40.37,6.65,4.22,12.24,6.34,16.66,6.34a7.13,7.13,0,0,0,5.9-2.75A8.17,8.17,0,0,0,88.87,778C88.87,769.9,83,760.06,71.46,748.75ZM44.36,851c-12.17-5.32-21.62-12.09-28.08-20.13-3.86-4.76-5.75-8.5-5.75-11.38s1.81-4.61,4.76-4.61a13.11,13.11,0,0,1,6.93,2.37A61.81,61.81,0,0,1,39.4,832.84c2.87,3.79,5.43,9,7.72,15.6l1.45,4.33ZM73.82,777a13.45,13.45,0,0,1-6.93-2.32,63,63,0,0,1-17.21-15.64c-2.84-3.82-5.4-9.06-7.68-15.6l-1.46-4.37L44.75,741c12.17,5.28,21.63,12,28.09,20.09,3.86,4.81,5.75,8.51,5.75,11.38S76.77,777,73.82,777Z" transform="translate(-0.25 0.36)"/><path class="cls-3" d="M100.5,778a8.22,8.22,0,0,0,1.77,5.16,7.17,7.17,0,0,0,5.91,2.75c4.41,0,10-2.12,16.66-6.34,14.06-8.9,23.91-22.49,29.27-40.37l.43-1.46h4a11,11,0,0,1,6.35,1.85c3.93,2.68,5.94,7,5.94,12.88,0,6.36-2.55,12.44-5.83,17.77a81.42,81.42,0,0,1-10.75,13.53,151.61,151.61,0,0,1-14.77,13,88.48,88.48,0,0,0-8,7.49,95.88,95.88,0,0,0-15.92,21.39c-4,7.36-6,14.29-6,20.56s2.09,11,6.34,14.53c2.87,2.32,7,3.51,12.09,3.51,14.77,0,29.46-7.09,43.76-21.12,11.54-11.3,17.41-21.11,17.41-29.26a8.29,8.29,0,0,0-1.73-5.12,7.23,7.23,0,0,0-5.95-2.8c-4.37,0-10,2.13-16.66,6.38-14.06,8.86-23.91,22.45-29.27,40.34l-.43,1.45h-4a10.94,10.94,0,0,1-6.34-1.85c-3.94-2.64-6-7-6-12.88,0-10,6-19.06,12.14-26.39a109.74,109.74,0,0,1,13.36-13.13,182.32,182.32,0,0,0,13.85-12.19,96.89,96.89,0,0,0,15.91-21.39c4-7.41,6-14.34,6-20.6s-2.09-11-6.34-14.54c-2.88-2.32-6.93-3.5-12.09-3.5-14.73,0-29.47,7.09-43.76,21.11C106.37,760.06,100.5,769.9,100.5,778Zm40.29,74.75,1.46-4.33c2.28-6.58,4.84-11.81,7.72-15.6a61.78,61.78,0,0,1,17.17-15.63,13.13,13.13,0,0,1,6.93-2.37c3,0,4.77,1.78,4.77,4.61s-1.89,6.62-5.75,11.38c-6.46,8-15.91,14.81-28.09,20.13Zm-30-80.35c0-2.87,1.89-6.57,5.75-11.38,6.46-8,15.91-14.81,28.08-20.09l4.22-1.85-1.46,4.37a59.25,59.25,0,0,1-7.68,15.6,63,63,0,0,1-17.21,15.64,13.51,13.51,0,0,1-6.94,2.32C112.59,777,110.78,775.26,110.78,772.42Z" transform="translate(-0.25 0.36)"/><path class="cls-3" d="M118.71,992.45c14.3,14,29,21.11,43.76,21.11,5.16,0,9.22-1.18,12.09-3.51,4.26-3.54,6.34-8.27,6.34-14.53s-2-13.19-6-20.6A97.26,97.26,0,0,0,159,953.53c-4.28-4.42-9.14-8.23-13.85-12.19a109.66,109.66,0,0,1-13.35-13.13c-6.19-7.33-12.15-16.44-12.15-26.39,0-5.91,2-10.24,6-12.88a11,11,0,0,1,6.34-1.85h4l.44,1.45c5.35,17.88,15.2,31.47,29.26,40.34,6.66,4.25,12.29,6.38,16.66,6.38a7.23,7.23,0,0,0,5.95-2.8,8.31,8.31,0,0,0,1.73-5.12c0-8.15-5.87-18-17.41-29.27-14.29-14-29-21.11-43.76-21.11-5.12,0-9.21,1.18-12.09,3.51-4.25,3.5-6.34,8.27-6.34,14.53s2.05,13.2,6,20.56A95.75,95.75,0,0,0,132.26,937a89.83,89.83,0,0,0,8,7.49,151.61,151.61,0,0,1,14.77,13,81.59,81.59,0,0,1,10.76,13.53c3.28,5.33,5.83,11.41,5.83,17.77,0,5.86-2,10.2-6,12.88a10.94,10.94,0,0,1-6.34,1.85h-4l-.43-1.46c-5.36-17.88-15.21-31.47-29.27-40.37-6.65-4.22-12.25-6.34-16.66-6.34a7.17,7.17,0,0,0-5.91,2.75,8.22,8.22,0,0,0-1.77,5.16C101.3,971.3,107.17,981.14,118.71,992.45Zm27.1-102.21c12.17,5.31,21.62,12.09,28.08,20.12,3.86,4.77,5.75,8.51,5.75,11.39s-1.81,4.6-4.76,4.6a13.12,13.12,0,0,1-6.94-2.36,61.67,61.67,0,0,1-17.17-15.64c-2.87-3.78-5.43-9-7.72-15.59l-1.46-4.34Zm-29.46,73.93a13.48,13.48,0,0,1,6.93,2.32,63,63,0,0,1,17.21,15.64c2.84,3.82,5.4,9.06,7.68,15.6l1.46,4.37-4.22-1.85c-12.17-5.28-21.62-12.06-28.08-20.09-3.86-4.81-5.75-8.51-5.75-11.38S113.39,964.17,116.35,964.17Z" transform="translate(-0.25 0.36)"/><path class="cls-3" d="M89.67,963.18A8.22,8.22,0,0,0,87.9,958,7.17,7.17,0,0,0,82,955.27c-4.41,0-10,2.12-16.66,6.34-14.06,8.9-23.91,22.49-29.27,40.37l-.43,1.46h-4a10.94,10.94,0,0,1-6.34-1.85c-3.94-2.68-5.95-7-5.95-12.88,0-6.36,2.55-12.44,5.84-17.77A81,81,0,0,1,36,957.41a151.61,151.61,0,0,1,14.77-13,89.83,89.83,0,0,0,8-7.49,95.75,95.75,0,0,0,15.91-21.39c4-7.36,6-14.29,6-20.56s-2.09-11-6.34-14.53c-2.87-2.33-7-3.51-12.09-3.51-14.77,0-29.46,7.09-43.76,21.11C6.92,909.38,1.05,919.19,1.05,927.34a8.31,8.31,0,0,0,1.73,5.12,7.23,7.23,0,0,0,6,2.8c4.37,0,10-2.13,16.66-6.38C39.45,920,49.3,906.42,54.65,888.54l.44-1.45h4a11,11,0,0,1,6.34,1.85c3.94,2.64,6,7,6,12.88,0,9.95-6,19.06-12.15,26.39a109.66,109.66,0,0,1-13.35,13.13c-4.71,4-9.57,7.77-13.85,12.19a97.26,97.26,0,0,0-15.92,21.39c-4,7.41-6,14.34-6,20.6s2.09,11,6.34,14.53c2.87,2.33,6.93,3.51,12.09,3.51,14.73,0,29.46-7.09,43.76-21.11C83.8,981.14,89.67,971.3,89.67,963.18ZM49.38,888.42l-1.46,4.34c-2.29,6.58-4.84,11.81-7.72,15.59A61.67,61.67,0,0,1,23,924a13.12,13.12,0,0,1-6.94,2.36c-2.95,0-4.76-1.77-4.76-4.6s1.89-6.62,5.75-11.39c6.46-8,15.91-14.81,28.08-20.12Zm30,80.36c0,2.87-1.89,6.57-5.75,11.38-6.46,8-15.91,14.81-28.08,20.09l-4.22,1.85,1.46-4.37c2.28-6.54,4.84-11.78,7.68-15.6a63,63,0,0,1,17.21-15.64,13.48,13.48,0,0,1,6.93-2.32C77.58,964.17,79.39,965.94,79.39,968.78Z" transform="translate(-0.25 0.36)"/><path class="cls-3" d="M189.75,670.74a8.22,8.22,0,0,0-1.77-5.16,7.17,7.17,0,0,0-5.91-2.76c-4.41,0-10,2.13-16.66,6.35-14.06,8.9-23.91,22.49-29.27,40.37l-.43,1.46h-4a10.88,10.88,0,0,1-6.34-1.86c-3.94-2.67-6-7-6-12.88,0-6.35,2.55-12.43,5.83-17.76A81.17,81.17,0,0,1,136,665a154.14,154.14,0,0,1,14.76-13,88.49,88.49,0,0,0,8-7.48,96,96,0,0,0,15.91-21.39c4-7.36,6-14.3,6-20.56s-2.09-11-6.34-14.53c-2.88-2.33-7-3.51-12.1-3.51-14.77,0-29.46,7.09-43.76,21.11-11.54,11.31-17.4,21.11-17.4,29.27a8.31,8.31,0,0,0,1.73,5.12,7.21,7.21,0,0,0,6,2.8c4.37,0,10-2.13,16.66-6.39,14.06-8.86,23.91-22.45,29.26-40.33l.43-1.46h4a10.92,10.92,0,0,1,6.34,1.85c3.94,2.64,6,7,6,12.88,0,10-6,19.07-12.14,26.4a109,109,0,0,1-13.36,13.13,182.05,182.05,0,0,0-13.85,12.19,97.53,97.53,0,0,0-15.91,21.39c-4,7.4-6,14.34-6,20.6s2.08,11,6.34,14.53c2.87,2.33,6.93,3.51,12.09,3.51,14.73,0,29.46-7.09,43.76-21.11C183.88,688.7,189.75,678.86,189.75,670.74ZM149.45,596,148,600.32c-2.29,6.57-4.85,11.81-7.72,15.59a61.7,61.7,0,0,1-17.18,15.64,13.09,13.09,0,0,1-6.93,2.36c-3,0-4.76-1.77-4.76-4.6s1.89-6.62,5.75-11.39c6.46-8,15.91-14.81,28.08-20.12Zm30,80.35c0,2.88-1.89,6.58-5.75,11.39-6.46,8-15.92,14.81-28.09,20.09l-4.21,1.85,1.46-4.38c2.28-6.53,4.84-11.77,7.68-15.59a63,63,0,0,1,17.21-15.64,13.36,13.36,0,0,1,6.93-2.32C177.66,671.73,179.47,673.5,179.47,676.33Z" transform="translate(-0.25 0.36)"/><path class="cls-3" d="M18.63,700c14.3,14,29,21.11,43.76,21.11,5.16,0,9.22-1.18,12.09-3.51,4.26-3.54,6.35-8.27,6.35-14.53s-2-13.2-6-20.6a97.21,97.21,0,0,0-15.91-21.39A180.15,180.15,0,0,0,45,648.9a109,109,0,0,1-13.36-13.13c-6.18-7.33-12.14-16.44-12.14-26.4,0-5.9,2-10.24,5.95-12.88a10.92,10.92,0,0,1,6.34-1.85h4l.43,1.46C41.6,614,51.44,627.57,65.5,636.43c6.66,4.26,12.29,6.39,16.66,6.39a7.2,7.2,0,0,0,6-2.8,8.32,8.32,0,0,0,1.74-5.12c0-8.16-5.87-18-17.41-29.27-14.3-14-29-21.11-43.76-21.11-5.12,0-9.22,1.18-12.1,3.51-4.25,3.5-6.34,8.27-6.34,14.53s2,13.2,6,20.56a96.28,96.28,0,0,0,15.91,21.39,88.49,88.49,0,0,0,8,7.48,154.14,154.14,0,0,1,14.76,13A81.17,81.17,0,0,1,65.7,678.5c3.28,5.33,5.83,11.41,5.83,17.76,0,5.87-2,10.21-6,12.88A10.88,10.88,0,0,1,59.24,711h-4l-.43-1.46c-5.36-17.88-15.2-31.47-29.27-40.37-6.65-4.22-12.24-6.35-16.66-6.35A7.14,7.14,0,0,0,3,665.58a8.17,8.17,0,0,0-1.78,5.16C1.22,678.86,7.09,688.7,18.63,700ZM45.73,597.8c12.17,5.31,21.62,12.09,28.09,20.12,3.86,4.77,5.75,8.51,5.75,11.39s-1.82,4.6-4.77,4.6a13.09,13.09,0,0,1-6.93-2.36,61.84,61.84,0,0,1-17.18-15.64c-2.87-3.78-5.43-9-7.72-15.59L41.52,596ZM16.27,671.73a13.36,13.36,0,0,1,6.93,2.32,63,63,0,0,1,17.21,15.64c2.84,3.82,5.4,9.06,7.68,15.59l1.46,4.38-4.21-1.85c-12.17-5.28-21.63-12.06-28.09-20.09-3.86-4.81-5.75-8.51-5.75-11.39S13.32,671.73,16.27,671.73Z" transform="translate(-0.25 0.36)"/></g></g></g></svg>